{"glyphs":{"0":{"ha":878,"x_min":92,"x_max":786,"o":"m 92 347 q 193 592 92 490 q 439 694 295 694 q 684 592 582 694 q 786 347 786 490 q 684 101 786 204 q 439 0 582 0 q 193 101 295 0 q 92 347 92 204 m 221 348 q 286 194 221 257 q 440 129 349 129 q 594 194 530 129 q 657 348 657 257 q 594 502 657 439 q 440 566 530 566 q 286 502 349 566 q 221 348 221 439 m 534 348 q 507 280 534 307 q 439 252 478 252 q 371 280 399 252 q 344 348 344 307 q 371 414 344 387 q 439 443 399 443 q 507 414 478 443 q 534 348 534 387 z "},"1":{"ha":313,"x_min":67,"x_max":221,"o":"m 92 532 q 67 586 92 570 l 138 694 q 221 537 221 639 l 221 0 l 92 0 l 92 532 z "},"2":{"ha":844,"x_min":92,"x_max":753,"o":"m 286 64 l 590 64 q 644 89 629 64 l 753 18 q 595 -65 697 -65 l 286 -65 q 189 -39 235 -65 q 117 33 142 -13 q 92 129 92 79 q 118 227 92 180 q 194 301 144 273 q 318 349 245 323 q 492 419 445 395 q 569 501 569 460 q 561 533 569 517 q 536 557 552 549 q 504 566 521 566 l 254 566 q 200 541 216 566 l 92 612 q 249 695 147 695 l 504 695 q 602 669 555 695 q 673 597 648 643 q 699 501 699 551 q 552 304 699 382 q 362 227 497 276 q 286 198 320 212 l 254 186 q 230 161 239 177 q 221 129 221 146 q 230 97 221 113 q 254 73 238 81 q 286 64 269 64 z "},"3":{"ha":790,"x_min":92,"x_max":699,"o":"m 534 290 l 536 291 q 560 314 551 299 q 569 347 569 330 q 560 379 569 363 q 536 404 551 395 l 504 416 q 428 444 470 429 q 238 522 293 494 q 92 719 92 600 l 221 719 q 298 637 221 677 q 472 566 345 612 q 596 519 545 541 q 672 444 646 491 q 699 347 699 397 q 673 250 699 296 q 652 220 664 233 q 672 191 663 206 q 699 93 699 144 q 673 -4 699 42 q 596 -79 647 -50 q 587 -83 591 -81 q 569 -90 578 -87 q 472 -126 526 -107 q 298 -197 345 -172 q 221 -278 221 -237 l 92 -278 q 238 -82 92 -159 q 428 -4 293 -54 q 504 24 470 11 l 536 37 q 560 61 551 45 q 569 93 569 76 q 560 125 569 110 q 536 150 551 141 l 504 162 q 428 191 470 176 q 238 269 293 240 q 92 465 92 346 l 221 465 q 298 383 221 424 q 472 313 345 359 q 534 290 505 301 z "},"4":{"ha":878,"x_min":92,"x_max":786,"o":"m 92 218 q 194 394 92 315 q 406 515 254 441 q 579 610 532 576 q 656 719 656 663 l 786 719 q 654 504 786 595 q 462 398 599 465 q 274 292 323 331 q 221 218 221 251 q 230 186 221 202 q 254 162 238 171 q 286 154 269 154 l 591 154 q 689 128 642 154 q 761 56 736 102 q 786 -40 786 9 l 786 -251 l 656 -251 l 656 -40 q 648 -8 656 -24 q 624 16 640 7 q 591 24 608 24 l 286 24 q 189 51 235 24 q 117 123 142 77 q 92 218 92 169 z "},"5":{"ha":878,"x_min":92,"x_max":786,"o":"m 786 242 q 684 66 786 146 q 472 -54 623 19 q 298 -149 345 -116 q 221 -258 221 -203 l 92 -258 q 224 -43 92 -135 q 416 62 279 -4 q 604 169 554 130 q 656 242 656 210 q 648 274 656 258 q 624 298 640 290 q 591 307 608 307 l 286 307 q 189 333 235 307 q 117 405 142 359 q 92 500 92 451 q 117 596 92 550 q 189 668 142 642 q 286 694 235 694 l 623 694 q 677 719 662 694 l 786 648 q 629 565 730 565 l 286 565 q 254 556 269 565 q 230 532 238 548 q 221 500 221 517 q 230 469 221 484 q 254 445 238 453 q 286 436 269 436 l 591 436 q 689 410 642 436 q 761 338 736 384 q 786 242 786 292 z "},"6":{"ha":878,"x_min":92,"x_max":786,"o":"m 427 564 q 298 477 336 509 q 221 347 221 413 q 285 193 221 256 q 439 127 348 127 q 593 193 530 127 q 658 347 658 256 q 593 500 658 437 q 439 564 530 564 l 427 564 m 92 347 q 194 557 92 462 q 406 700 254 612 q 579 813 532 774 q 656 945 656 878 l 786 945 q 684 733 786 828 q 589 661 650 702 q 685 591 640 635 q 786 347 786 490 q 685 100 786 203 q 439 -1 582 -1 q 194 100 296 -1 q 92 347 92 203 z "},"7":{"ha":878,"x_min":92,"x_max":786,"o":"m 591 565 l 249 565 q 92 648 147 565 l 200 719 q 254 694 216 694 l 591 694 q 689 668 642 694 q 761 596 736 642 q 786 500 786 550 q 684 325 786 404 q 472 204 623 277 q 298 109 345 142 q 221 0 221 56 l 221 -251 l 92 -251 l 92 0 q 224 215 92 123 q 416 321 279 254 q 604 427 554 388 q 656 500 656 468 q 648 532 656 517 q 624 556 640 548 q 591 565 608 565 z "},"8":{"ha":878,"x_min":92,"x_max":786,"o":"m 220 347 q 285 193 220 256 q 439 128 348 128 q 593 193 529 128 q 656 347 656 256 q 593 501 656 438 q 439 565 529 565 q 285 501 348 565 q 220 347 220 438 m 396 839 q 386 834 396 839 q 366 809 376 829 q 355 768 355 789 q 365 728 355 747 q 395 697 376 708 q 436 687 415 687 q 477 697 457 687 q 507 728 496 708 q 517 768 517 747 q 507 809 517 789 q 476 839 496 829 q 436 850 456 850 q 396 839 415 850 m 604 652 q 684 592 646 629 q 786 347 786 490 q 684 101 786 204 q 439 0 582 0 q 193 101 295 0 q 92 347 92 204 q 193 592 92 490 q 270 650 229 628 q 260 667 264 659 q 233 768 233 715 q 260 870 233 821 q 336 946 287 920 q 436 972 385 972 q 536 946 487 972 q 612 870 585 920 q 640 768 640 821 q 613 667 640 715 q 604 652 609 659 z "},"9":{"ha":878,"x_min":92,"x_max":786,"o":"m 450 130 q 579 217 542 185 q 656 347 656 281 q 593 501 656 438 q 439 566 530 566 q 285 501 348 566 q 220 347 220 438 q 285 193 220 257 q 439 130 348 130 l 450 130 m 786 347 q 684 137 786 232 q 472 -6 623 81 q 298 -119 345 -80 q 221 -251 221 -184 l 92 -251 q 194 -39 92 -134 q 289 33 227 -8 q 193 102 237 58 q 92 347 92 204 q 193 593 92 491 q 439 694 296 694 q 684 593 582 694 q 786 347 786 491 z "},"\u0000":{"ha":0,"x_min":0,"x_max":0,"o":""}," ":{"ha":694,"x_min":0,"x_max":0,"o":""},"!":{"ha":373,"x_min":92,"x_max":281,"o":"m 254 163 q 281 95 281 136 q 254 28 281 56 q 186 0 226 0 q 119 28 147 0 q 92 95 92 56 q 119 163 92 136 q 186 191 147 191 q 254 163 226 191 m 252 441 q 276 387 252 402 l 205 278 q 122 435 122 334 l 122 972 l 252 972 l 252 441 z "},"\"":{"ha":553,"x_min":92,"x_max":462,"o":"m 462 722 q 379 565 462 621 l 308 673 q 332 728 332 689 l 332 890 l 462 890 l 462 722 m 245 722 q 163 565 245 621 l 92 673 q 116 728 116 689 l 116 890 l 245 890 l 245 722 z "},"#":{"ha":1061,"x_min":92,"x_max":969,"o":"m 354 410 q 402 488 379 454 q 286 574 325 538 q 183 786 183 669 l 313 786 q 390 654 313 720 q 479 592 419 630 q 690 694 574 694 l 690 565 q 594 524 641 565 q 673 475 637 498 q 759 592 722 553 q 969 694 854 694 l 969 565 q 839 488 903 565 q 776 397 814 459 q 878 188 878 302 l 748 188 q 708 282 748 236 q 659 204 682 239 q 775 119 736 155 q 878 -92 878 24 l 748 -92 q 671 39 748 -25 q 581 101 642 63 q 371 0 487 0 l 371 130 q 466 170 418 130 q 389 218 423 195 q 303 102 340 141 q 92 0 208 0 l 92 130 q 223 207 158 130 q 285 296 248 236 q 183 507 183 390 l 313 507 q 354 410 313 458 m 512 422 q 455 328 487 383 q 549 271 494 303 q 606 365 574 309 q 512 422 568 390 z "},"$":{"ha":460,"x_min":92,"x_max":368,"o":"m 368 690 q 298 555 311 655 q 292 452 292 519 q 295 351 292 408 q 297 255 297 299 q 286 93 297 151 q 160 -106 259 -44 l 92 4 q 162 139 148 39 q 168 254 168 179 q 166 347 168 295 q 164 440 164 397 q 175 602 164 545 q 299 800 201 739 l 368 690 z "},"%":{"ha":972,"x_min":92,"x_max":881,"o":"m 785 565 q 654 488 718 565 q 543 315 615 442 q 398 102 455 163 q 186 0 303 0 l 186 130 q 318 207 253 130 q 431 380 357 254 q 574 592 519 532 q 785 694 669 694 l 785 565 m 534 174 q 585 296 534 245 q 707 347 635 347 q 830 296 779 347 q 881 174 881 245 q 830 51 881 102 q 707 0 779 0 q 585 51 635 0 q 534 174 534 102 m 652 174 q 668 134 652 151 q 707 118 684 118 q 746 134 730 118 q 762 174 762 151 q 746 212 762 197 q 707 229 730 229 q 668 212 684 229 q 652 174 652 197 m 439 521 q 389 399 439 450 q 265 347 337 347 q 143 399 194 347 q 92 521 92 450 q 143 644 92 593 q 265 694 194 694 q 389 644 337 694 q 439 521 439 593 m 321 521 q 304 560 321 544 q 265 576 288 576 q 227 560 243 576 q 211 521 211 544 q 227 482 211 498 q 265 466 243 466 q 304 482 288 466 q 321 521 321 498 z "},"&":{"ha":878,"x_min":136,"x_max":994,"o":"m 300 343 q 274 308 283 323 q 265 275 265 292 q 274 243 265 258 q 298 220 283 228 l 330 207 q 406 178 364 193 q 505 140 463 157 l 505 0 q 362 56 455 22 q 265 92 308 75 q 248 100 256 96 q 238 104 243 102 q 161 178 187 132 q 136 275 136 224 q 162 373 136 326 q 182 402 171 389 q 161 432 170 416 q 136 529 136 478 q 162 627 136 580 q 238 701 189 673 q 362 749 290 723 q 536 819 489 795 q 613 901 613 860 l 743 901 q 596 705 743 782 q 406 627 541 676 q 330 598 364 612 l 298 586 q 274 562 283 577 q 265 529 265 546 q 274 497 265 512 q 298 473 283 481 l 300 473 l 831 473 q 886 497 870 473 l 994 426 q 837 343 939 343 l 697 343 l 697 -64 q 614 -222 697 -166 l 543 -113 q 568 -59 568 -98 l 568 343 l 300 343 z "},"'":{"ha":373,"x_min":92,"x_max":281,"o":"m 92 595 q 119 662 92 635 q 186 690 147 690 q 254 662 226 690 q 281 595 281 635 q 254 528 281 555 q 186 499 226 499 q 119 528 147 499 q 92 595 92 555 z "},"(":{"ha":454,"x_min":92,"x_max":363,"o":"m 363 945 q 337 734 363 829 q 283 589 322 677 q 241 477 252 517 q 221 347 221 414 q 241 218 221 281 q 283 106 252 178 q 337 -39 322 18 q 363 -250 363 -134 l 231 -250 q 212 -72 227 -126 q 165 54 199 -24 q 117 180 130 134 q 92 347 92 262 q 117 515 92 433 q 165 641 130 561 q 212 767 199 720 q 231 945 227 821 l 363 945 z "},")":{"ha":454,"x_min":92,"x_max":363,"o":"m 223 945 q 243 767 228 821 q 290 641 255 720 q 338 515 324 561 q 363 347 363 433 q 338 180 363 262 q 290 54 324 134 q 243 -72 255 -24 q 223 -250 228 -126 l 92 -250 q 117 -39 92 -134 q 171 106 132 18 q 214 218 202 178 q 233 347 233 281 q 214 477 233 414 q 171 589 202 517 q 117 734 132 677 q 92 945 92 829 l 223 945 z "},"*":{"ha":884,"x_min":92,"x_max":792,"o":"m 377 422 l 377 680 l 507 680 l 507 422 l 752 502 l 792 378 l 652 333 l 547 299 l 699 90 l 593 14 l 442 222 l 290 14 l 185 90 l 336 299 l 232 333 l 92 378 l 132 502 l 377 422 z "},"+":{"ha":878,"x_min":92,"x_max":786,"o":"m 342 271 l 92 271 l 92 400 l 342 400 l 342 537 q 425 694 342 639 l 496 586 q 471 532 471 570 l 471 400 l 623 400 q 677 425 662 400 l 786 353 q 629 271 730 271 l 471 271 l 471 0 l 342 0 l 342 271 z "},",":{"ha":337,"x_min":92,"x_max":245,"o":"m 245 -39 q 163 -196 245 -140 l 92 -87 q 116 -33 116 -72 l 116 130 l 245 130 l 245 -39 z "},"-":{"ha":878,"x_min":92,"x_max":786,"o":"m 92 271 l 92 400 l 623 400 q 677 425 662 400 l 786 353 q 629 271 730 271 l 92 271 z "},".":{"ha":373,"x_min":92,"x_max":281,"o":"m 254 163 q 281 95 281 136 q 254 28 281 56 q 186 0 226 0 q 119 28 147 0 q 92 95 92 56 q 119 163 92 136 q 186 191 147 191 q 254 163 226 191 z "},"/":{"ha":781,"x_min":92,"x_max":690,"o":"m 690 565 q 559 488 623 565 q 448 315 520 442 q 303 102 360 163 q 92 0 208 0 l 92 130 q 223 207 158 130 q 336 380 262 254 q 479 592 424 532 q 690 694 574 694 l 690 565 z "},":":{"ha":373,"x_min":92,"x_max":281,"o":"m 254 163 q 281 95 281 136 q 254 28 281 56 q 186 0 226 0 q 119 28 147 0 q 92 95 92 56 q 119 163 92 136 q 186 191 147 191 q 254 163 226 191 m 254 545 q 281 477 281 518 q 254 411 281 438 q 186 382 226 382 q 119 411 147 382 q 92 477 92 438 q 119 545 92 518 q 186 574 147 574 q 254 545 226 574 z "},";":{"ha":373,"x_min":92,"x_max":281,"o":"m 254 545 q 281 477 281 518 q 254 411 281 438 q 186 382 226 382 q 119 411 147 382 q 92 477 92 438 q 119 545 92 518 q 186 574 147 574 q 254 545 226 574 m 245 -39 q 163 -196 245 -140 l 92 -87 q 116 -33 116 -72 l 116 130 l 245 130 l 245 -39 z "},"<":{"ha":624,"x_min":92,"x_max":532,"o":"m 532 677 q 476 562 532 614 q 359 483 443 531 q 264 420 290 442 q 221 348 221 385 q 264 275 221 311 q 359 212 290 253 q 476 133 443 164 q 532 18 532 81 l 403 18 q 388 38 403 24 q 294 100 365 60 q 180 176 215 146 q 92 348 92 250 q 180 519 92 445 q 294 595 215 549 q 388 657 365 635 q 403 677 403 671 l 532 677 z "},"=":{"ha":878,"x_min":92,"x_max":786,"o":"m 629 292 q 786 210 730 292 l 677 138 q 623 163 662 163 l 119 163 l 119 292 l 629 292 m 249 422 q 92 505 147 422 l 200 576 q 254 551 216 551 l 752 551 l 752 422 l 249 422 z "},">":{"ha":624,"x_min":92,"x_max":532,"o":"m 221 677 q 236 657 221 671 q 330 595 259 635 q 444 519 409 549 q 532 348 532 445 q 444 176 532 250 q 330 100 409 146 q 236 38 259 60 q 221 18 221 24 l 92 18 q 148 133 92 81 q 264 212 181 164 q 360 275 334 253 q 403 348 403 311 q 360 420 403 385 q 264 483 334 442 q 148 562 181 531 q 92 677 92 614 l 221 677 z "},"?":{"ha":878,"x_min":92,"x_max":786,"o":"m 249 694 q 92 777 147 694 l 200 848 q 254 824 216 824 l 591 824 q 689 798 642 824 q 761 726 736 772 q 786 630 786 680 q 684 454 786 534 q 472 334 623 407 l 416 450 q 604 557 554 517 q 656 630 656 597 q 648 662 656 646 q 624 686 640 677 q 591 694 608 694 l 249 694 m 507 28 q 439 0 478 0 q 371 28 399 0 q 344 96 344 56 q 371 163 344 136 q 439 191 399 191 q 507 163 478 191 q 534 96 534 136 q 507 28 534 56 z "},"@":{"ha":1529,"x_min":92,"x_max":1438,"o":"m 1013 198 q 943 101 987 146 q 698 0 841 0 q 452 101 554 0 q 351 347 351 204 q 452 592 351 490 q 698 694 554 694 q 908 592 813 694 q 1035 408 958 537 l 1173 184 q 1196 150 1191 157 q 1211 138 1202 143 q 1243 130 1227 130 q 1276 138 1260 130 q 1300 162 1291 146 q 1308 194 1308 178 q 1299 227 1308 211 q 1286 249 1293 237 q 1003 680 1074 610 q 698 824 869 824 q 360 684 500 824 q 221 347 221 544 q 360 9 221 151 l 269 -82 q 92 347 92 98 q 269 775 92 597 q 698 954 447 954 q 1098 768 926 954 q 1409 297 1174 686 q 1411 292 1410 294 q 1438 194 1438 245 q 1412 98 1438 144 q 1340 26 1387 52 q 1243 0 1294 0 q 1147 26 1193 0 q 1087 78 1110 45 l 1082 86 q 1076 94 1079 90 l 1013 198 m 698 565 q 544 501 607 565 q 479 347 479 438 q 544 193 479 256 q 698 128 607 128 q 852 193 788 128 q 915 347 915 256 l 915 359 q 828 488 860 450 q 698 565 764 565 z "},"A":{"ha":1379,"x_min":92,"x_max":1287,"o":"m 336 380 q 479 592 424 532 q 689 694 574 694 q 899 592 804 694 q 1042 380 955 532 q 1156 207 1116 254 q 1287 130 1221 130 l 1287 0 q 1076 102 1171 0 q 931 315 1019 163 q 819 488 859 442 q 689 565 755 565 q 559 488 623 565 q 448 315 520 442 q 303 102 360 163 q 92 0 208 0 l 92 130 q 223 207 158 130 q 336 380 262 254 m 785 225 q 758 157 785 184 q 689 128 728 128 q 621 157 650 128 q 594 225 594 184 q 621 292 594 264 q 689 320 650 320 q 758 292 728 320 q 785 225 785 264 z "},"B":{"ha":878,"x_min":92,"x_max":787,"o":"m 254 0 q 200 -24 216 0 l 92 47 q 249 130 147 130 l 569 130 q 612 142 591 130 q 645 174 633 153 q 657 218 657 195 q 645 262 657 241 q 613 294 633 283 q 572 305 593 305 l 249 305 l 249 435 l 572 435 q 604 443 589 435 q 628 467 620 452 q 637 500 637 483 q 628 532 637 517 q 604 556 619 548 q 572 565 588 565 l 249 565 q 92 648 147 565 l 200 719 q 254 694 216 694 l 572 694 q 667 669 621 694 q 740 597 713 644 q 766 500 766 551 q 741 403 766 449 q 722 374 732 388 q 758 327 743 354 q 787 218 787 275 q 757 109 787 161 q 675 29 728 57 q 569 0 623 1 l 254 0 z "},"C":{"ha":790,"x_min":92,"x_max":699,"o":"m 254 404 q 230 379 239 395 q 221 347 221 363 q 230 314 221 330 q 254 291 239 299 l 286 278 q 362 250 320 264 q 552 172 497 200 q 699 -24 699 94 l 569 -24 q 492 57 569 16 q 318 127 445 81 q 221 163 264 146 q 203 171 212 167 q 194 175 199 173 q 117 250 143 203 q 92 347 92 296 q 118 444 92 397 q 194 519 144 491 q 318 566 245 541 q 492 637 445 612 q 569 719 569 677 l 699 719 q 552 522 699 600 q 362 444 497 494 q 286 416 320 429 l 254 404 z "},"D":{"ha":790,"x_min":92,"x_max":699,"o":"m 504 416 q 428 444 470 429 q 238 522 293 494 q 92 719 92 600 l 221 719 q 298 637 221 677 q 472 566 345 612 q 596 519 545 541 q 672 444 646 491 q 699 347 699 397 q 673 250 699 296 q 596 175 647 203 q 587 171 591 173 q 569 163 578 167 q 472 127 526 146 q 298 57 345 81 q 221 -24 221 16 l 92 -24 q 238 172 92 94 q 428 250 293 200 q 504 278 470 264 l 536 291 q 560 314 551 299 q 569 347 569 330 q 560 379 569 363 q 536 404 551 395 l 504 416 z "},"E":{"ha":790,"x_min":92,"x_max":699,"o":"m 254 404 q 230 379 239 395 q 221 347 221 363 q 230 314 221 330 q 254 291 239 299 l 286 278 q 362 250 320 264 q 552 172 497 200 q 699 -24 699 94 l 569 -24 q 492 57 569 16 q 318 127 445 81 q 221 163 264 146 q 203 171 212 167 q 194 175 199 173 q 117 250 143 203 q 92 347 92 296 q 118 444 92 397 q 194 519 144 491 q 318 566 245 541 q 492 637 445 612 q 569 719 569 677 l 699 719 q 552 522 699 600 q 362 444 497 494 q 286 416 320 429 l 254 404 m 509 348 q 536 414 509 387 q 604 443 565 443 q 672 414 644 443 q 699 348 699 387 q 672 280 699 307 q 604 252 644 252 q 536 280 565 252 q 509 348 509 307 z "},"F":{"ha":852,"x_min":67,"x_max":761,"o":"m 598 694 q 652 719 637 694 l 761 648 q 604 565 705 565 l 286 565 q 254 556 269 565 q 230 532 238 548 q 221 500 221 517 l 221 157 q 138 0 221 56 l 67 109 q 92 163 92 124 l 92 500 q 118 597 92 551 q 190 669 144 644 q 286 694 236 694 l 598 694 m 494 281 q 426 252 465 252 q 358 281 387 252 q 331 349 331 308 q 358 415 331 388 q 426 444 387 444 q 494 415 465 444 q 522 349 522 388 q 494 281 522 308 z "},"G":{"ha":790,"x_min":92,"x_max":699,"o":"m 569 -24 q 492 57 569 16 q 318 127 445 81 q 221 163 264 146 q 203 171 212 167 q 194 175 199 173 q 117 250 143 203 q 92 347 92 296 q 118 444 92 397 q 194 519 144 491 q 318 566 245 541 q 492 637 445 612 q 569 719 569 677 l 699 719 q 552 522 699 600 q 362 444 497 494 q 286 416 320 429 l 254 404 q 230 379 239 395 q 221 347 221 363 q 230 314 221 330 q 254 291 239 299 l 286 278 q 362 250 320 264 q 552 172 497 200 q 569 162 561 167 l 569 342 l 699 342 l 699 -121 q 616 -278 699 -222 l 545 -170 q 569 -115 569 -154 l 569 -24 z "},"H":{"ha":877,"x_min":67,"x_max":810,"o":"m 656 564 q 739 722 656 666 l 810 613 q 785 559 785 597 l 785 0 l 656 0 l 656 564 m 221 130 q 138 -27 221 28 l 67 81 q 92 136 92 97 l 92 694 l 221 694 l 221 130 m 343 348 q 370 414 343 387 q 438 443 399 443 q 506 414 477 443 q 533 348 533 387 q 506 280 533 307 q 438 252 477 252 q 370 280 399 252 q 343 348 343 307 z "},"I":{"ha":313,"x_min":92,"x_max":245,"o":"m 92 537 q 174 694 92 639 l 245 586 q 221 532 221 570 l 221 0 l 92 0 l 92 537 z "},"J":{"ha":313,"x_min":67,"x_max":221,"o":"m 92 694 l 221 694 l 221 -108 q 138 -265 221 -210 l 67 -157 q 92 -102 92 -141 l 92 694 z "},"K":{"ha":975,"x_min":67,"x_max":883,"o":"m 659 349 q 753 207 719 247 q 883 130 817 130 l 883 0 q 673 102 768 0 q 585 224 635 142 q 495 102 533 143 q 286 0 400 0 q 190 25 236 0 q 118 97 144 50 q 92 195 92 144 l 92 532 q 67 586 92 570 l 138 694 q 221 537 221 639 l 221 195 q 230 162 221 178 q 254 138 238 146 q 286 130 269 130 q 415 207 352 130 q 527 379 454 252 q 672 592 614 532 q 883 694 767 694 l 883 565 q 752 488 817 565 q 659 349 718 448 z "},"L":{"ha":852,"x_min":67,"x_max":761,"o":"m 604 130 q 761 47 705 130 l 652 -24 q 598 0 637 0 l 286 0 q 190 25 236 0 q 118 97 144 50 q 92 195 92 144 l 92 532 q 67 586 92 570 l 138 694 q 221 537 221 639 l 221 195 q 230 162 221 178 q 254 138 238 146 q 286 130 269 130 l 604 130 z "},"M":{"ha":1976,"x_min":92,"x_max":1885,"o":"m 1063 346 q 1156 207 1122 247 q 1287 130 1221 130 l 1287 0 q 1076 102 1171 0 q 931 315 1019 163 q 819 488 859 442 q 690 565 755 565 q 559 488 623 565 q 448 315 520 442 q 303 102 360 163 q 92 0 208 0 l 92 130 q 223 207 158 130 q 336 380 262 254 q 479 592 424 532 q 690 694 574 694 q 899 592 804 694 q 988 471 937 551 q 1077 592 1040 551 q 1287 694 1172 694 q 1497 592 1402 694 q 1640 380 1552 532 q 1753 207 1714 254 q 1885 130 1818 130 l 1885 0 q 1673 102 1769 0 q 1529 315 1616 163 q 1417 488 1456 442 q 1287 565 1353 565 q 1157 488 1221 565 q 1063 346 1122 448 z "},"N":{"ha":1168,"x_min":67,"x_max":1101,"o":"m 221 500 l 221 157 q 138 0 221 56 l 67 109 q 92 163 92 124 l 92 500 q 118 597 92 551 q 190 669 144 644 q 286 694 236 694 q 495 592 400 694 q 639 380 551 532 q 752 207 713 254 q 883 130 817 130 q 915 138 899 130 q 939 162 930 146 q 947 195 947 178 l 947 537 q 1030 694 947 639 l 1101 586 q 1077 532 1077 570 l 1077 195 q 1051 97 1077 144 q 979 25 1025 50 q 883 0 932 0 q 672 102 767 0 q 527 315 614 163 q 415 488 454 442 q 286 565 352 565 q 254 556 269 565 q 230 532 238 548 q 221 500 221 517 z "},"O":{"ha":878,"x_min":92,"x_max":786,"o":"m 92 347 q 193 592 92 490 q 439 694 295 694 q 684 592 582 694 q 786 347 786 490 q 684 101 786 204 q 439 0 582 0 q 193 101 295 0 q 92 347 92 204 m 220 347 q 285 193 220 256 q 439 128 348 128 q 593 193 529 128 q 656 347 656 256 q 593 501 656 438 q 439 565 529 565 q 285 501 348 565 q 220 347 220 438 z "},"P":{"ha":878,"x_min":67,"x_max":787,"o":"m 249 565 q 92 648 147 565 l 200 719 q 254 694 216 694 l 569 694 q 675 666 623 694 q 757 585 728 637 q 787 476 787 533 q 758 368 787 419 q 677 288 729 316 q 572 260 627 260 l 286 260 q 254 251 270 260 q 230 227 239 243 q 221 195 222 212 l 221 157 q 138 0 221 56 l 67 109 q 92 163 92 124 l 92 195 l 92 195 q 118 292 92 245 q 191 364 144 339 q 286 389 237 389 l 572 389 q 613 400 593 389 q 645 432 633 412 q 657 476 657 453 q 645 520 657 499 q 612 553 633 541 q 569 565 591 564 l 249 565 z "},"Q":{"ha":924,"x_min":92,"x_max":832,"o":"m 238 435 q 220 347 220 395 q 285 193 220 256 q 439 128 348 128 q 505 138 473 128 q 476 186 490 161 q 364 358 404 313 q 238 435 302 433 m 576 27 q 439 0 513 0 q 193 101 295 0 q 92 347 92 204 q 193 592 92 490 q 439 694 295 694 q 684 592 582 694 q 786 347 786 490 q 684 101 786 204 l 683 100 q 701 77 692 87 q 832 0 766 0 l 832 -130 q 621 -27 715 -130 q 576 27 600 -5 m 610 212 q 656 347 656 270 q 593 501 656 438 q 439 565 529 565 q 339 542 384 565 q 444 463 395 516 q 587 251 500 402 q 610 212 599 231 z "},"R":{"ha":878,"x_min":92,"x_max":786,"o":"m 591 565 l 249 565 q 92 648 147 565 l 200 719 q 254 694 216 694 l 591 694 q 689 668 642 694 q 761 596 736 642 q 786 500 786 550 q 684 325 786 404 q 608 275 655 302 q 656 207 636 230 q 786 130 720 130 l 786 0 q 576 102 671 0 q 493 214 541 140 q 472 204 483 210 q 298 109 345 142 q 221 0 221 56 l 92 0 q 224 215 92 123 q 416 321 279 254 q 604 427 554 388 q 656 500 656 468 q 648 532 656 517 q 624 556 640 548 q 591 565 608 565 z "},"S":{"ha":781,"x_min":92,"x_max":690,"o":"m 690 565 q 559 488 623 565 q 448 315 520 442 q 303 102 360 163 q 92 0 208 0 l 92 130 q 223 207 158 130 q 336 380 262 254 q 479 592 424 532 q 690 694 574 694 l 690 565 z "},"T":{"ha":878,"x_min":92,"x_max":786,"o":"m 489 565 l 489 157 q 406 0 489 56 l 335 109 q 359 163 359 124 l 359 565 l 92 565 l 92 694 l 623 694 q 677 719 662 694 l 786 648 q 629 565 730 565 l 489 565 z "},"U":{"ha":878,"x_min":67,"x_max":810,"o":"m 656 347 l 656 694 l 786 694 l 786 163 q 810 109 786 124 l 739 0 q 669 87 688 35 q 439 0 571 0 q 193 101 295 0 q 92 347 92 204 l 92 532 q 67 586 92 570 l 138 694 q 221 537 221 639 l 221 321 q 285 193 229 248 q 439 128 348 128 q 593 193 529 128 q 656 347 656 256 l 656 347 z "},"V":{"ha":1380,"x_min":92,"x_max":1289,"o":"m 935 380 q 1079 592 1023 532 q 1289 694 1174 694 l 1289 565 q 1159 488 1222 565 q 1047 315 1120 442 q 902 102 960 163 q 691 0 807 0 q 478 102 573 0 q 333 315 420 163 q 221 488 260 442 q 92 565 158 565 l 92 694 q 301 592 206 694 q 445 380 357 532 q 558 207 519 254 q 691 130 623 130 q 822 207 758 130 q 935 380 861 254 z "},"W":{"ha":1980,"x_min":92,"x_max":1888,"o":"m 990 220 q 902 102 939 142 q 689 0 807 0 q 478 102 573 0 q 333 315 420 163 q 221 488 260 442 q 92 565 158 565 l 92 694 q 301 592 206 694 q 445 380 357 532 q 558 207 519 254 q 689 130 623 130 q 822 207 757 130 q 915 346 856 247 q 821 488 855 448 q 691 565 758 565 l 691 694 q 901 592 806 694 q 1044 380 957 532 q 1158 207 1118 254 q 1289 130 1222 130 q 1421 207 1356 130 q 1535 380 1461 254 q 1678 592 1622 532 q 1888 694 1773 694 l 1888 565 q 1758 488 1822 565 q 1647 315 1719 442 q 1501 102 1559 163 q 1289 0 1407 0 q 1078 102 1173 0 q 990 220 1040 142 z "},"X":{"ha":843,"x_min":92,"x_max":751,"o":"m 245 347 q 174 456 218 382 q 112 550 134 527 q 92 565 98 565 l 92 694 q 207 638 155 694 q 286 522 238 605 q 348 427 326 453 q 422 441 383 441 q 495 427 460 441 q 557 522 517 453 q 636 638 605 605 q 751 694 688 694 l 751 565 q 731 550 745 565 q 669 456 709 527 q 597 347 625 382 q 669 238 625 312 q 731 144 709 168 q 751 130 745 130 l 751 0 q 636 56 688 0 q 557 173 605 90 q 494 269 516 243 q 422 311 458 311 q 349 269 385 311 q 286 173 327 243 q 207 56 238 90 q 92 0 155 0 l 92 130 q 112 144 98 130 q 174 238 134 168 q 245 347 218 312 z "},"Y":{"ha":843,"x_min":92,"x_max":751,"o":"m 528 475 q 557 522 541 495 q 636 638 605 605 q 751 694 688 694 l 751 565 q 731 550 745 565 q 669 456 709 527 q 617 374 640 406 q 583 315 601 347 q 438 102 495 163 q 227 0 343 0 l 227 130 q 358 207 293 130 q 394 256 374 225 q 250 342 313 267 q 174 456 220 377 q 112 550 134 527 q 92 565 98 565 l 92 694 q 207 638 155 694 q 286 522 238 605 q 349 426 327 452 q 422 383 385 383 q 494 426 458 383 q 517 458 504 437 q 528 475 523 467 z "},"Z":{"ha":781,"x_min":92,"x_max":690,"o":"m 92 694 q 302 592 207 694 q 445 380 357 532 q 558 207 519 254 q 690 130 623 130 l 690 0 q 478 102 573 0 q 334 315 421 163 q 222 488 261 442 q 92 565 158 565 l 92 694 z "},"[":{"ha":337,"x_min":92,"x_max":245,"o":"m 92 808 q 174 966 92 910 l 245 857 q 221 803 221 842 l 221 -115 q 245 -170 221 -154 l 174 -278 q 92 -121 92 -222 l 92 808 z "},"\\":{"ha":781,"x_min":92,"x_max":690,"o":"m 92 694 q 302 592 207 694 q 445 380 357 532 q 558 207 519 254 q 690 130 623 130 l 690 0 q 478 102 573 0 q 334 315 421 163 q 222 488 261 442 q 92 565 158 565 l 92 694 z "},"]":{"ha":337,"x_min":92,"x_max":245,"o":"m 245 -121 q 163 -278 245 -222 l 92 -170 q 116 -115 116 -154 l 116 803 q 92 857 116 842 l 163 966 q 245 808 245 910 l 245 -121 z "},"^":{"ha":843,"x_min":92,"x_max":751,"o":"m 751 254 q 636 310 688 254 q 557 427 605 343 q 494 522 516 496 q 422 565 458 565 q 349 522 385 565 q 286 427 327 496 q 207 310 238 343 q 92 254 155 254 l 92 383 q 112 398 98 383 q 174 492 134 421 q 250 606 220 571 q 422 694 324 694 q 593 606 519 694 q 669 492 623 571 q 731 398 709 421 q 751 383 745 383 l 751 254 z "},"_":{"ha":1978,"x_min":92,"x_max":1887,"o":"m 1357 157 q 1289 128 1328 128 q 1221 157 1250 128 q 1194 225 1194 184 q 1221 292 1194 264 q 1289 320 1250 320 q 1357 292 1328 320 q 1384 225 1384 264 q 1357 157 1384 184 m 1289 694 q 1499 592 1404 694 q 1642 380 1554 532 q 1755 207 1716 254 q 1887 130 1820 130 l 1887 0 q 1675 102 1770 0 q 1531 315 1618 163 q 1419 488 1458 442 q 1289 565 1355 565 q 1159 488 1222 565 q 1047 315 1120 442 q 902 102 960 163 q 691 0 807 0 q 478 102 573 0 q 333 315 420 163 q 221 488 260 442 q 92 565 158 565 l 92 694 q 301 592 206 694 q 445 380 357 532 q 558 207 519 254 q 691 130 623 130 q 822 207 758 130 q 935 380 861 254 q 1079 592 1023 532 q 1289 694 1174 694 z "},"`":{"ha":405,"x_min":92,"x_max":313,"o":"m 313 786 l 205 715 l 142 811 q 93 843 121 843 l 92 843 l 92 972 q 247 887 191 972 l 313 786 z "},"a":{"ha":1128,"x_min":92,"x_max":1037,"o":"m 656 359 q 569 488 601 450 q 439 565 505 565 q 285 501 348 565 q 220 347 220 438 q 285 193 220 256 q 439 128 348 128 q 593 193 529 128 q 656 347 656 256 l 656 359 m 439 694 q 649 592 554 694 q 792 380 705 532 q 905 207 866 254 q 1037 130 970 130 l 1037 0 q 825 102 920 0 q 753 197 794 136 q 684 101 728 146 q 439 0 582 0 q 193 101 295 0 q 92 347 92 204 q 193 592 92 490 q 439 694 295 694 z "},"b":{"ha":878,"x_min":67,"x_max":786,"o":"m 92 810 q 67 864 92 848 l 138 972 q 221 815 221 917 l 221 585 q 439 694 315 694 q 684 593 582 694 q 786 347 786 490 q 684 102 786 204 q 439 0 582 0 q 193 102 295 0 q 92 347 92 204 l 92 810 m 221 321 q 285 193 229 248 q 439 130 348 130 q 593 193 529 130 q 656 347 656 256 q 593 501 656 438 q 439 566 529 566 q 285 501 348 566 q 221 373 229 447 l 221 321 z "},"c":{"ha":775,"x_min":92,"x_max":684,"o":"m 684 101 q 439 0 582 0 q 193 101 295 0 q 92 347 92 204 q 193 592 92 490 q 439 694 295 694 q 684 592 582 694 l 593 501 q 439 565 529 565 q 285 501 348 565 q 220 347 220 438 q 285 193 220 256 q 439 128 348 128 q 593 193 529 128 l 684 101 z "},"d":{"ha":878,"x_min":92,"x_max":810,"o":"m 786 347 q 685 102 786 204 q 439 0 583 0 q 194 102 296 0 q 92 347 92 204 q 194 593 92 490 q 439 694 296 694 q 656 585 563 694 l 656 815 q 739 972 656 917 l 810 864 q 786 810 786 848 l 786 347 m 656 321 l 656 373 q 593 501 648 447 q 439 566 530 566 q 285 501 349 566 q 222 347 222 438 q 285 193 222 256 q 439 130 349 130 q 593 193 530 130 q 656 321 648 248 z "},"e":{"ha":725,"x_min":92,"x_max":633,"o":"m 504 500 q 495 532 504 517 q 471 556 487 548 q 439 565 456 565 q 285 501 348 565 q 220 347 220 438 q 224 302 220 323 q 263 321 243 311 q 451 427 401 388 q 504 500 504 468 m 439 694 q 536 668 490 694 q 608 596 583 642 q 633 500 633 550 q 531 325 633 404 q 319 204 471 277 q 289 189 304 197 q 439 128 351 128 l 460 130 q 617 47 562 130 l 509 -24 q 454 0 493 0 l 439 0 q 193 101 295 0 q 92 347 92 204 q 193 592 92 490 q 439 694 295 694 z "},"f":{"ha":589,"x_min":67,"x_max":498,"o":"m 92 815 q 174 972 92 917 l 245 864 q 221 810 221 848 l 221 -108 q 138 -265 221 -210 l 67 -157 q 92 -102 92 -141 l 92 815 m 308 600 q 335 666 308 639 q 403 694 363 694 q 471 666 442 694 q 498 600 498 639 q 471 532 498 559 q 403 503 442 503 q 335 532 363 503 q 308 600 308 559 z "},"g":{"ha":878,"x_min":92,"x_max":786,"o":"m 450 130 q 579 217 542 185 q 656 347 656 281 q 593 501 656 438 q 439 566 530 566 q 285 501 348 566 q 220 347 220 438 q 285 193 220 257 q 439 130 348 130 l 450 130 m 786 347 q 684 137 786 232 q 472 -6 623 81 q 298 -119 345 -80 q 221 -251 221 -184 l 92 -251 q 194 -39 92 -134 q 289 33 227 -8 q 193 102 237 58 q 92 347 92 204 q 193 593 92 491 q 439 694 296 694 q 465 694 452 694 l 465 694 l 623 694 q 677 719 662 694 l 786 648 q 699 577 751 596 q 786 347 786 479 z "},"h":{"ha":878,"x_min":67,"x_max":810,"o":"m 221 0 l 92 0 l 92 810 q 67 864 92 848 l 138 972 q 221 815 221 917 l 221 585 q 439 694 315 694 q 684 593 582 694 q 786 347 786 490 l 786 163 q 810 109 786 124 l 739 0 q 656 157 656 56 l 656 347 l 656 347 q 593 501 656 438 q 439 566 529 566 q 285 501 348 566 q 221 373 229 447 l 221 0 z "},"i":{"ha":312,"x_min":61,"x_max":251,"o":"m 224 810 q 156 781 195 781 q 88 810 117 781 q 61 878 61 837 q 88 944 61 917 q 156 972 117 972 q 224 944 195 972 q 251 878 251 917 q 224 810 251 837 m 221 0 l 92 0 l 92 537 q 174 694 92 639 l 245 586 q 221 532 221 570 l 221 0 z "},"j":{"ha":312,"x_min":61,"x_max":251,"o":"m 61 878 q 88 944 61 917 q 156 972 117 972 q 224 944 195 972 q 251 878 251 917 q 224 810 251 837 q 156 781 195 781 q 88 810 117 781 q 61 878 61 837 m 92 694 l 221 694 l 221 -108 q 138 -265 221 -210 l 67 -157 q 92 -102 92 -141 l 92 694 z "},"k":{"ha":975,"x_min":67,"x_max":883,"o":"m 659 349 q 753 207 719 247 q 883 130 817 130 l 883 0 q 673 102 768 0 q 585 224 635 142 q 495 102 533 143 q 286 0 400 0 q 190 25 236 0 q 118 97 144 50 q 92 195 92 144 l 92 810 q 67 864 92 848 l 138 972 q 221 815 221 917 l 221 195 q 230 162 221 178 q 254 138 238 146 q 286 130 269 130 q 415 207 352 130 q 527 379 454 252 q 672 592 614 532 q 883 694 767 694 l 883 565 q 752 488 817 565 q 659 349 718 448 z "},"l":{"ha":313,"x_min":92,"x_max":245,"o":"m 92 972 l 221 972 l 221 163 q 245 109 221 124 l 174 0 q 92 157 92 56 l 92 972 z "},"m":{"ha":1976,"x_min":92,"x_max":1885,"o":"m 1063 346 q 1156 207 1122 247 q 1287 130 1221 130 l 1287 0 q 1076 102 1171 0 q 931 315 1019 163 q 819 488 859 442 q 690 565 755 565 q 559 488 623 565 q 448 315 520 442 q 303 102 360 163 q 92 0 208 0 l 92 130 q 223 207 158 130 q 336 380 262 254 q 479 592 424 532 q 690 694 574 694 q 899 592 804 694 q 988 471 937 551 q 1077 592 1040 551 q 1287 694 1172 694 q 1497 592 1402 694 q 1640 380 1552 532 q 1753 207 1714 254 q 1885 130 1818 130 l 1885 0 q 1673 102 1769 0 q 1529 315 1616 163 q 1417 488 1456 442 q 1287 565 1353 565 q 1157 488 1221 565 q 1063 346 1122 448 z "},"n":{"ha":878,"x_min":67,"x_max":810,"o":"m 221 0 l 92 0 l 92 532 q 67 586 92 570 l 138 694 q 209 608 190 660 q 439 694 307 694 q 685 593 583 694 q 786 347 786 490 l 786 163 q 810 109 786 124 l 739 0 q 656 157 656 56 l 656 373 q 593 501 648 447 q 439 566 530 566 q 285 501 349 566 q 222 347 222 438 l 221 347 l 221 0 z "},"o":{"ha":878,"x_min":92,"x_max":786,"o":"m 92 347 q 193 592 92 490 q 439 694 295 694 q 684 592 582 694 q 786 347 786 490 q 684 101 786 204 q 439 0 582 0 q 193 101 295 0 q 92 347 92 204 m 220 347 q 285 193 220 256 q 439 128 348 128 q 593 193 529 128 q 656 347 656 256 q 593 501 656 438 q 439 565 529 565 q 285 501 348 565 q 220 347 220 438 z "},"p":{"ha":878,"x_min":67,"x_max":786,"o":"m 92 347 q 193 592 92 490 q 439 694 295 694 q 684 592 582 694 q 786 347 786 490 q 684 101 786 204 q 439 0 582 0 q 221 109 315 0 l 221 -121 q 138 -278 221 -222 l 67 -170 q 92 -115 92 -154 l 92 347 m 221 373 l 221 321 q 285 193 229 248 q 439 128 348 128 q 593 193 529 128 q 656 347 656 256 q 593 501 656 438 q 439 565 529 565 q 285 501 348 565 q 221 373 229 447 z "},"q":{"ha":878,"x_min":92,"x_max":810,"o":"m 786 -115 q 810 -170 786 -154 l 739 -278 q 656 -121 656 -222 l 656 109 q 439 0 563 0 q 194 101 296 0 q 92 347 92 204 q 194 592 92 490 q 439 694 296 694 q 685 592 583 694 q 786 347 786 490 l 786 -115 m 656 373 q 593 501 648 447 q 439 565 530 565 q 285 501 349 565 q 222 347 222 438 q 285 193 222 256 q 439 128 349 128 q 593 193 530 128 q 656 321 648 248 l 656 373 z "},"r":{"ha":589,"x_min":67,"x_max":498,"o":"m 92 0 l 92 532 q 67 586 92 570 l 138 694 q 221 537 221 639 l 221 0 l 92 0 m 308 600 q 335 666 308 639 q 403 694 363 694 q 471 666 442 694 q 498 600 498 639 q 471 532 498 559 q 403 503 442 503 q 335 532 363 503 q 308 600 308 559 z "},"s":{"ha":781,"x_min":92,"x_max":690,"o":"m 690 565 q 559 488 623 565 q 448 315 520 442 q 303 102 360 163 q 92 0 208 0 l 92 130 q 223 207 158 130 q 336 380 262 254 q 479 592 424 532 q 690 694 574 694 l 690 565 z "},"t":{"ha":600,"x_min":92,"x_max":508,"o":"m 249 565 q 92 648 147 565 l 200 719 q 254 694 216 694 l 508 694 l 508 565 l 378 565 l 378 163 q 403 109 378 124 l 332 0 q 249 157 249 56 l 249 565 z "},"u":{"ha":878,"x_min":67,"x_max":810,"o":"m 92 532 q 67 586 92 570 l 138 694 q 221 537 221 639 l 221 321 q 285 193 229 248 q 439 128 348 128 q 593 193 529 128 q 656 347 656 256 l 656 347 l 656 694 l 786 694 l 786 163 q 810 109 786 124 l 739 0 q 669 87 688 35 q 439 0 571 0 q 193 101 295 0 q 92 347 92 204 l 92 532 z "},"v":{"ha":1380,"x_min":92,"x_max":1289,"o":"m 935 380 q 1079 592 1023 532 q 1289 694 1174 694 l 1289 565 q 1159 488 1222 565 q 1047 315 1120 442 q 902 102 960 163 q 691 0 807 0 q 478 102 573 0 q 333 315 420 163 q 221 488 260 442 q 92 565 158 565 l 92 694 q 301 592 206 694 q 445 380 357 532 q 558 207 519 254 q 691 130 623 130 q 822 207 758 130 q 935 380 861 254 z "},"w":{"ha":1980,"x_min":92,"x_max":1888,"o":"m 990 220 q 902 102 939 142 q 689 0 807 0 q 478 102 573 0 q 333 315 420 163 q 221 488 260 442 q 92 565 158 565 l 92 694 q 301 592 206 694 q 445 380 357 532 q 558 207 519 254 q 689 130 623 130 q 822 207 757 130 q 915 346 856 247 q 821 488 855 448 q 691 565 758 565 l 691 694 q 901 592 806 694 q 1044 380 957 532 q 1158 207 1118 254 q 1289 130 1222 130 q 1421 207 1356 130 q 1535 380 1461 254 q 1678 592 1622 532 q 1888 694 1773 694 l 1888 565 q 1758 488 1822 565 q 1647 315 1719 442 q 1501 102 1559 163 q 1289 0 1407 0 q 1078 102 1173 0 q 990 220 1040 142 z "},"x":{"ha":781,"x_min":92,"x_max":689,"o":"m 390 220 q 302 102 340 142 q 92 0 208 0 l 92 130 q 222 207 158 130 q 315 346 256 247 q 221 488 256 448 q 92 565 158 565 l 92 694 q 301 592 206 694 q 391 471 338 552 q 479 592 442 552 q 689 694 574 694 l 689 565 q 559 488 623 565 q 465 346 525 448 q 558 207 524 247 q 689 130 623 130 l 689 0 q 478 102 573 0 q 390 220 441 142 z "},"y":{"ha":902,"x_min":92,"x_max":810,"o":"m 116 347 l 116 532 q 92 586 116 570 l 163 694 q 245 537 245 639 l 245 344 q 309 193 245 256 q 463 130 372 130 l 475 130 q 604 217 566 185 q 681 347 681 281 l 681 674 l 810 674 l 810 347 q 708 137 810 232 q 496 -6 648 81 q 323 -119 370 -80 q 245 -251 245 -184 l 116 -251 q 218 -39 116 -134 q 313 33 252 -8 q 217 102 262 58 q 116 347 116 204 z "},"z":{"ha":781,"x_min":92,"x_max":690,"o":"m 92 694 q 302 592 207 694 q 445 380 357 532 q 558 207 519 254 q 690 130 623 130 l 690 0 q 478 102 573 0 q 334 315 421 163 q 222 488 261 442 q 92 565 158 565 l 92 694 z "},"{":{"ha":361,"x_min":92,"x_max":270,"o":"m 92 455 q 116 509 116 471 l 116 815 q 199 972 116 917 l 270 864 q 245 810 245 848 l 245 504 q 163 347 245 402 q 245 190 245 292 l 245 -115 q 270 -170 245 -154 l 199 -278 q 116 -121 116 -222 l 116 184 q 92 239 116 223 l 92 455 z "},"|":{"ha":337,"x_min":92,"x_max":221,"o":"m 92 1164 l 221 1164 l 221 -283 l 92 -283 l 92 1164 z "},"}":{"ha":361,"x_min":92,"x_max":270,"o":"m 270 239 q 245 184 245 223 l 245 -121 q 163 -278 245 -222 l 92 -170 q 116 -115 116 -154 l 116 190 q 198 347 116 292 q 116 504 116 402 l 116 810 q 92 864 116 848 l 163 972 q 245 815 245 917 l 245 509 q 270 455 245 471 l 270 239 z "},"~":{"ha":878,"x_min":92,"x_max":786,"o":"m 92 342 q 254 437 148 430 q 267 438 260 438 q 446 411 328 438 q 602 386 555 386 q 711 437 679 386 l 786 354 q 623 258 729 264 q 606 257 615 257 q 429 283 543 257 q 279 309 326 309 l 271 309 q 167 258 198 309 l 92 342 z "},"¡":{"ha":373,"x_min":92,"x_max":281,"o":"m 119 532 q 92 600 92 559 q 119 666 92 639 q 186 694 147 694 q 254 666 226 694 q 281 600 281 639 q 254 532 281 559 q 186 503 226 503 q 119 532 147 503 m 121 254 q 97 308 121 292 l 168 416 q 251 259 251 361 l 251 -278 l 121 -278 l 121 254 z "},"¢":{"ha":878,"x_min":210,"x_max":808,"o":"m 806 101 q 561 0 704 0 q 315 101 417 0 q 214 347 214 204 q 315 592 214 490 q 561 694 417 694 q 806 592 704 694 l 715 501 q 561 565 651 565 q 407 501 470 565 q 342 347 342 438 q 407 193 342 256 q 561 128 470 128 q 715 193 651 128 l 806 101 m 808 565 q 678 488 742 565 q 566 315 639 442 q 422 102 479 163 q 210 0 327 0 l 210 130 q 342 207 277 130 q 455 380 381 254 q 598 592 543 532 q 808 694 693 694 l 808 565 z "},"£":{"ha":939,"x_min":92,"x_max":847,"o":"m 92 130 q 223 207 158 130 q 336 380 262 254 q 479 592 424 532 q 690 694 574 694 l 690 565 q 559 488 623 565 q 448 315 520 442 q 327 130 377 193 l 690 130 q 847 47 791 130 l 739 -24 q 684 0 723 0 l 92 0 l 92 130 m 653 310 l 92 310 l 92 361 l 653 361 l 653 310 z "},"¤":{"ha":1257,"x_min":92,"x_max":1165,"o":"m 281 347 q 382 592 281 490 q 629 694 485 694 q 873 592 772 694 q 976 347 976 490 q 873 101 976 204 q 629 0 772 0 q 382 101 485 0 q 281 347 281 204 m 411 348 q 476 194 411 257 q 630 129 539 129 q 784 194 720 129 q 847 348 847 257 q 784 502 847 439 q 630 566 720 566 q 476 502 539 566 q 411 348 411 439 m 975 96 q 1002 163 975 136 q 1070 191 1031 191 q 1138 163 1109 191 q 1165 96 1165 136 q 1138 28 1165 56 q 1070 0 1109 0 q 1002 28 1031 0 q 975 96 975 56 m 975 600 q 1002 666 975 639 q 1070 694 1031 694 q 1138 666 1109 694 q 1165 600 1165 639 q 1138 532 1165 559 q 1070 503 1109 503 q 1002 532 1031 503 q 975 600 975 559 m 281 96 q 254 28 281 56 q 186 0 226 0 q 119 28 147 0 q 92 96 92 56 q 119 163 92 136 q 186 191 147 191 q 254 163 226 191 q 281 96 281 136 m 281 600 q 254 532 281 559 q 186 503 226 503 q 119 532 147 503 q 92 600 92 559 q 119 666 92 639 q 186 694 147 694 q 254 666 226 694 q 281 600 281 639 z "},"¥":{"ha":744,"x_min":92,"x_max":653,"o":"m 463 475 q 488 522 474 495 q 555 638 528 605 q 653 694 599 694 l 653 565 q 635 550 647 565 q 583 456 617 527 q 538 374 557 406 q 509 315 525 347 q 387 102 435 163 q 207 0 306 0 l 207 130 q 319 207 263 130 q 349 256 332 225 q 227 342 280 267 q 162 456 201 377 q 109 550 127 527 q 92 565 98 565 l 92 694 q 190 638 146 694 q 257 522 216 605 q 311 426 292 452 q 372 383 341 383 q 434 426 404 383 q 454 458 442 437 q 463 475 458 467 m 653 205 l 92 205 l 92 256 l 653 256 l 653 205 z "},"¦":{"ha":337,"x_min":92,"x_max":221,"o":"m 92 493 l 92 1164 l 221 1164 l 221 493 l 92 493 m 221 363 l 221 -283 l 92 -283 l 92 363 l 221 363 z "},"§":{"ha":781,"x_min":92,"x_max":690,"o":"m 690 768 q 559 691 623 768 q 448 519 520 646 q 303 306 360 366 q 92 203 208 203 l 92 333 q 223 410 158 333 q 336 584 262 457 q 479 795 424 735 q 690 898 574 898 l 690 768 m 690 389 q 559 312 623 389 q 448 140 520 267 q 303 -73 360 -13 q 92 -176 208 -176 l 92 -46 q 223 31 158 -46 q 336 205 262 78 q 479 416 424 356 q 690 519 574 519 l 690 389 z "},"¨":{"ha":692,"x_min":92,"x_max":601,"o":"m 254 944 q 281 876 281 917 q 254 810 281 837 q 186 781 226 781 q 119 810 147 781 q 92 876 92 837 q 119 944 92 917 q 186 972 147 972 q 254 944 226 972 m 574 944 q 601 876 601 917 q 574 810 601 837 q 506 781 545 781 q 438 810 467 781 q 411 876 411 837 q 438 944 411 917 q 506 972 467 972 q 574 944 545 972 z "},"©":{"ha":878,"x_min":92,"x_max":786,"o":"m 348 376 q 336 363 340 371 q 332 347 332 355 q 336 331 332 338 q 348 319 340 323 l 364 313 q 402 298 381 306 q 497 260 469 274 q 570 161 570 221 l 505 161 q 467 202 505 182 q 380 237 444 214 q 332 256 353 247 q 323 259 327 257 q 318 261 320 260 q 279 298 292 275 q 267 347 267 321 q 280 396 267 372 q 318 433 293 419 q 380 457 344 444 q 467 492 444 480 q 505 533 505 513 l 570 533 q 497 435 570 473 q 402 396 469 420 q 364 382 381 389 l 348 376 m 92 347 q 193 592 92 490 q 439 694 295 694 q 684 592 582 694 q 786 347 786 490 q 684 101 786 204 q 439 0 582 0 q 193 101 295 0 q 92 347 92 204 m 157 348 q 241 149 157 231 q 440 65 323 65 q 640 149 557 65 q 721 348 721 231 q 640 547 721 465 q 440 629 557 629 q 241 547 323 629 q 157 348 157 465 z "},"ª":{"ha":807,"x_min":92,"x_max":715,"o":"m 464 493 q 407 570 428 548 q 321 616 365 616 q 219 578 260 616 q 176 486 176 541 q 219 394 176 431 q 321 355 260 355 q 422 394 380 355 q 464 486 464 431 l 464 493 m 321 694 q 460 633 397 694 q 554 506 496 597 q 629 402 603 430 q 715 355 671 355 l 715 278 q 576 339 639 278 q 528 396 555 359 q 482 338 511 365 q 321 278 415 278 q 158 338 226 278 q 92 486 92 400 q 158 633 92 572 q 321 694 226 694 z "},"«":{"ha":952,"x_min":92,"x_max":861,"o":"m 532 677 q 476 562 532 614 q 359 483 443 531 q 264 420 290 442 q 221 348 221 385 q 264 275 221 311 q 359 212 290 253 q 476 133 443 164 q 532 18 532 81 l 403 18 q 388 38 403 24 q 294 100 365 60 q 180 176 215 146 q 92 348 92 250 q 180 519 92 445 q 294 595 215 549 q 388 657 365 635 q 403 677 403 671 l 532 677 m 861 677 q 804 562 861 614 q 688 483 771 531 q 592 420 618 442 q 549 348 549 385 q 592 275 549 311 q 688 212 618 253 q 804 133 771 164 q 861 18 861 81 l 731 18 q 716 38 731 24 q 623 100 693 60 q 509 176 543 146 q 420 348 420 250 q 509 519 420 445 q 623 595 543 549 q 716 657 693 635 q 731 677 731 671 l 861 677 z "},"¬":{"ha":878,"x_min":92,"x_max":786,"o":"m 629 425 q 786 342 730 425 l 677 271 q 623 295 662 295 l 92 295 l 92 425 l 629 425 z "},"®":{"ha":878,"x_min":92,"x_max":786,"o":"m 92 347 q 193 592 92 490 q 439 694 295 694 q 684 592 582 694 q 786 347 786 490 q 684 101 786 204 q 439 0 582 0 q 193 101 295 0 q 92 347 92 204 m 157 348 q 241 149 157 231 q 440 65 323 65 q 640 149 557 65 q 721 348 721 231 q 640 547 721 465 q 440 629 557 629 q 241 547 323 629 q 157 348 157 465 m 515 450 l 344 450 q 265 492 293 450 l 319 527 q 347 515 328 515 l 515 515 q 564 502 541 515 q 600 466 587 489 q 612 418 612 443 q 562 330 612 370 q 523 305 547 319 q 548 271 538 283 q 612 233 579 233 l 612 168 q 508 219 555 168 q 466 275 490 238 q 456 270 461 272 q 369 222 392 239 q 330 168 330 195 l 265 168 q 332 275 265 229 q 427 328 359 295 q 522 381 496 361 q 548 418 548 401 q 544 434 548 426 q 531 446 539 441 q 515 450 524 450 z "},"¯":{"ha":603,"x_min":92,"x_max":511,"o":"m 92 819 l 92 948 l 349 948 q 403 972 387 948 l 511 901 q 354 819 456 819 l 92 819 z "},"°":{"ha":530,"x_min":92,"x_max":439,"o":"m 92 521 q 142 644 92 593 q 265 694 193 694 q 388 644 337 694 q 439 521 439 593 q 388 398 439 450 q 265 347 337 347 q 142 398 193 347 q 92 521 92 450 m 156 521 q 189 444 156 475 q 265 412 220 412 q 342 444 311 412 q 374 521 374 475 q 342 598 374 566 q 265 630 311 630 q 189 598 220 630 q 156 521 156 566 z "},"±":{"ha":878,"x_min":92,"x_max":786,"o":"m 92 0 l 92 130 l 623 130 q 677 154 662 130 l 786 83 q 629 0 730 0 l 92 0 m 342 271 l 92 271 l 92 400 l 342 400 l 342 537 q 425 694 342 639 l 496 586 q 471 532 471 570 l 471 400 l 623 400 q 677 425 662 400 l 786 353 q 629 271 730 271 l 471 271 l 471 0 l 342 0 l 342 271 z "},"²":{"ha":619,"x_min":92,"x_max":528,"o":"m 220 317 l 420 317 q 456 332 446 317 l 528 289 q 424 239 491 239 l 220 239 q 156 255 186 239 q 108 298 125 271 q 92 355 92 326 q 109 414 92 386 q 159 458 126 442 q 241 487 193 472 q 355 530 325 515 q 407 578 407 554 q 401 598 407 589 q 385 612 395 607 q 363 617 375 617 l 199 617 q 163 603 174 617 l 92 646 q 195 695 128 695 l 363 695 q 428 680 397 695 q 476 636 459 664 q 492 578 492 608 q 395 460 492 507 q 270 414 359 444 q 220 397 242 405 l 199 389 q 183 375 189 385 q 177 355 177 366 q 183 336 177 346 q 199 322 189 327 q 220 317 209 317 z "},"³":{"ha":584,"x_min":92,"x_max":492,"o":"m 383 462 l 385 462 q 401 476 395 467 q 407 496 407 486 q 401 515 407 506 q 385 530 395 524 l 363 537 q 313 554 341 545 q 189 601 224 584 q 92 719 92 647 l 177 719 q 228 669 177 694 q 342 627 259 655 q 425 599 391 612 q 475 554 457 582 q 492 496 492 526 q 475 437 492 465 q 461 419 469 427 q 475 402 469 411 q 492 343 492 374 q 475 285 492 313 q 425 240 458 258 q 418 238 421 239 q 407 233 412 235 q 342 212 378 223 q 228 170 259 184 q 177 121 177 145 l 92 121 q 189 238 92 192 q 313 285 224 256 q 363 302 341 294 l 385 310 q 401 324 395 315 q 407 343 407 333 q 401 363 407 353 q 385 378 395 372 l 363 385 q 313 402 341 393 q 189 449 224 431 q 92 567 92 495 l 177 567 q 228 517 177 542 q 342 475 259 503 q 383 462 365 468 z "},"´":{"ha":405,"x_min":92,"x_max":313,"o":"m 158 887 q 313 972 214 972 l 313 843 l 312 843 q 263 811 283 843 l 199 715 l 92 786 l 158 887 z "},"µ":{"ha":878,"x_min":67,"x_max":810,"o":"m 221 321 q 285 193 229 248 q 439 128 348 128 q 593 193 529 128 q 656 347 656 256 l 656 347 l 656 694 l 786 694 l 786 163 q 810 109 786 124 l 739 0 q 669 87 688 35 q 439 0 571 0 q 221 75 315 0 l 221 -108 q 138 -265 221 -210 l 67 -157 q 92 -102 92 -141 l 92 694 l 221 694 l 221 321 z "},"¶":{"ha":878,"x_min":92,"x_max":810,"o":"m 507 280 q 439 252 478 252 q 371 280 399 252 q 344 348 344 307 q 371 414 344 387 q 439 443 399 443 q 507 414 478 443 q 534 348 534 387 q 507 280 534 307 m 593 501 q 439 565 530 565 q 285 501 349 565 q 222 347 222 438 q 285 193 222 256 q 439 128 349 128 q 593 193 530 128 q 656 321 648 248 l 656 373 q 593 501 648 447 m 786 -115 q 810 -170 786 -154 l 739 -278 q 656 -121 656 -222 l 656 109 q 588 47 624 71 l 588 -115 q 612 -170 588 -154 l 541 -278 q 458 -121 458 -222 l 458 1 q 439 0 449 0 q 194 101 296 0 q 92 347 92 204 q 194 592 92 490 q 439 694 296 694 q 685 592 583 694 q 786 347 786 490 l 786 -115 z "},"·":{"ha":373,"x_min":92,"x_max":281,"o":"m 254 414 q 281 347 281 387 q 254 280 281 307 q 186 252 226 252 q 119 280 147 252 q 92 347 92 307 q 119 414 92 387 q 186 443 147 443 q 254 414 226 443 z "},"¸":{"ha":373,"x_min":92,"x_max":281,"o":"m 254 -115 q 281 -183 281 -142 q 254 -250 281 -222 q 186 -278 226 -278 q 119 -250 147 -278 q 92 -183 92 -222 q 119 -115 92 -142 q 186 -87 147 -87 q 254 -115 226 -87 z "},"¹":{"ha":269,"x_min":75,"x_max":177,"o":"m 92 597 q 75 629 92 620 l 122 694 q 177 600 177 661 l 177 278 l 92 278 l 92 597 z "},"º":{"ha":642,"x_min":92,"x_max":550,"o":"m 92 486 q 158 633 92 572 q 321 695 226 695 q 482 633 415 695 q 550 486 550 572 q 482 339 550 401 q 321 278 415 278 q 158 339 226 278 q 92 486 92 401 m 176 486 q 219 394 176 432 q 321 355 261 355 q 422 394 380 355 q 464 486 464 432 q 422 579 464 541 q 321 617 380 617 q 219 579 261 617 q 176 486 176 541 z "},"»":{"ha":952,"x_min":92,"x_max":861,"o":"m 549 677 q 564 657 549 671 q 658 595 587 635 q 772 519 737 549 q 861 348 861 445 q 772 176 861 250 q 658 100 737 146 q 564 38 587 60 q 549 18 549 24 l 420 18 q 476 133 420 81 q 593 212 509 164 q 688 275 663 253 q 731 348 731 311 q 688 420 731 385 q 593 483 663 442 q 476 562 509 531 q 420 677 420 614 l 549 677 m 221 677 q 236 657 221 671 q 330 595 259 635 q 444 519 409 549 q 532 348 532 445 q 444 176 532 250 q 330 100 409 146 q 236 38 259 60 q 221 18 221 24 l 92 18 q 148 133 92 81 q 264 212 181 164 q 360 275 334 253 q 403 348 403 311 q 360 420 403 385 q 264 483 334 442 q 148 562 181 531 q 92 677 92 614 l 221 677 z "},"¼":{"ha":972,"x_min":92,"x_max":881,"o":"m 785 565 q 654 488 718 565 q 543 315 615 442 q 398 102 455 163 q 186 0 303 0 l 186 130 q 318 207 253 130 q 431 380 357 254 q 574 592 519 532 q 785 694 669 694 l 785 565 m 534 174 q 585 296 534 245 q 707 347 635 347 q 830 296 779 347 q 881 174 881 245 q 830 51 881 102 q 707 0 779 0 q 585 51 635 0 q 534 174 534 102 m 652 174 q 668 134 652 151 q 707 118 684 118 q 746 134 730 118 q 762 174 762 151 q 746 212 762 197 q 707 229 730 229 q 668 212 684 229 q 652 174 652 197 m 439 521 q 389 399 439 450 q 265 347 337 347 q 143 399 194 347 q 92 521 92 450 q 143 644 92 593 q 265 694 194 694 q 389 644 337 694 q 439 521 439 593 m 321 521 q 304 560 321 544 q 265 576 288 576 q 227 560 243 576 q 211 521 211 544 q 227 482 211 498 q 265 466 243 466 q 304 482 288 466 q 321 521 321 498 z "},"½":{"ha":972,"x_min":92,"x_max":881,"o":"m 785 565 q 654 488 718 565 q 543 315 615 442 q 398 102 455 163 q 186 0 303 0 l 186 130 q 318 207 253 130 q 431 380 357 254 q 574 592 519 532 q 785 694 669 694 l 785 565 m 534 174 q 585 296 534 245 q 707 347 635 347 q 830 296 779 347 q 881 174 881 245 q 830 51 881 102 q 707 0 779 0 q 585 51 635 0 q 534 174 534 102 m 652 174 q 668 134 652 151 q 707 118 684 118 q 746 134 730 118 q 762 174 762 151 q 746 212 762 197 q 707 229 730 229 q 668 212 684 229 q 652 174 652 197 m 439 521 q 389 399 439 450 q 265 347 337 347 q 143 399 194 347 q 92 521 92 450 q 143 644 92 593 q 265 694 194 694 q 389 644 337 694 q 439 521 439 593 m 321 521 q 304 560 321 544 q 265 576 288 576 q 227 560 243 576 q 211 521 211 544 q 227 482 211 498 q 265 466 243 466 q 304 482 288 466 q 321 521 321 498 z "},"¾":{"ha":972,"x_min":92,"x_max":881,"o":"m 785 565 q 654 488 718 565 q 543 315 615 442 q 398 102 455 163 q 186 0 303 0 l 186 130 q 318 207 253 130 q 431 380 357 254 q 574 592 519 532 q 785 694 669 694 l 785 565 m 534 174 q 585 296 534 245 q 707 347 635 347 q 830 296 779 347 q 881 174 881 245 q 830 51 881 102 q 707 0 779 0 q 585 51 635 0 q 534 174 534 102 m 652 174 q 668 134 652 151 q 707 118 684 118 q 746 134 730 118 q 762 174 762 151 q 746 212 762 197 q 707 229 730 229 q 668 212 684 229 q 652 174 652 197 m 439 521 q 389 399 439 450 q 265 347 337 347 q 143 399 194 347 q 92 521 92 450 q 143 644 92 593 q 265 694 194 694 q 389 644 337 694 q 439 521 439 593 m 321 521 q 304 560 321 544 q 265 576 288 576 q 227 560 243 576 q 211 521 211 544 q 227 482 211 498 q 265 466 243 466 q 304 482 288 466 q 321 521 321 498 z "},"¿":{"ha":878,"x_min":92,"x_max":786,"o":"m 629 0 q 786 -83 730 0 l 677 -154 q 623 -130 662 -130 l 286 -130 q 189 -103 235 -130 q 117 -31 142 -77 q 92 64 92 15 q 194 240 92 161 q 406 361 254 288 l 462 244 q 274 138 323 177 q 221 64 221 97 q 230 33 221 48 q 254 8 238 17 q 286 0 269 0 l 629 0 m 371 666 q 439 694 399 694 q 507 666 478 694 q 534 598 534 639 q 507 532 534 559 q 439 503 478 503 q 371 532 399 503 q 344 598 344 559 q 371 666 344 639 z "},"À":{"ha":1379,"x_min":92,"x_max":1287,"o":"m 336 380 q 479 592 424 532 q 689 694 574 694 q 899 592 804 694 q 1042 380 955 532 q 1156 207 1116 254 q 1287 130 1221 130 l 1287 0 q 1076 102 1171 0 q 931 315 1019 163 q 819 488 859 442 q 689 565 755 565 q 559 488 623 565 q 448 315 520 442 q 303 102 360 163 q 92 0 208 0 l 92 130 q 223 207 158 130 q 336 380 262 254 m 785 225 q 758 157 785 184 q 689 128 728 128 q 621 157 650 128 q 594 225 594 184 q 621 292 594 264 q 689 320 650 320 q 758 292 728 320 q 785 225 785 264 m 764 786 l 656 715 l 592 811 q 543 843 572 843 l 542 843 l 542 972 q 697 887 642 972 l 764 786 z "},"Á":{"ha":1379,"x_min":92,"x_max":1287,"o":"m 336 380 q 479 592 424 532 q 689 694 574 694 q 899 592 804 694 q 1042 380 955 532 q 1156 207 1116 254 q 1287 130 1221 130 l 1287 0 q 1076 102 1171 0 q 931 315 1019 163 q 819 488 859 442 q 689 565 755 565 q 559 488 623 565 q 448 315 520 442 q 303 102 360 163 q 92 0 208 0 l 92 130 q 223 207 158 130 q 336 380 262 254 m 785 225 q 758 157 785 184 q 689 128 728 128 q 621 157 650 128 q 594 225 594 184 q 621 292 594 264 q 689 320 650 320 q 758 292 728 320 q 785 225 785 264 m 682 887 q 838 972 738 972 l 838 843 l 836 843 q 787 811 808 843 l 724 715 l 616 786 l 682 887 z "},"Â":{"ha":1379,"x_min":92,"x_max":1287,"o":"m 336 380 q 479 592 424 532 q 689 694 574 694 q 899 592 804 694 q 1042 380 955 532 q 1156 207 1116 254 q 1287 130 1221 130 l 1287 0 q 1076 102 1171 0 q 931 315 1019 163 q 819 488 859 442 q 689 565 755 565 q 559 488 623 565 q 448 315 520 442 q 303 102 360 163 q 92 0 208 0 l 92 130 q 223 207 158 130 q 336 380 262 254 m 785 225 q 758 157 785 184 q 689 128 728 128 q 621 157 650 128 q 594 225 594 184 q 621 292 594 264 q 689 320 650 320 q 758 292 728 320 q 785 225 785 264 m 479 870 q 689 972 574 972 q 899 870 804 972 l 819 766 q 689 843 755 843 q 559 766 623 843 l 479 870 z "},"Ã":{"ha":1379,"x_min":92,"x_max":1287,"o":"m 336 380 q 479 592 424 532 q 689 694 574 694 q 899 592 804 694 q 1042 380 955 532 q 1156 207 1116 254 q 1287 130 1221 130 l 1287 0 q 1076 102 1171 0 q 931 315 1019 163 q 819 488 859 442 q 689 565 755 565 q 559 488 623 565 q 448 315 520 442 q 303 102 360 163 q 92 0 208 0 l 92 130 q 223 207 158 130 q 336 380 262 254 m 785 225 q 758 157 785 184 q 689 128 728 128 q 621 157 650 128 q 594 225 594 184 q 621 292 594 264 q 689 320 650 320 q 758 292 728 320 q 785 225 785 264 m 342 876 q 505 972 399 964 q 517 972 511 972 q 696 945 579 972 q 853 920 806 920 q 962 971 930 920 l 1037 888 q 874 792 980 799 q 857 791 866 791 q 680 818 794 791 q 530 843 576 843 l 522 843 q 418 793 449 843 l 342 876 z "},"Ä":{"ha":1379,"x_min":92,"x_max":1287,"o":"m 336 380 q 479 592 424 532 q 689 694 574 694 q 899 592 804 694 q 1042 380 955 532 q 1156 207 1116 254 q 1287 130 1221 130 l 1287 0 q 1076 102 1171 0 q 931 315 1019 163 q 819 488 859 442 q 689 565 755 565 q 559 488 623 565 q 448 315 520 442 q 303 102 360 163 q 92 0 208 0 l 92 130 q 223 207 158 130 q 336 380 262 254 m 785 225 q 758 157 785 184 q 689 128 728 128 q 621 157 650 128 q 594 225 594 184 q 621 292 594 264 q 689 320 650 320 q 758 292 728 320 q 785 225 785 264 m 597 944 q 625 876 625 917 q 597 810 625 837 q 530 781 569 781 q 462 810 490 781 q 435 876 435 837 q 462 944 435 917 q 530 972 490 972 q 597 944 569 972 m 917 944 q 944 876 944 917 q 917 810 944 837 q 849 781 888 781 q 781 810 810 781 q 754 876 754 837 q 781 944 754 917 q 849 972 810 972 q 917 944 888 972 z "},"Å":{"ha":1379,"x_min":92,"x_max":1287,"o":"m 336 380 q 479 592 424 532 q 689 694 574 694 q 899 592 804 694 q 1042 380 955 532 q 1156 207 1116 254 q 1287 130 1221 130 l 1287 0 q 1076 102 1171 0 q 931 315 1019 163 q 819 488 859 442 q 689 565 755 565 q 559 488 623 565 q 448 315 520 442 q 303 102 360 163 q 92 0 208 0 l 92 130 q 223 207 158 130 q 336 380 262 254 m 785 225 q 758 157 785 184 q 689 128 728 128 q 621 157 650 128 q 594 225 594 184 q 621 292 594 264 q 689 320 650 320 q 758 292 728 320 q 785 225 785 264 m 758 944 q 785 876 785 917 q 758 810 785 837 q 690 781 729 781 q 622 810 650 781 q 595 876 595 837 q 622 944 595 917 q 690 972 650 972 q 758 944 729 972 z "},"Æ":{"ha":1714,"x_min":92,"x_max":1622,"o":"m 758 157 q 689 128 728 128 q 621 157 650 128 q 594 225 594 184 q 621 292 594 264 q 689 320 650 320 q 758 292 728 320 q 785 225 785 264 q 758 157 785 184 m 1286 348 q 1314 414 1286 387 q 1381 443 1342 443 q 1449 414 1421 443 q 1476 348 1476 387 q 1449 280 1476 307 q 1381 252 1421 252 q 1314 280 1342 252 q 1286 348 1286 307 m 1287 130 l 1465 130 q 1622 47 1567 130 l 1514 -24 q 1459 0 1498 0 l 1287 0 q 1076 102 1171 0 q 931 315 1019 163 q 819 488 859 442 q 689 565 755 565 q 559 488 623 565 q 448 315 520 442 q 303 102 360 163 q 92 0 208 0 l 92 130 q 223 207 158 130 q 336 380 262 254 q 479 592 424 532 q 689 694 574 694 q 899 592 804 694 q 988 471 937 551 q 1077 592 1040 551 q 1286 694 1172 694 l 1459 694 q 1513 719 1497 694 l 1622 648 q 1464 565 1566 565 l 1286 565 q 1157 488 1221 565 q 1063 346 1122 448 q 1156 207 1122 247 q 1287 130 1221 130 z "},"Ç":{"ha":790,"x_min":92,"x_max":699,"o":"m 254 404 q 230 379 239 395 q 221 347 221 363 q 230 314 221 330 q 254 291 239 299 l 286 278 q 362 250 320 264 q 552 172 497 200 q 699 -24 699 94 l 569 -24 q 492 57 569 16 q 318 127 445 81 q 221 163 264 146 q 203 171 212 167 q 194 175 199 173 q 117 250 143 203 q 92 347 92 296 q 118 444 92 397 q 194 519 144 491 q 318 566 245 541 q 492 637 445 612 q 569 719 569 677 l 699 719 q 552 522 699 600 q 362 444 497 494 q 286 416 320 429 l 254 404 m 463 -115 q 490 -183 490 -142 q 463 -250 490 -222 q 395 -278 435 -278 q 328 -250 356 -278 q 300 -183 300 -222 q 328 -115 300 -142 q 395 -87 356 -87 q 463 -115 435 -87 z "},"È":{"ha":790,"x_min":92,"x_max":699,"o":"m 254 404 q 230 379 239 395 q 221 347 221 363 q 230 314 221 330 q 254 291 239 299 l 286 278 q 362 250 320 264 q 552 172 497 200 q 699 -24 699 94 l 569 -24 q 492 57 569 16 q 318 127 445 81 q 221 163 264 146 q 203 171 212 167 q 194 175 199 173 q 117 250 143 203 q 92 347 92 296 q 118 444 92 397 q 194 519 144 491 q 318 566 245 541 q 492 637 445 612 q 569 719 569 677 l 699 719 q 552 522 699 600 q 362 444 497 494 q 286 416 320 429 l 254 404 m 509 348 q 536 414 509 387 q 604 443 565 443 q 672 414 644 443 q 699 348 699 387 q 672 280 699 307 q 604 252 644 252 q 536 280 565 252 q 509 348 509 307 m 469 786 l 361 715 l 298 811 q 249 843 277 843 l 248 843 l 248 972 q 403 887 347 972 l 469 786 z "},"É":{"ha":790,"x_min":92,"x_max":699,"o":"m 254 404 q 230 379 239 395 q 221 347 221 363 q 230 314 221 330 q 254 291 239 299 l 286 278 q 362 250 320 264 q 552 172 497 200 q 699 -24 699 94 l 569 -24 q 492 57 569 16 q 318 127 445 81 q 221 163 264 146 q 203 171 212 167 q 194 175 199 173 q 117 250 143 203 q 92 347 92 296 q 118 444 92 397 q 194 519 144 491 q 318 566 245 541 q 492 637 445 612 q 569 719 569 677 l 699 719 q 552 522 699 600 q 362 444 497 494 q 286 416 320 429 l 254 404 m 509 348 q 536 414 509 387 q 604 443 565 443 q 672 414 644 443 q 699 348 699 387 q 672 280 699 307 q 604 252 644 252 q 536 280 565 252 q 509 348 509 307 m 388 887 q 543 972 444 972 l 543 843 l 542 843 q 493 811 513 843 l 429 715 l 321 786 l 388 887 z "},"Ê":{"ha":790,"x_min":92,"x_max":699,"o":"m 254 404 q 230 379 239 395 q 221 347 221 363 q 230 314 221 330 q 254 291 239 299 l 286 278 q 362 250 320 264 q 552 172 497 200 q 699 -24 699 94 l 569 -24 q 492 57 569 16 q 318 127 445 81 q 221 163 264 146 q 203 171 212 167 q 194 175 199 173 q 117 250 143 203 q 92 347 92 296 q 118 444 92 397 q 194 519 144 491 q 318 566 245 541 q 492 637 445 612 q 569 719 569 677 l 699 719 q 552 522 699 600 q 362 444 497 494 q 286 416 320 429 l 254 404 m 509 348 q 536 414 509 387 q 604 443 565 443 q 672 414 644 443 q 699 348 699 387 q 672 280 699 307 q 604 252 644 252 q 536 280 565 252 q 509 348 509 307 m 186 870 q 395 972 281 972 q 606 870 511 972 l 526 766 q 395 843 462 843 q 266 766 330 843 l 186 870 z "},"Ë":{"ha":790,"x_min":92,"x_max":699,"o":"m 254 404 q 230 379 239 395 q 221 347 221 363 q 230 314 221 330 q 254 291 239 299 l 286 278 q 362 250 320 264 q 552 172 497 200 q 699 -24 699 94 l 569 -24 q 492 57 569 16 q 318 127 445 81 q 221 163 264 146 q 203 171 212 167 q 194 175 199 173 q 117 250 143 203 q 92 347 92 296 q 118 444 92 397 q 194 519 144 491 q 318 566 245 541 q 492 637 445 612 q 569 719 569 677 l 699 719 q 552 522 699 600 q 362 444 497 494 q 286 416 320 429 l 254 404 m 509 348 q 536 414 509 387 q 604 443 565 443 q 672 414 644 443 q 699 348 699 387 q 672 280 699 307 q 604 252 644 252 q 536 280 565 252 q 509 348 509 307 m 304 944 q 331 876 331 917 q 304 810 331 837 q 236 781 275 781 q 168 810 197 781 q 141 876 141 837 q 168 944 141 917 q 236 972 197 972 q 304 944 275 972 m 623 944 q 650 876 650 917 q 623 810 650 837 q 555 781 595 781 q 488 810 516 781 q 460 876 460 837 q 488 944 460 917 q 555 972 516 972 q 623 944 595 972 z "},"Ì":{"ha":337,"x_min":58,"x_max":279,"o":"m 92 537 q 174 694 92 639 l 245 586 q 221 532 221 570 l 221 0 l 92 0 l 92 537 m 279 786 l 172 715 l 108 811 q 59 843 87 843 l 58 843 l 58 972 q 213 887 157 972 l 279 786 z "},"Í":{"ha":337,"x_min":58,"x_max":279,"o":"m 92 537 q 174 694 92 639 l 245 586 q 221 532 221 570 l 221 0 l 92 0 l 92 537 m 124 887 q 279 972 180 972 l 279 843 l 278 843 q 229 811 250 843 l 165 715 l 58 786 l 124 887 z "},"Î":{"ha":337,"x_min":-41,"x_max":378,"o":"m 92 537 q 174 694 92 639 l 245 586 q 221 532 221 570 l 221 0 l 92 0 l 92 537 m -41 870 q 168 972 54 972 q 378 870 283 972 l 298 766 q 168 843 235 843 q 39 766 102 843 l -41 870 z "},"Ï":{"ha":337,"x_min":-86,"x_max":423,"o":"m 92 537 q 174 694 92 639 l 245 586 q 221 532 221 570 l 221 0 l 92 0 l 92 537 m 77 944 q 104 876 104 917 q 77 810 104 837 q 9 781 48 781 q -59 810 -31 781 q -86 876 -86 837 q -59 944 -86 917 q 9 972 -31 972 q 77 944 48 972 m 396 944 q 423 876 423 917 q 396 810 423 837 q 328 781 368 781 q 260 810 289 781 q 233 876 233 837 q 260 944 233 917 q 328 972 289 972 q 396 944 368 972 z "},"Ð":{"ha":790,"x_min":92,"x_max":699,"o":"m 505 416 q 429 444 471 429 q 239 522 294 494 q 92 719 92 600 l 222 719 q 299 637 222 677 q 473 566 346 612 q 597 519 545 541 q 673 444 646 491 q 699 347 699 397 q 673 250 699 296 q 597 175 648 203 q 587 171 592 173 q 570 163 578 167 q 473 127 527 146 q 299 57 346 81 q 222 -24 222 16 l 92 -24 q 239 172 92 94 q 429 250 294 200 q 505 278 471 264 l 536 291 q 561 314 552 299 q 570 347 570 330 q 561 379 570 363 q 536 404 552 395 l 505 416 m 281 348 q 254 280 281 307 q 186 252 226 252 q 119 280 147 252 q 92 348 92 307 q 119 414 92 387 q 186 443 147 443 q 254 414 226 443 q 281 348 281 387 z "},"Ñ":{"ha":1168,"x_min":67,"x_max":1101,"o":"m 221 500 l 221 157 q 138 0 221 56 l 67 109 q 92 163 92 124 l 92 500 q 118 597 92 551 q 190 669 144 644 q 286 694 236 694 q 495 592 400 694 q 639 380 551 532 q 752 207 713 254 q 883 130 817 130 q 915 138 899 130 q 939 162 930 146 q 947 195 947 178 l 947 537 q 1030 694 947 639 l 1101 586 q 1077 532 1077 570 l 1077 195 q 1051 97 1077 144 q 979 25 1025 50 q 883 0 932 0 q 672 102 767 0 q 527 315 614 163 q 415 488 454 442 q 286 565 352 565 q 254 556 269 565 q 230 532 238 548 q 221 500 221 517 m 237 876 q 399 972 294 964 q 412 972 406 972 q 591 945 474 972 q 748 920 701 920 q 857 971 825 920 l 932 888 q 769 792 875 799 q 751 791 761 791 q 575 818 689 791 q 425 843 471 843 l 417 843 q 313 793 344 843 l 237 876 z "},"Ò":{"ha":878,"x_min":92,"x_max":786,"o":"m 92 347 q 193 592 92 490 q 439 694 295 694 q 684 592 582 694 q 786 347 786 490 q 684 101 786 204 q 439 0 582 0 q 193 101 295 0 q 92 347 92 204 m 220 347 q 285 193 220 256 q 439 128 348 128 q 593 193 529 128 q 656 347 656 256 q 593 501 656 438 q 439 565 529 565 q 285 501 348 565 q 220 347 220 438 m 513 786 l 405 715 l 341 811 q 292 843 321 843 l 291 843 l 291 972 q 446 887 391 972 l 513 786 z "},"Ó":{"ha":878,"x_min":92,"x_max":786,"o":"m 92 347 q 193 592 92 490 q 439 694 295 694 q 684 592 582 694 q 786 347 786 490 q 684 101 786 204 q 439 0 582 0 q 193 101 295 0 q 92 347 92 204 m 220 347 q 285 193 220 256 q 439 128 348 128 q 593 193 529 128 q 656 347 656 256 q 593 501 656 438 q 439 565 529 565 q 285 501 348 565 q 220 347 220 438 m 431 887 q 587 972 487 972 l 587 843 l 585 843 q 536 811 557 843 l 473 715 l 365 786 l 431 887 z "},"Ô":{"ha":878,"x_min":92,"x_max":786,"o":"m 92 347 q 193 592 92 490 q 439 694 295 694 q 684 592 582 694 q 786 347 786 490 q 684 101 786 204 q 439 0 582 0 q 193 101 295 0 q 92 347 92 204 m 220 347 q 285 193 220 256 q 439 128 348 128 q 593 193 529 128 q 656 347 656 256 q 593 501 656 438 q 439 565 529 565 q 285 501 348 565 q 220 347 220 438 m 229 870 q 439 972 324 972 q 649 870 554 972 l 569 766 q 439 843 505 843 q 309 766 373 843 l 229 870 z "},"Õ":{"ha":878,"x_min":92,"x_max":786,"o":"m 92 347 q 193 592 92 490 q 439 694 295 694 q 684 592 582 694 q 786 347 786 490 q 684 101 786 204 q 439 0 582 0 q 193 101 295 0 q 92 347 92 204 m 220 347 q 285 193 220 256 q 439 128 348 128 q 593 193 529 128 q 656 347 656 256 q 593 501 656 438 q 439 565 529 565 q 285 501 348 565 q 220 347 220 438 m 92 876 q 254 972 148 964 q 267 972 260 972 q 446 945 328 972 q 602 920 555 920 q 711 971 679 920 l 786 888 q 623 792 729 799 q 606 791 615 791 q 429 818 543 791 q 279 843 326 843 l 271 843 q 167 793 198 843 l 92 876 z "},"Ö":{"ha":878,"x_min":92,"x_max":786,"o":"m 92 347 q 193 592 92 490 q 439 694 295 694 q 684 592 582 694 q 786 347 786 490 q 684 101 786 204 q 439 0 582 0 q 193 101 295 0 q 92 347 92 204 m 220 347 q 285 193 220 256 q 439 128 348 128 q 593 193 529 128 q 656 347 656 256 q 593 501 656 438 q 439 565 529 565 q 285 501 348 565 q 220 347 220 438 m 347 944 q 374 876 374 917 q 347 810 374 837 q 279 781 319 781 q 212 810 240 781 q 184 876 184 837 q 212 944 184 917 q 279 972 240 972 q 347 944 319 972 m 667 944 q 694 876 694 917 q 667 810 694 837 q 599 781 638 781 q 531 810 559 781 q 504 876 504 837 q 531 944 504 917 q 599 972 559 972 q 667 944 638 972 z "},"×":{"ha":878,"x_min":164,"x_max":728,"o":"m 536 328 l 713 151 l 622 60 l 445 237 l 349 140 q 219 83 292 83 q 178 87 199 83 l 205 214 q 215 213 210 213 q 260 235 238 213 l 353 328 l 246 436 q 201 458 224 458 q 191 457 196 458 l 164 584 q 205 588 185 588 q 334 532 277 588 l 445 420 l 636 612 l 728 520 l 536 328 z "},"Ø":{"ha":878,"x_min":92,"x_max":786,"o":"m 92 347 q 193 592 92 490 q 439 694 295 694 q 684 592 582 694 q 786 347 786 490 q 684 101 786 204 q 439 0 582 0 q 193 101 295 0 q 92 347 92 204 m 220 347 q 285 193 220 256 q 439 128 348 128 q 593 193 529 128 q 656 347 656 256 q 593 501 656 438 q 439 565 529 565 q 285 501 348 565 q 220 347 220 438 m 738 565 q 608 488 671 565 q 496 315 568 442 q 351 102 408 163 q 140 0 256 0 l 140 130 q 271 207 206 130 q 385 380 311 254 q 528 592 472 532 q 738 694 623 694 l 738 565 z "},"Ù":{"ha":878,"x_min":67,"x_max":810,"o":"m 656 347 l 656 694 l 786 694 l 786 163 q 810 109 786 124 l 739 0 q 669 87 688 35 q 439 0 571 0 q 193 101 295 0 q 92 347 92 204 l 92 532 q 67 586 92 570 l 138 694 q 221 537 221 639 l 221 321 q 285 193 229 248 q 439 128 348 128 q 593 193 529 128 q 656 347 656 256 l 656 347 m 513 786 l 405 715 l 341 811 q 292 843 321 843 l 291 843 l 291 972 q 446 887 391 972 l 513 786 z "},"Ú":{"ha":878,"x_min":67,"x_max":810,"o":"m 656 347 l 656 694 l 786 694 l 786 163 q 810 109 786 124 l 739 0 q 669 87 688 35 q 439 0 571 0 q 193 101 295 0 q 92 347 92 204 l 92 532 q 67 586 92 570 l 138 694 q 221 537 221 639 l 221 321 q 285 193 229 248 q 439 128 348 128 q 593 193 529 128 q 656 347 656 256 l 656 347 m 431 887 q 587 972 487 972 l 587 843 l 585 843 q 536 811 557 843 l 473 715 l 365 786 l 431 887 z "},"Û":{"ha":878,"x_min":67,"x_max":810,"o":"m 656 347 l 656 694 l 786 694 l 786 163 q 810 109 786 124 l 739 0 q 669 87 688 35 q 439 0 571 0 q 193 101 295 0 q 92 347 92 204 l 92 532 q 67 586 92 570 l 138 694 q 221 537 221 639 l 221 321 q 285 193 229 248 q 439 128 348 128 q 593 193 529 128 q 656 347 656 256 l 656 347 m 229 870 q 439 972 324 972 q 649 870 554 972 l 569 766 q 439 843 505 843 q 309 766 373 843 l 229 870 z "},"Ü":{"ha":878,"x_min":67,"x_max":810,"o":"m 656 347 l 656 694 l 786 694 l 786 163 q 810 109 786 124 l 739 0 q 669 87 688 35 q 439 0 571 0 q 193 101 295 0 q 92 347 92 204 l 92 532 q 67 586 92 570 l 138 694 q 221 537 221 639 l 221 321 q 285 193 229 248 q 439 128 348 128 q 593 193 529 128 q 656 347 656 256 l 656 347 m 347 944 q 374 876 374 917 q 347 810 374 837 q 279 781 319 781 q 212 810 240 781 q 184 876 184 837 q 212 944 184 917 q 279 972 240 972 q 347 944 319 972 m 667 944 q 694 876 694 917 q 667 810 694 837 q 599 781 638 781 q 531 810 559 781 q 504 876 504 837 q 531 944 504 917 q 599 972 559 972 q 667 944 638 972 z "},"Ý":{"ha":843,"x_min":92,"x_max":751,"o":"m 528 475 q 557 522 541 495 q 636 638 605 605 q 751 694 688 694 l 751 565 q 731 550 745 565 q 669 456 709 527 q 617 374 640 406 q 583 315 601 347 q 438 102 495 163 q 227 0 343 0 l 227 130 q 358 207 293 130 q 394 256 374 225 q 250 342 313 267 q 174 456 220 377 q 112 550 134 527 q 92 565 98 565 l 92 694 q 207 638 155 694 q 286 522 238 605 q 349 426 327 452 q 422 383 385 383 q 494 426 458 383 q 517 458 504 437 q 528 475 523 467 m 414 887 q 570 972 470 972 l 570 843 l 568 843 q 519 811 540 843 l 456 715 l 348 786 l 414 887 z "},"Þ":{"ha":878,"x_min":67,"x_max":787,"o":"m 286 124 q 254 116 270 124 q 230 92 239 107 q 221 59 222 76 l 221 22 q 138 -136 221 -80 l 67 -27 q 92 27 92 -12 l 92 59 l 92 59 q 118 157 92 110 q 191 229 144 203 q 286 254 237 254 l 572 254 q 613 264 593 254 q 645 297 633 276 q 657 340 657 317 q 645 385 657 363 q 612 417 633 406 q 569 429 591 429 l 286 429 q 191 454 237 429 q 118 526 144 479 q 92 624 92 573 l 92 624 l 92 656 q 67 710 92 694 l 138 819 q 221 661 221 763 l 221 624 q 230 591 222 607 q 254 567 239 576 q 286 559 270 559 l 569 559 q 675 530 623 558 q 757 450 728 502 q 787 340 787 397 q 758 232 787 283 q 677 152 729 180 q 572 124 627 124 l 286 124 z "},"ß":{"ha":854,"x_min":67,"x_max":762,"o":"m 697 374 q 734 327 718 354 q 762 218 762 275 q 733 109 762 161 q 651 29 703 57 q 545 0 599 1 l 459 0 q 405 -24 420 0 l 296 47 q 454 130 352 130 l 545 130 q 588 142 567 130 q 621 174 608 153 q 633 218 633 195 q 621 262 633 241 q 589 294 609 283 q 547 305 569 305 l 350 305 l 350 435 l 547 435 q 580 443 564 435 q 604 467 595 452 q 612 500 612 483 q 604 532 612 517 q 579 556 595 548 q 547 565 564 565 l 286 565 q 254 556 269 565 q 230 532 238 548 q 221 500 221 517 l 221 0 q 138 -157 221 -102 l 67 -49 q 92 5 92 -33 l 92 500 q 118 597 92 551 q 190 669 144 644 q 286 694 236 694 l 547 694 q 643 669 596 694 q 715 597 689 644 q 742 500 742 551 q 716 403 742 449 q 697 374 707 388 z "},"à":{"ha":1128,"x_min":92,"x_max":1037,"o":"m 656 359 q 569 488 601 450 q 439 565 505 565 q 285 501 348 565 q 220 347 220 438 q 285 193 220 256 q 439 128 348 128 q 593 193 529 128 q 656 347 656 256 l 656 359 m 439 694 q 649 592 554 694 q 792 380 705 532 q 905 207 866 254 q 1037 130 970 130 l 1037 0 q 825 102 920 0 q 753 197 794 136 q 684 101 728 146 q 439 0 582 0 q 193 101 295 0 q 92 347 92 204 q 193 592 92 490 q 439 694 295 694 m 513 786 l 405 715 l 341 811 q 292 843 321 843 l 291 843 l 291 972 q 446 887 391 972 l 513 786 z "},"á":{"ha":1128,"x_min":92,"x_max":1037,"o":"m 656 359 q 569 488 601 450 q 439 565 505 565 q 285 501 348 565 q 220 347 220 438 q 285 193 220 256 q 439 128 348 128 q 593 193 529 128 q 656 347 656 256 l 656 359 m 439 694 q 649 592 554 694 q 792 380 705 532 q 905 207 866 254 q 1037 130 970 130 l 1037 0 q 825 102 920 0 q 753 197 794 136 q 684 101 728 146 q 439 0 582 0 q 193 101 295 0 q 92 347 92 204 q 193 592 92 490 q 439 694 295 694 m 431 887 q 587 972 487 972 l 587 843 l 585 843 q 536 811 557 843 l 473 715 l 365 786 l 431 887 z "},"â":{"ha":1128,"x_min":92,"x_max":1037,"o":"m 656 359 q 569 488 601 450 q 439 565 505 565 q 285 501 348 565 q 220 347 220 438 q 285 193 220 256 q 439 128 348 128 q 593 193 529 128 q 656 347 656 256 l 656 359 m 439 694 q 649 592 554 694 q 792 380 705 532 q 905 207 866 254 q 1037 130 970 130 l 1037 0 q 825 102 920 0 q 753 197 794 136 q 684 101 728 146 q 439 0 582 0 q 193 101 295 0 q 92 347 92 204 q 193 592 92 490 q 439 694 295 694 m 229 870 q 439 972 324 972 q 649 870 554 972 l 569 766 q 439 843 505 843 q 309 766 373 843 l 229 870 z "},"ã":{"ha":1128,"x_min":92,"x_max":1037,"o":"m 656 359 q 569 488 601 450 q 439 565 505 565 q 285 501 348 565 q 220 347 220 438 q 285 193 220 256 q 439 128 348 128 q 593 193 529 128 q 656 347 656 256 l 656 359 m 439 694 q 649 592 554 694 q 792 380 705 532 q 905 207 866 254 q 1037 130 970 130 l 1037 0 q 825 102 920 0 q 753 197 794 136 q 684 101 728 146 q 439 0 582 0 q 193 101 295 0 q 92 347 92 204 q 193 592 92 490 q 439 694 295 694 m 92 876 q 254 972 148 964 q 267 972 260 972 q 446 945 328 972 q 602 920 555 920 q 711 971 679 920 l 786 888 q 623 792 729 799 q 606 791 615 791 q 429 818 543 791 q 279 843 326 843 l 271 843 q 167 793 198 843 l 92 876 z "},"ä":{"ha":1128,"x_min":92,"x_max":1037,"o":"m 656 359 q 569 488 601 450 q 439 565 505 565 q 285 501 348 565 q 220 347 220 438 q 285 193 220 256 q 439 128 348 128 q 593 193 529 128 q 656 347 656 256 l 656 359 m 439 694 q 649 592 554 694 q 792 380 705 532 q 905 207 866 254 q 1037 130 970 130 l 1037 0 q 825 102 920 0 q 753 197 794 136 q 684 101 728 146 q 439 0 582 0 q 193 101 295 0 q 92 347 92 204 q 193 592 92 490 q 439 694 295 694 m 347 944 q 374 876 374 917 q 347 810 374 837 q 279 781 319 781 q 212 810 240 781 q 184 876 184 837 q 212 944 184 917 q 279 972 240 972 q 347 944 319 972 m 667 944 q 694 876 694 917 q 667 810 694 837 q 599 781 638 781 q 531 810 559 781 q 504 876 504 837 q 531 944 504 917 q 599 972 559 972 q 667 944 638 972 z "},"å":{"ha":1128,"x_min":92,"x_max":1037,"o":"m 656 359 q 569 488 601 450 q 439 565 505 565 q 285 501 348 565 q 220 347 220 438 q 285 193 220 256 q 439 128 348 128 q 593 193 529 128 q 656 347 656 256 l 656 359 m 439 694 q 649 592 554 694 q 792 380 705 532 q 905 207 866 254 q 1037 130 970 130 l 1037 0 q 825 102 920 0 q 753 197 794 136 q 684 101 728 146 q 439 0 582 0 q 193 101 295 0 q 92 347 92 204 q 193 592 92 490 q 439 694 295 694 m 507 944 q 534 876 534 917 q 507 810 534 837 q 439 781 478 781 q 371 810 399 781 q 344 876 344 837 q 371 944 344 917 q 439 972 399 972 q 507 944 478 972 z "},"æ":{"ha":1139,"x_min":92,"x_max":1047,"o":"m 918 500 q 909 532 918 517 q 885 556 901 548 q 852 565 869 565 q 699 501 762 565 q 633 347 633 438 q 638 302 633 323 q 677 321 656 311 q 865 427 815 388 q 918 500 918 468 m 221 194 q 230 162 221 178 q 254 138 238 146 q 286 130 269 130 q 440 193 377 130 q 505 347 505 256 q 500 393 505 371 q 462 374 482 383 q 274 267 323 307 q 221 194 221 227 m 570 549 q 606 592 586 572 q 852 694 709 694 q 950 668 903 694 q 1022 596 997 642 q 1047 500 1047 550 q 945 325 1047 404 q 733 204 884 277 q 703 189 718 197 q 852 128 764 128 l 873 130 q 1031 47 975 130 l 922 -24 q 868 0 907 0 l 852 0 q 606 101 709 0 q 569 145 585 122 q 532 102 553 123 q 286 0 430 0 q 189 26 235 0 q 117 98 142 52 q 92 194 92 144 q 194 370 92 290 q 406 490 254 417 q 436 505 421 498 q 286 566 374 566 l 265 565 q 108 648 163 565 l 216 719 q 271 694 232 694 l 286 694 q 532 593 430 694 q 570 549 553 572 z "},"ç":{"ha":775,"x_min":92,"x_max":684,"o":"m 684 101 q 439 0 582 0 q 193 101 295 0 q 92 347 92 204 q 193 592 92 490 q 439 694 295 694 q 684 592 582 694 l 593 501 q 439 565 529 565 q 285 501 348 565 q 220 347 220 438 q 285 193 220 256 q 439 128 348 128 q 593 193 529 128 l 684 101 m 456 -115 q 483 -183 483 -142 q 456 -250 483 -222 q 388 -278 427 -278 q 320 -250 349 -278 q 293 -183 293 -222 q 320 -115 293 -142 q 388 -87 349 -87 q 456 -115 427 -87 z "},"è":{"ha":725,"x_min":92,"x_max":633,"o":"m 504 500 q 495 532 504 517 q 471 556 487 548 q 439 565 456 565 q 285 501 348 565 q 220 347 220 438 q 224 302 220 323 q 263 321 243 311 q 451 427 401 388 q 504 500 504 468 m 439 694 q 536 668 490 694 q 608 596 583 642 q 633 500 633 550 q 531 325 633 404 q 319 204 471 277 q 289 189 304 197 q 439 128 351 128 l 460 130 q 617 47 562 130 l 509 -24 q 454 0 493 0 l 439 0 q 193 101 295 0 q 92 347 92 204 q 193 592 92 490 q 439 694 295 694 m 437 786 l 329 715 l 265 811 q 216 843 245 843 l 215 843 l 215 972 q 370 887 315 972 l 437 786 z "},"é":{"ha":725,"x_min":92,"x_max":633,"o":"m 504 500 q 495 532 504 517 q 471 556 487 548 q 439 565 456 565 q 285 501 348 565 q 220 347 220 438 q 224 302 220 323 q 263 321 243 311 q 451 427 401 388 q 504 500 504 468 m 439 694 q 536 668 490 694 q 608 596 583 642 q 633 500 633 550 q 531 325 633 404 q 319 204 471 277 q 289 189 304 197 q 439 128 351 128 l 460 130 q 617 47 562 130 l 509 -24 q 454 0 493 0 l 439 0 q 193 101 295 0 q 92 347 92 204 q 193 592 92 490 q 439 694 295 694 m 355 887 q 511 972 411 972 l 511 843 l 509 843 q 460 811 481 843 l 397 715 l 289 786 l 355 887 z "},"ê":{"ha":725,"x_min":92,"x_max":633,"o":"m 504 500 q 495 532 504 517 q 471 556 487 548 q 439 565 456 565 q 285 501 348 565 q 220 347 220 438 q 224 302 220 323 q 263 321 243 311 q 451 427 401 388 q 504 500 504 468 m 439 694 q 536 668 490 694 q 608 596 583 642 q 633 500 633 550 q 531 325 633 404 q 319 204 471 277 q 289 189 304 197 q 439 128 351 128 l 460 130 q 617 47 562 130 l 509 -24 q 454 0 493 0 l 439 0 q 193 101 295 0 q 92 347 92 204 q 193 592 92 490 q 439 694 295 694 m 153 870 q 362 972 248 972 q 572 870 477 972 l 492 766 q 362 843 429 843 q 233 766 296 843 l 153 870 z "},"ë":{"ha":725,"x_min":92,"x_max":633,"o":"m 504 500 q 495 532 504 517 q 471 556 487 548 q 439 565 456 565 q 285 501 348 565 q 220 347 220 438 q 224 302 220 323 q 263 321 243 311 q 451 427 401 388 q 504 500 504 468 m 439 694 q 536 668 490 694 q 608 596 583 642 q 633 500 633 550 q 531 325 633 404 q 319 204 471 277 q 289 189 304 197 q 439 128 351 128 l 460 130 q 617 47 562 130 l 509 -24 q 454 0 493 0 l 439 0 q 193 101 295 0 q 92 347 92 204 q 193 592 92 490 q 439 694 295 694 m 271 944 q 298 876 298 917 q 271 810 298 837 q 203 781 242 781 q 135 810 163 781 q 108 876 108 837 q 135 944 108 917 q 203 972 163 972 q 271 944 242 972 m 590 944 q 617 876 617 917 q 590 810 617 837 q 522 781 562 781 q 454 810 483 781 q 427 876 427 837 q 454 944 427 917 q 522 972 483 972 q 590 944 562 972 z "},"ì":{"ha":337,"x_min":58,"x_max":279,"o":"m 92 537 q 174 694 92 639 l 245 586 q 221 532 221 570 l 221 0 l 92 0 l 92 537 m 279 786 l 172 715 l 108 811 q 59 843 87 843 l 58 843 l 58 972 q 213 887 157 972 l 279 786 z "},"í":{"ha":337,"x_min":58,"x_max":279,"o":"m 92 537 q 174 694 92 639 l 245 586 q 221 532 221 570 l 221 0 l 92 0 l 92 537 m 124 887 q 279 972 180 972 l 279 843 l 278 843 q 229 811 250 843 l 165 715 l 58 786 l 124 887 z "},"î":{"ha":337,"x_min":-41,"x_max":378,"o":"m 92 537 q 174 694 92 639 l 245 586 q 221 532 221 570 l 221 0 l 92 0 l 92 537 m -41 870 q 168 972 54 972 q 378 870 283 972 l 298 766 q 168 843 235 843 q 39 766 102 843 l -41 870 z "},"ï":{"ha":337,"x_min":-86,"x_max":423,"o":"m 92 537 q 174 694 92 639 l 245 586 q 221 532 221 570 l 221 0 l 92 0 l 92 537 m 77 944 q 104 876 104 917 q 77 810 104 837 q 9 781 48 781 q -59 810 -31 781 q -86 876 -86 837 q -59 944 -86 917 q 9 972 -31 972 q 77 944 48 972 m 396 944 q 423 876 423 917 q 396 810 423 837 q 328 781 368 781 q 260 810 289 781 q 233 876 233 837 q 260 944 233 917 q 328 972 289 972 q 396 944 368 972 z "},"ð":{"ha":879,"x_min":92,"x_max":787,"o":"m 740 521 q 787 351 787 439 q 775 258 787 305 q 613 47 738 119 q 444 0 532 0 q 350 13 397 0 q 139 174 210 50 q 92 344 92 255 q 104 438 92 390 q 266 648 142 576 q 396 683 326 683 q 509 663 450 683 l 394 862 q 367 956 367 909 q 387 1039 367 998 l 503 981 q 497 958 497 970 q 509 922 497 941 l 740 521 m 641 434 l 615 479 q 496 558 571 538 q 435 567 465 567 q 330 537 380 567 q 229 404 252 492 q 222 347 222 375 q 252 239 222 292 q 383 137 297 160 q 441 129 413 129 q 548 159 496 129 q 650 291 627 204 q 659 352 659 322 q 641 434 659 394 m 349 823 q 322 755 349 782 q 254 726 294 726 q 186 755 215 726 q 159 823 159 782 q 186 889 159 862 q 254 918 215 918 q 322 889 294 918 q 349 823 349 862 z "},"ñ":{"ha":878,"x_min":67,"x_max":810,"o":"m 221 0 l 92 0 l 92 532 q 67 586 92 570 l 138 694 q 209 608 190 660 q 439 694 307 694 q 685 593 583 694 q 786 347 786 490 l 786 163 q 810 109 786 124 l 739 0 q 656 157 656 56 l 656 373 q 593 501 648 447 q 439 566 530 566 q 285 501 349 566 q 222 347 222 438 l 221 347 l 221 0 m 92 876 q 254 972 148 964 q 267 972 260 972 q 446 945 328 972 q 602 920 555 920 q 711 971 679 920 l 786 888 q 623 792 729 799 q 606 791 615 791 q 429 818 543 791 q 279 843 326 843 l 271 843 q 167 793 198 843 l 92 876 z "},"ò":{"ha":878,"x_min":92,"x_max":786,"o":"m 92 347 q 193 592 92 490 q 439 694 295 694 q 684 592 582 694 q 786 347 786 490 q 684 101 786 204 q 439 0 582 0 q 193 101 295 0 q 92 347 92 204 m 220 347 q 285 193 220 256 q 439 128 348 128 q 593 193 529 128 q 656 347 656 256 q 593 501 656 438 q 439 565 529 565 q 285 501 348 565 q 220 347 220 438 m 513 786 l 405 715 l 341 811 q 292 843 321 843 l 291 843 l 291 972 q 446 887 391 972 l 513 786 z "},"ó":{"ha":878,"x_min":92,"x_max":786,"o":"m 92 347 q 193 592 92 490 q 439 694 295 694 q 684 592 582 694 q 786 347 786 490 q 684 101 786 204 q 439 0 582 0 q 193 101 295 0 q 92 347 92 204 m 220 347 q 285 193 220 256 q 439 128 348 128 q 593 193 529 128 q 656 347 656 256 q 593 501 656 438 q 439 565 529 565 q 285 501 348 565 q 220 347 220 438 m 431 887 q 587 972 487 972 l 587 843 l 585 843 q 536 811 557 843 l 473 715 l 365 786 l 431 887 z "},"ô":{"ha":878,"x_min":92,"x_max":786,"o":"m 92 347 q 193 592 92 490 q 439 694 295 694 q 684 592 582 694 q 786 347 786 490 q 684 101 786 204 q 439 0 582 0 q 193 101 295 0 q 92 347 92 204 m 220 347 q 285 193 220 256 q 439 128 348 128 q 593 193 529 128 q 656 347 656 256 q 593 501 656 438 q 439 565 529 565 q 285 501 348 565 q 220 347 220 438 m 229 870 q 439 972 324 972 q 649 870 554 972 l 569 766 q 439 843 505 843 q 309 766 373 843 l 229 870 z "},"õ":{"ha":878,"x_min":92,"x_max":786,"o":"m 92 347 q 193 592 92 490 q 439 694 295 694 q 684 592 582 694 q 786 347 786 490 q 684 101 786 204 q 439 0 582 0 q 193 101 295 0 q 92 347 92 204 m 220 347 q 285 193 220 256 q 439 128 348 128 q 593 193 529 128 q 656 347 656 256 q 593 501 656 438 q 439 565 529 565 q 285 501 348 565 q 220 347 220 438 m 92 876 q 254 972 148 964 q 267 972 260 972 q 446 945 328 972 q 602 920 555 920 q 711 971 679 920 l 786 888 q 623 792 729 799 q 606 791 615 791 q 429 818 543 791 q 279 843 326 843 l 271 843 q 167 793 198 843 l 92 876 z "},"ö":{"ha":878,"x_min":92,"x_max":786,"o":"m 92 347 q 193 592 92 490 q 439 694 295 694 q 684 592 582 694 q 786 347 786 490 q 684 101 786 204 q 439 0 582 0 q 193 101 295 0 q 92 347 92 204 m 220 347 q 285 193 220 256 q 439 128 348 128 q 593 193 529 128 q 656 347 656 256 q 593 501 656 438 q 439 565 529 565 q 285 501 348 565 q 220 347 220 438 m 347 944 q 374 876 374 917 q 347 810 374 837 q 279 781 319 781 q 212 810 240 781 q 184 876 184 837 q 212 944 184 917 q 279 972 240 972 q 347 944 319 972 m 667 944 q 694 876 694 917 q 667 810 694 837 q 599 781 638 781 q 531 810 559 781 q 504 876 504 837 q 531 944 504 917 q 599 972 559 972 q 667 944 638 972 z "},"÷":{"ha":878,"x_min":92,"x_max":786,"o":"m 92 264 l 92 393 l 623 393 q 677 418 662 393 l 786 347 q 629 264 730 264 l 92 264 m 479 205 q 507 137 507 178 q 479 71 507 98 q 412 42 451 42 q 344 71 372 42 q 317 137 317 98 q 344 205 317 178 q 412 233 372 233 q 479 205 451 233 m 479 612 q 507 544 507 585 q 479 477 507 505 q 412 449 451 449 q 344 477 372 449 q 317 544 317 505 q 344 612 317 585 q 412 640 372 640 q 479 612 451 640 z "},"ø":{"ha":878,"x_min":92,"x_max":786,"o":"m 92 347 q 193 592 92 490 q 439 694 295 694 q 684 592 582 694 q 786 347 786 490 q 684 101 786 204 q 439 0 582 0 q 193 101 295 0 q 92 347 92 204 m 220 347 q 285 193 220 256 q 439 128 348 128 q 593 193 529 128 q 656 347 656 256 q 593 501 656 438 q 439 565 529 565 q 285 501 348 565 q 220 347 220 438 m 738 565 q 608 488 671 565 q 496 315 568 442 q 351 102 408 163 q 140 0 256 0 l 140 130 q 271 207 206 130 q 385 380 311 254 q 528 592 472 532 q 738 694 623 694 l 738 565 z "},"ù":{"ha":878,"x_min":67,"x_max":810,"o":"m 92 532 q 67 586 92 570 l 138 694 q 221 537 221 639 l 221 321 q 285 193 229 248 q 439 128 348 128 q 593 193 529 128 q 656 347 656 256 l 656 347 l 656 694 l 786 694 l 786 163 q 810 109 786 124 l 739 0 q 669 87 688 35 q 439 0 571 0 q 193 101 295 0 q 92 347 92 204 l 92 532 m 513 786 l 405 715 l 341 811 q 292 843 321 843 l 291 843 l 291 972 q 446 887 391 972 l 513 786 z "},"ú":{"ha":878,"x_min":67,"x_max":810,"o":"m 92 532 q 67 586 92 570 l 138 694 q 221 537 221 639 l 221 321 q 285 193 229 248 q 439 128 348 128 q 593 193 529 128 q 656 347 656 256 l 656 347 l 656 694 l 786 694 l 786 163 q 810 109 786 124 l 739 0 q 669 87 688 35 q 439 0 571 0 q 193 101 295 0 q 92 347 92 204 l 92 532 m 431 887 q 587 972 487 972 l 587 843 l 585 843 q 536 811 557 843 l 473 715 l 365 786 l 431 887 z "},"û":{"ha":878,"x_min":67,"x_max":810,"o":"m 92 532 q 67 586 92 570 l 138 694 q 221 537 221 639 l 221 321 q 285 193 229 248 q 439 128 348 128 q 593 193 529 128 q 656 347 656 256 l 656 347 l 656 694 l 786 694 l 786 163 q 810 109 786 124 l 739 0 q 669 87 688 35 q 439 0 571 0 q 193 101 295 0 q 92 347 92 204 l 92 532 m 229 870 q 439 972 324 972 q 649 870 554 972 l 569 766 q 439 843 505 843 q 309 766 373 843 l 229 870 z "},"ü":{"ha":878,"x_min":67,"x_max":810,"o":"m 92 532 q 67 586 92 570 l 138 694 q 221 537 221 639 l 221 321 q 285 193 229 248 q 439 128 348 128 q 593 193 529 128 q 656 347 656 256 l 656 347 l 656 694 l 786 694 l 786 163 q 810 109 786 124 l 739 0 q 669 87 688 35 q 439 0 571 0 q 193 101 295 0 q 92 347 92 204 l 92 532 m 347 944 q 374 876 374 917 q 347 810 374 837 q 279 781 319 781 q 212 810 240 781 q 184 876 184 837 q 212 944 184 917 q 279 972 240 972 q 347 944 319 972 m 667 944 q 694 876 694 917 q 667 810 694 837 q 599 781 638 781 q 531 810 559 781 q 504 876 504 837 q 531 944 504 917 q 599 972 559 972 q 667 944 638 972 z "},"ý":{"ha":878,"x_min":67,"x_max":786,"o":"m 92 347 l 92 532 q 67 586 92 570 l 138 694 q 221 537 221 639 l 221 344 q 285 193 221 256 q 439 130 348 130 l 450 130 q 579 217 542 185 q 656 347 656 281 l 656 674 l 786 674 l 786 347 q 684 137 786 232 q 472 -6 623 81 q 298 -119 345 -80 q 221 -251 221 -184 l 92 -251 q 194 -39 92 -134 q 289 33 227 -8 q 193 102 237 58 q 92 347 92 204 m 419 887 q 574 972 475 972 l 574 843 l 573 843 q 524 811 545 843 l 460 715 l 353 786 l 419 887 z "},"þ":{"ha":878,"x_min":67,"x_max":786,"o":"m 221 321 q 285 193 229 248 q 439 128 348 128 q 593 193 529 128 q 656 347 656 256 q 593 501 656 438 q 439 566 529 566 q 285 501 348 566 q 221 373 229 447 l 221 321 m 786 347 q 684 101 786 204 q 439 0 582 0 q 221 109 315 0 l 221 -121 q 138 -278 221 -222 l 67 -170 q 92 -115 92 -154 l 92 810 q 67 864 92 848 l 138 972 q 221 815 221 917 l 221 585 q 439 694 315 694 q 684 593 582 694 q 786 347 786 490 z "},"ÿ":{"ha":878,"x_min":67,"x_max":786,"o":"m 92 347 l 92 532 q 67 586 92 570 l 138 694 q 221 537 221 639 l 221 344 q 285 193 221 256 q 439 130 348 130 l 450 130 q 579 217 542 185 q 656 347 656 281 l 656 674 l 786 674 l 786 347 q 684 137 786 232 q 472 -6 623 81 q 298 -119 345 -80 q 221 -251 221 -184 l 92 -251 q 194 -39 92 -134 q 289 33 227 -8 q 193 102 237 58 q 92 347 92 204 m 335 944 q 362 876 362 917 q 335 810 362 837 q 267 781 307 781 q 199 810 228 781 q 172 876 172 837 q 199 944 172 917 q 267 972 228 972 q 335 944 307 972 m 654 944 q 682 876 682 917 q 654 810 682 837 q 587 781 626 781 q 519 810 547 781 q 492 876 492 837 q 519 944 492 917 q 587 972 547 972 q 654 944 626 972 z "},"Ğ":{"ha":790,"x_min":92,"x_max":699,"o":"m 569 -24 q 492 57 569 16 q 318 127 445 81 q 221 163 264 146 q 203 171 212 167 q 194 175 199 173 q 117 250 143 203 q 92 347 92 296 q 118 444 92 397 q 194 519 144 491 q 318 566 245 541 q 492 637 445 612 q 569 719 569 677 l 699 719 q 552 522 699 600 q 362 444 497 494 q 286 416 320 429 l 254 404 q 230 379 239 395 q 221 347 221 363 q 230 314 221 330 q 254 291 239 299 l 286 278 q 362 250 320 264 q 552 172 497 200 q 569 162 561 167 l 569 342 l 699 342 l 699 -121 q 616 -278 699 -222 l 545 -170 q 569 -115 569 -154 l 569 -24 m 463 944 q 490 876 490 917 q 463 810 490 837 q 395 781 435 781 q 328 810 356 781 q 300 876 300 837 q 328 944 300 917 q 395 972 356 972 q 463 944 435 972 z "},"ğ":{"ha":878,"x_min":92,"x_max":786,"o":"m 450 130 q 579 217 542 185 q 656 347 656 281 q 593 501 656 438 q 439 566 530 566 q 285 501 348 566 q 220 347 220 438 q 285 193 220 257 q 439 130 348 130 l 450 130 m 786 347 q 684 137 786 232 q 472 -6 623 81 q 298 -119 345 -80 q 221 -251 221 -184 l 92 -251 q 194 -39 92 -134 q 289 33 227 -8 q 193 102 237 58 q 92 347 92 204 q 193 593 92 491 q 439 694 296 694 q 465 694 452 694 l 465 694 l 623 694 q 677 719 662 694 l 786 648 q 699 577 751 596 q 786 347 786 479 m 507 944 q 534 876 534 917 q 507 810 534 837 q 439 781 478 781 q 371 810 399 781 q 344 876 344 837 q 371 944 344 917 q 439 972 399 972 q 507 944 478 972 z "},"İ":{"ha":373,"x_min":92,"x_max":281,"o":"m 254 810 q 186 781 226 781 q 119 810 147 781 q 92 878 92 837 q 119 944 92 917 q 186 972 147 972 q 254 944 226 972 q 281 878 281 917 q 254 810 281 837 m 252 0 l 122 0 l 122 537 q 205 694 122 639 l 276 586 q 252 532 252 570 l 252 0 z "},"ı":{"ha":337,"x_min":92,"x_max":245,"o":"m 221 0 l 92 0 l 92 537 q 174 694 92 639 l 245 586 q 221 532 221 570 l 221 0 z "},"Œ":{"ha":1354,"x_min":92,"x_max":1263,"o":"m 92 347 q 193 592 92 490 q 439 694 295 694 q 684 592 582 694 q 786 347 786 490 q 684 101 786 204 q 439 0 582 0 q 193 101 295 0 q 92 347 92 204 m 220 347 q 285 193 220 256 q 439 128 348 128 q 593 193 529 128 q 656 347 656 256 q 593 501 656 438 q 439 565 529 565 q 285 501 348 565 q 220 347 220 438 m 818 404 q 793 379 802 395 q 785 347 785 363 q 793 314 785 330 q 818 291 802 299 l 850 278 q 926 250 884 264 q 1116 172 1061 200 q 1262 -24 1262 94 l 1133 -24 q 1055 57 1133 16 q 882 127 1008 81 q 785 163 827 146 q 767 171 776 167 q 758 175 762 173 q 681 250 707 203 q 655 347 655 296 q 682 444 655 397 q 758 519 708 491 q 882 566 809 541 q 1055 637 1008 612 q 1133 719 1133 677 l 1262 719 q 1116 522 1262 600 q 926 444 1061 494 q 850 416 884 429 l 818 404 m 1073 348 q 1100 414 1073 387 q 1168 443 1128 443 q 1236 414 1207 443 q 1263 348 1263 387 q 1236 280 1263 307 q 1168 252 1207 252 q 1100 280 1128 252 q 1073 348 1073 307 z "},"œ":{"ha":1289,"x_min":92,"x_max":1198,"o":"m 92 347 q 193 592 92 490 q 439 694 295 694 q 684 592 582 694 q 786 347 786 490 q 684 101 786 204 q 439 0 582 0 q 193 101 295 0 q 92 347 92 204 m 220 347 q 285 193 220 256 q 439 128 348 128 q 593 193 529 128 q 656 347 656 256 q 593 501 656 438 q 439 565 529 565 q 285 501 348 565 q 220 347 220 438 m 1068 500 q 1060 532 1068 517 q 1036 556 1051 548 q 1003 565 1020 565 q 849 501 912 565 q 784 347 784 438 q 789 302 784 323 q 827 321 807 311 q 1015 427 966 388 q 1068 500 1068 468 m 1003 694 q 1101 668 1054 694 q 1173 596 1147 642 q 1198 500 1198 550 q 1095 325 1198 404 q 884 204 1035 277 q 853 189 868 197 q 1003 128 915 128 l 1024 130 q 1181 47 1126 130 l 1073 -24 q 1019 0 1057 0 l 1003 0 q 757 101 859 0 q 656 347 656 204 q 757 592 656 490 q 1003 694 859 694 z "},"Ş":{"ha":781,"x_min":92,"x_max":690,"o":"m 690 565 q 559 488 623 565 q 448 315 520 442 q 303 102 360 163 q 92 0 208 0 l 92 130 q 223 207 158 130 q 336 380 262 254 q 479 592 424 532 q 690 694 574 694 l 690 565 m 458 -115 q 486 -183 486 -142 q 458 -250 486 -222 q 391 -278 430 -278 q 323 -250 351 -278 q 296 -183 296 -222 q 323 -115 296 -142 q 391 -87 351 -87 q 458 -115 430 -87 z "},"ş":{"ha":781,"x_min":92,"x_max":690,"o":"m 690 565 q 559 488 623 565 q 448 315 520 442 q 303 102 360 163 q 92 0 208 0 l 92 130 q 223 207 158 130 q 336 380 262 254 q 479 592 424 532 q 690 694 574 694 l 690 565 m 458 -115 q 486 -183 486 -142 q 458 -250 486 -222 q 391 -278 430 -278 q 323 -250 351 -278 q 296 -183 296 -222 q 323 -115 296 -142 q 391 -87 351 -87 q 458 -115 430 -87 z "},"Š":{"ha":781,"x_min":92,"x_max":690,"o":"m 690 565 q 559 488 623 565 q 448 315 520 442 q 303 102 360 163 q 92 0 208 0 l 92 130 q 223 207 158 130 q 336 380 262 254 q 479 592 424 532 q 690 694 574 694 l 690 565 m 458 944 q 486 876 486 917 q 458 810 486 837 q 391 781 430 781 q 323 810 351 781 q 296 876 296 837 q 323 944 296 917 q 391 972 351 972 q 458 944 430 972 z "},"š":{"ha":781,"x_min":92,"x_max":690,"o":"m 690 565 q 559 488 623 565 q 448 315 520 442 q 303 102 360 163 q 92 0 208 0 l 92 130 q 223 207 158 130 q 336 380 262 254 q 479 592 424 532 q 690 694 574 694 l 690 565 m 458 944 q 486 876 486 917 q 458 810 486 837 q 391 781 430 781 q 323 810 351 781 q 296 876 296 837 q 323 944 296 917 q 391 972 351 972 q 458 944 430 972 z "},"Ů":{"ha":878,"x_min":67,"x_max":810,"o":"m 656 347 l 656 694 l 786 694 l 786 163 q 810 109 786 124 l 739 0 q 669 87 688 35 q 439 0 571 0 q 193 101 295 0 q 92 347 92 204 l 92 532 q 67 586 92 570 l 138 694 q 221 537 221 639 l 221 321 q 285 193 229 248 q 439 128 348 128 q 593 193 529 128 q 656 347 656 256 l 656 347 m 507 944 q 534 876 534 917 q 507 810 534 837 q 439 781 478 781 q 371 810 399 781 q 344 876 344 837 q 371 944 344 917 q 439 972 399 972 q 507 944 478 972 z "},"ů":{"ha":878,"x_min":67,"x_max":810,"o":"m 92 532 q 67 586 92 570 l 138 694 q 221 537 221 639 l 221 321 q 285 193 229 248 q 439 128 348 128 q 593 193 529 128 q 656 347 656 256 l 656 347 l 656 694 l 786 694 l 786 163 q 810 109 786 124 l 739 0 q 669 87 688 35 q 439 0 571 0 q 193 101 295 0 q 92 347 92 204 l 92 532 m 507 944 q 534 876 534 917 q 507 810 534 837 q 439 781 478 781 q 371 810 399 781 q 344 876 344 837 q 371 944 344 917 q 439 972 399 972 q 507 944 478 972 z "},"Ÿ":{"ha":843,"x_min":92,"x_max":751,"o":"m 528 475 q 557 522 541 495 q 636 638 605 605 q 751 694 688 694 l 751 565 q 731 550 745 565 q 669 456 709 527 q 617 374 640 406 q 583 315 601 347 q 438 102 495 163 q 227 0 343 0 l 227 130 q 358 207 293 130 q 394 256 374 225 q 250 342 313 267 q 174 456 220 377 q 112 550 134 527 q 92 565 98 565 l 92 694 q 207 638 155 694 q 286 522 238 605 q 349 426 327 452 q 422 383 385 383 q 494 426 458 383 q 517 458 504 437 q 528 475 523 467 m 330 944 q 357 876 357 917 q 330 810 357 837 q 262 781 301 781 q 194 810 222 781 q 167 876 167 837 q 194 944 167 917 q 262 972 222 972 q 330 944 301 972 m 649 944 q 676 876 676 917 q 649 810 676 837 q 581 781 621 781 q 513 810 542 781 q 486 876 486 837 q 513 944 486 917 q 581 972 542 972 q 649 944 621 972 z "},"Ž":{"ha":781,"x_min":92,"x_max":690,"o":"m 92 694 q 302 592 207 694 q 445 380 357 532 q 558 207 519 254 q 690 130 623 130 l 690 0 q 478 102 573 0 q 334 315 421 163 q 222 488 261 442 q 92 565 158 565 l 92 694 m 458 944 q 486 876 486 917 q 458 810 486 837 q 391 781 430 781 q 323 810 351 781 q 296 876 296 837 q 323 944 296 917 q 391 972 351 972 q 458 944 430 972 z "},"ž":{"ha":781,"x_min":92,"x_max":690,"o":"m 92 694 q 302 592 207 694 q 445 380 357 532 q 558 207 519 254 q 690 130 623 130 l 690 0 q 478 102 573 0 q 334 315 421 163 q 222 488 261 442 q 92 565 158 565 l 92 694 m 458 944 q 486 876 486 917 q 458 810 486 837 q 391 781 430 781 q 323 810 351 781 q 296 876 296 837 q 323 944 296 917 q 391 972 351 972 q 458 944 430 972 z "},"ˆ":{"ha":603,"x_min":92,"x_max":511,"o":"m 92 870 q 301 972 186 972 q 511 870 416 972 l 431 766 q 301 843 368 843 q 172 766 235 843 l 92 870 z "},"ˇ":{"ha":373,"x_min":92,"x_max":281,"o":"m 254 944 q 281 876 281 917 q 254 810 281 837 q 186 781 226 781 q 119 810 147 781 q 92 876 92 837 q 119 944 92 917 q 186 972 147 972 q 254 944 226 972 z "},"ˉ":{"ha":603,"x_min":92,"x_max":511,"o":"m 92 819 l 92 948 l 349 948 q 403 972 387 948 l 511 901 q 354 819 456 819 l 92 819 z "},"˘":{"ha":373,"x_min":92,"x_max":281,"o":"m 254 944 q 281 876 281 917 q 254 810 281 837 q 186 781 226 781 q 119 810 147 781 q 92 876 92 837 q 119 944 92 917 q 186 972 147 972 q 254 944 226 972 z "},"˙":{"ha":373,"x_min":92,"x_max":281,"o":"m 254 944 q 281 876 281 917 q 254 810 281 837 q 186 781 226 781 q 119 810 147 781 q 92 876 92 837 q 119 944 92 917 q 186 972 147 972 q 254 944 226 972 z "},"˚":{"ha":373,"x_min":92,"x_max":281,"o":"m 254 944 q 281 876 281 917 q 254 810 281 837 q 186 781 226 781 q 119 810 147 781 q 92 876 92 837 q 119 944 92 917 q 186 972 147 972 q 254 944 226 972 z "},"˜":{"ha":878,"x_min":92,"x_max":786,"o":"m 92 876 q 254 972 148 964 q 267 972 260 972 q 446 945 328 972 q 602 920 555 920 q 711 971 679 920 l 786 888 q 623 792 729 799 q 606 791 615 791 q 429 818 543 791 q 279 843 326 843 l 271 843 q 167 793 198 843 l 92 876 z "},"˝":{"ha":553,"x_min":92,"x_max":462,"o":"m 462 722 q 379 565 462 621 l 308 673 q 332 728 332 689 l 332 890 l 462 890 l 462 722 m 245 722 q 163 565 245 621 l 92 673 q 116 728 116 689 l 116 890 l 245 890 l 245 722 z "},"Ё":{"ha":790,"x_min":92,"x_max":761,"o":"m 304 944 q 331 876 331 917 q 304 810 331 837 q 236 781 275 781 q 168 810 197 781 q 141 876 141 837 q 168 944 141 917 q 236 972 197 972 q 304 944 275 972 m 623 944 q 650 876 650 917 q 623 810 650 837 q 555 781 595 781 q 488 810 516 781 q 460 876 460 837 q 488 944 460 917 q 555 972 516 972 q 623 944 595 972 m 494 281 q 426 252 465 252 q 358 281 387 252 q 331 349 331 308 q 358 415 331 388 q 426 444 387 444 q 494 415 465 444 q 522 349 522 388 q 494 281 522 308 m 92 500 q 118 597 92 551 q 190 669 144 644 q 286 694 236 694 l 598 694 q 652 719 637 694 l 761 648 q 604 565 705 565 l 286 565 q 254 556 269 565 q 230 532 238 548 q 221 500 221 517 l 221 195 q 230 162 221 178 q 254 138 238 146 q 286 130 269 130 l 604 130 q 761 47 705 130 l 652 -24 q 598 0 637 0 l 286 0 q 190 25 236 0 q 118 97 144 50 q 92 195 92 144 l 92 500 z "},"Є":{"ha":790,"x_min":92,"x_max":699,"o":"m 254 404 q 230 379 239 395 q 221 347 221 363 q 230 314 221 330 q 254 291 239 299 l 286 278 q 362 250 320 264 q 552 172 497 200 q 699 -24 699 94 l 569 -24 q 492 57 569 16 q 318 127 445 81 q 221 163 264 146 q 203 171 212 167 q 194 175 199 173 q 117 250 143 203 q 92 347 92 296 q 118 444 92 397 q 194 519 144 491 q 318 566 245 541 q 492 637 445 612 q 569 719 569 677 l 699 719 q 552 522 699 600 q 362 444 497 494 q 286 416 320 429 l 254 404 m 509 348 q 536 414 509 387 q 604 443 565 443 q 672 414 644 443 q 699 348 699 387 q 672 280 699 307 q 604 252 644 252 q 536 280 565 252 q 509 348 509 307 z "},"І":{"ha":313,"x_min":92,"x_max":245,"o":"m 92 537 q 174 694 92 639 l 245 586 q 221 532 221 570 l 221 0 l 92 0 l 92 537 z "},"Ї":{"ha":337,"x_min":-86,"x_max":423,"o":"m 92 537 q 174 694 92 639 l 245 586 q 221 532 221 570 l 221 0 l 92 0 l 92 537 m 77 944 q 104 876 104 917 q 77 810 104 837 q 9 781 48 781 q -59 810 -31 781 q -86 876 -86 837 q -59 944 -86 917 q 9 972 -31 972 q 77 944 48 972 m 396 944 q 423 876 423 917 q 396 810 423 837 q 328 781 368 781 q 260 810 289 781 q 233 876 233 837 q 260 944 233 917 q 328 972 289 972 q 396 944 368 972 z "},"Ў":{"ha":843,"x_min":92,"x_max":751,"o":"m 528 475 q 557 522 541 495 q 636 638 605 605 q 751 694 688 694 l 751 565 q 731 550 745 565 q 669 456 709 527 q 617 374 640 406 q 583 315 601 347 q 438 102 495 163 q 227 0 343 0 l 227 130 q 358 207 293 130 q 394 256 374 225 q 250 342 313 267 q 174 456 220 377 q 112 550 134 527 q 92 565 98 565 l 92 694 q 207 638 155 694 q 286 522 238 605 q 349 426 327 452 q 422 383 385 383 q 494 426 458 383 q 517 458 504 437 q 528 475 523 467 m 490 944 q 517 876 517 917 q 490 810 517 837 q 422 781 461 781 q 354 810 382 781 q 327 876 327 837 q 354 944 327 917 q 422 972 382 972 q 490 944 461 972 z "},"А":{"ha":1379,"x_min":92,"x_max":1287,"o":"m 336 380 q 479 592 424 532 q 689 694 574 694 q 899 592 804 694 q 1042 380 955 532 q 1156 207 1116 254 q 1287 130 1221 130 l 1287 0 q 1076 102 1171 0 q 931 315 1019 163 q 819 488 859 442 q 689 565 755 565 q 559 488 623 565 q 448 315 520 442 q 303 102 360 163 q 92 0 208 0 l 92 130 q 223 207 158 130 q 336 380 262 254 m 785 225 q 758 157 785 184 q 689 128 728 128 q 621 157 650 128 q 594 225 594 184 q 621 292 594 264 q 689 320 650 320 q 758 292 728 320 q 785 225 785 264 z "},"Б":{"ha":854,"x_min":67,"x_max":787,"o":"m 221 341 l 221 157 q 138 0 221 56 l 67 109 q 92 163 92 124 l 92 500 q 118 597 92 551 q 190 669 144 644 q 286 694 236 694 l 598 694 q 652 719 637 694 l 761 648 q 604 565 705 565 l 286 565 q 254 556 269 565 q 230 532 238 548 q 221 500 221 517 l 221 497 q 230 465 222 480 q 254 440 239 449 q 286 432 270 432 l 572 432 q 677 404 627 432 q 758 324 729 376 q 787 216 787 273 q 757 106 787 159 q 675 26 728 54 q 569 -3 623 -2 l 458 -3 q 404 -27 419 -3 l 295 44 q 452 127 351 127 l 569 127 q 612 139 591 127 q 645 172 633 151 q 657 216 657 193 q 645 259 657 239 q 613 292 633 280 q 572 302 593 302 l 368 302 q 221 341 253 302 z "},"В":{"ha":854,"x_min":67,"x_max":762,"o":"m 697 374 q 734 327 718 354 q 762 218 762 275 q 733 109 762 161 q 651 29 703 57 q 545 0 599 1 l 459 0 q 405 -24 420 0 l 296 47 q 454 130 352 130 l 545 130 q 588 142 567 130 q 621 174 608 153 q 633 218 633 195 q 621 262 633 241 q 589 294 609 283 q 547 305 569 305 l 350 305 l 350 435 l 547 435 q 580 443 564 435 q 604 467 595 452 q 612 500 612 483 q 604 532 612 517 q 579 556 595 548 q 547 565 564 565 l 286 565 q 254 556 269 565 q 230 532 238 548 q 221 500 221 517 l 221 129 q 138 -28 221 27 l 67 80 q 92 134 92 96 l 92 500 q 118 597 92 551 q 190 669 144 644 q 286 694 236 694 l 547 694 q 643 669 596 694 q 715 597 689 644 q 742 500 742 551 q 716 403 742 449 q 697 374 707 388 z "},"Г":{"ha":852,"x_min":67,"x_max":761,"o":"m 598 694 q 652 719 637 694 l 761 648 q 604 565 705 565 l 286 565 q 254 556 269 565 q 230 532 238 548 q 221 500 221 517 l 221 157 q 138 0 221 56 l 67 109 q 92 163 92 124 l 92 500 q 118 597 92 551 q 190 669 144 644 q 286 694 236 694 l 598 694 z "},"Д":{"ha":1704,"x_min":92,"x_max":1613,"o":"m 254 130 q 386 207 321 130 q 499 380 425 254 q 642 592 587 532 q 852 694 737 694 q 1062 592 967 694 q 1205 380 1118 532 q 1318 207 1279 254 q 1450 130 1383 130 l 1455 130 q 1613 47 1557 130 l 1504 -24 q 1450 0 1489 0 l 254 0 q 200 -24 216 0 l 92 47 q 249 130 147 130 l 254 130 m 1215 130 q 1094 315 1164 193 q 982 488 1021 442 q 852 565 918 565 q 722 488 786 565 q 610 315 683 442 q 490 130 540 193 l 1215 130 z "},"Е":{"ha":852,"x_min":92,"x_max":761,"o":"m 494 281 q 426 252 465 252 q 358 281 387 252 q 331 349 331 308 q 358 415 331 388 q 426 444 387 444 q 494 415 465 444 q 522 349 522 388 q 494 281 522 308 m 92 500 q 118 597 92 551 q 190 669 144 644 q 286 694 236 694 l 598 694 q 652 719 637 694 l 761 648 q 604 565 705 565 l 286 565 q 254 556 269 565 q 230 532 238 548 q 221 500 221 517 l 221 195 q 230 162 221 178 q 254 138 238 146 q 286 130 269 130 l 604 130 q 761 47 705 130 l 652 -24 q 598 0 637 0 l 286 0 q 190 25 236 0 q 118 97 144 50 q 92 195 92 144 l 92 500 z "},"Ж":{"ha":1636,"x_min":92,"x_max":1545,"o":"m 883 195 q 891 162 883 178 q 916 138 900 146 q 947 130 931 130 q 1077 207 1014 130 q 1189 379 1116 252 q 1334 592 1276 532 q 1545 694 1429 694 l 1545 565 q 1414 488 1478 565 q 1321 349 1380 448 q 1415 207 1381 247 q 1545 130 1478 130 l 1545 0 q 1335 102 1430 0 q 1246 224 1297 142 q 1157 102 1195 143 q 947 0 1062 0 q 852 25 898 0 q 780 97 806 50 q 753 195 753 144 l 753 500 q 745 532 753 517 q 721 556 736 548 q 689 565 705 565 q 559 488 623 565 q 448 315 520 442 q 302 102 360 163 q 92 0 208 0 l 92 130 q 222 207 158 130 q 315 346 256 247 q 221 488 256 448 q 92 565 158 565 l 92 694 q 301 592 206 694 q 390 471 339 552 q 479 592 441 551 q 689 694 574 694 q 785 669 739 694 q 857 597 831 644 q 883 500 883 551 l 883 195 z "},"З":{"ha":878,"x_min":92,"x_max":787,"o":"m 254 0 q 200 -24 216 0 l 92 47 q 249 130 147 130 l 569 130 q 612 142 591 130 q 645 174 633 153 q 657 218 657 195 q 645 262 657 241 q 613 294 633 283 q 572 305 593 305 l 249 305 l 249 435 l 572 435 q 604 443 589 435 q 628 467 620 452 q 637 500 637 483 q 628 532 637 517 q 604 556 619 548 q 572 565 588 565 l 249 565 q 92 648 147 565 l 200 719 q 254 694 216 694 l 572 694 q 667 669 621 694 q 740 597 713 644 q 766 500 766 551 q 741 403 766 449 q 722 374 732 388 q 758 327 743 354 q 787 218 787 275 q 757 109 787 161 q 675 29 728 57 q 569 0 623 1 l 254 0 z "},"И":{"ha":1168,"x_min":67,"x_max":1101,"o":"m 947 500 q 939 532 947 517 q 915 556 930 548 q 883 565 899 565 q 753 488 817 565 q 642 315 714 442 q 496 102 554 163 q 286 0 401 0 q 190 25 236 0 q 118 97 144 50 q 92 195 92 144 l 92 532 q 67 586 92 570 l 138 694 q 221 537 221 639 l 221 195 q 230 162 221 178 q 254 138 238 146 q 286 130 269 130 q 416 207 352 130 q 530 380 456 254 q 673 592 617 532 q 883 694 768 694 q 979 669 932 694 q 1051 597 1025 644 q 1077 500 1077 551 l 1077 163 q 1101 109 1077 124 l 1030 0 q 947 157 947 56 l 947 500 z "},"Й":{"ha":1168,"x_min":67,"x_max":1101,"o":"m 947 500 q 939 532 947 517 q 915 556 930 548 q 883 565 899 565 q 753 488 817 565 q 642 315 714 442 q 496 102 554 163 q 286 0 401 0 q 190 25 236 0 q 118 97 144 50 q 92 195 92 144 l 92 532 q 67 586 92 570 l 138 694 q 221 537 221 639 l 221 195 q 230 162 221 178 q 254 138 238 146 q 286 130 269 130 q 416 207 352 130 q 530 380 456 254 q 673 592 617 532 q 883 694 768 694 q 979 669 932 694 q 1051 597 1025 644 q 1077 500 1077 551 l 1077 163 q 1101 109 1077 124 l 1030 0 q 947 157 947 56 l 947 500 m 652 944 q 680 876 680 917 q 652 810 680 837 q 585 781 624 781 q 517 810 545 781 q 490 876 490 837 q 517 944 490 917 q 585 972 545 972 q 652 944 624 972 z "},"К":{"ha":975,"x_min":67,"x_max":883,"o":"m 659 349 q 753 207 719 247 q 883 130 817 130 l 883 0 q 673 102 768 0 q 585 224 635 142 q 495 102 533 143 q 286 0 400 0 q 190 25 236 0 q 118 97 144 50 q 92 195 92 144 l 92 532 q 67 586 92 570 l 138 694 q 221 537 221 639 l 221 195 q 230 162 221 178 q 254 138 238 146 q 286 130 269 130 q 415 207 352 130 q 527 379 454 252 q 672 592 614 532 q 883 694 767 694 l 883 565 q 752 488 817 565 q 659 349 718 448 z "},"Л":{"ha":1379,"x_min":92,"x_max":1287,"o":"m 336 380 q 479 592 424 532 q 689 694 574 694 q 899 592 804 694 q 1042 380 955 532 q 1156 207 1116 254 q 1287 130 1221 130 l 1287 0 q 1076 102 1171 0 q 931 315 1019 163 q 819 488 859 442 q 689 565 755 565 q 559 488 623 565 q 448 315 520 442 q 303 102 360 163 q 92 0 208 0 l 92 130 q 223 207 158 130 q 336 380 262 254 z "},"М":{"ha":1976,"x_min":92,"x_max":1885,"o":"m 1063 346 q 1156 207 1122 247 q 1287 130 1221 130 l 1287 0 q 1076 102 1171 0 q 931 315 1019 163 q 819 488 859 442 q 690 565 755 565 q 559 488 623 565 q 448 315 520 442 q 303 102 360 163 q 92 0 208 0 l 92 130 q 223 207 158 130 q 336 380 262 254 q 479 592 424 532 q 690 694 574 694 q 899 592 804 694 q 988 471 937 551 q 1077 592 1040 551 q 1287 694 1172 694 q 1497 592 1402 694 q 1640 380 1552 532 q 1753 207 1714 254 q 1885 130 1818 130 l 1885 0 q 1673 102 1769 0 q 1529 315 1616 163 q 1417 488 1456 442 q 1287 565 1353 565 q 1157 488 1221 565 q 1063 346 1122 448 z "},"Н":{"ha":877,"x_min":67,"x_max":810,"o":"m 656 564 q 739 722 656 666 l 810 613 q 785 559 785 597 l 785 0 l 656 0 l 656 564 m 221 130 q 138 -27 221 28 l 67 81 q 92 136 92 97 l 92 694 l 221 694 l 221 130 m 343 348 q 370 414 343 387 q 438 443 399 443 q 506 414 477 443 q 533 348 533 387 q 506 280 533 307 q 438 252 477 252 q 370 280 399 252 q 343 348 343 307 z "},"О":{"ha":878,"x_min":92,"x_max":786,"o":"m 92 347 q 193 592 92 490 q 439 694 295 694 q 684 592 582 694 q 786 347 786 490 q 684 101 786 204 q 439 0 582 0 q 193 101 295 0 q 92 347 92 204 m 220 347 q 285 193 220 256 q 439 128 348 128 q 593 193 529 128 q 656 347 656 256 q 593 501 656 438 q 439 565 529 565 q 285 501 348 565 q 220 347 220 438 z "},"П":{"ha":878,"x_min":67,"x_max":810,"o":"m 786 136 q 810 81 786 97 l 739 -27 q 656 130 656 28 l 656 373 q 593 501 648 447 q 439 566 530 566 q 285 501 349 566 q 222 347 222 438 l 221 347 l 221 0 l 92 0 l 92 532 q 67 586 92 570 l 138 694 q 209 608 190 660 q 439 694 307 694 q 685 593 583 694 q 786 347 786 490 l 786 136 z "},"Р":{"ha":878,"x_min":67,"x_max":787,"o":"m 249 565 q 92 648 147 565 l 200 719 q 254 694 216 694 l 569 694 q 675 666 623 694 q 757 585 728 637 q 787 476 787 533 q 758 368 787 419 q 677 288 729 316 q 572 260 627 260 l 286 260 q 254 251 270 260 q 230 227 239 243 q 221 195 222 212 l 221 130 q 138 -27 221 28 l 67 81 q 92 136 92 97 l 92 195 l 92 195 q 118 292 92 245 q 191 364 144 339 q 286 389 237 389 l 572 389 q 613 400 593 389 q 645 432 633 412 q 657 476 657 453 q 645 520 657 499 q 612 553 633 541 q 569 565 591 564 l 249 565 z "},"С":{"ha":790,"x_min":92,"x_max":699,"o":"m 254 404 q 230 379 239 395 q 221 347 221 363 q 230 314 221 330 q 254 291 239 299 l 286 278 q 362 250 320 264 q 552 172 497 200 q 699 -24 699 94 l 569 -24 q 492 57 569 16 q 318 127 445 81 q 221 163 264 146 q 203 171 212 167 q 194 175 199 173 q 117 250 143 203 q 92 347 92 296 q 118 444 92 397 q 194 519 144 491 q 318 566 245 541 q 492 637 445 612 q 569 719 569 677 l 699 719 q 552 522 699 600 q 362 444 497 494 q 286 416 320 429 l 254 404 z "},"Т":{"ha":600,"x_min":92,"x_max":508,"o":"m 249 565 q 92 648 147 565 l 200 719 q 254 694 216 694 l 508 694 l 508 565 l 378 565 l 378 163 q 403 109 378 124 l 332 0 q 249 157 249 56 l 249 565 z "},"У":{"ha":843,"x_min":92,"x_max":751,"o":"m 528 475 q 557 522 541 495 q 636 638 605 605 q 751 694 688 694 l 751 565 q 731 550 745 565 q 669 456 709 527 q 617 374 640 406 q 583 315 601 347 q 438 102 495 163 q 227 0 343 0 l 227 130 q 358 207 293 130 q 394 256 374 225 q 250 342 313 267 q 174 456 220 377 q 112 550 134 527 q 92 565 98 565 l 92 694 q 207 638 155 694 q 286 522 238 605 q 349 426 327 452 q 422 383 385 383 q 494 426 458 383 q 517 458 504 437 q 528 475 523 467 z "},"Ф":{"ha":1055,"x_min":92,"x_max":963,"o":"m 592 260 l 748 260 q 789 271 770 260 q 822 303 810 282 q 833 347 833 323 q 821 391 833 370 q 788 423 809 412 q 745 435 768 435 l 592 435 l 592 260 m 463 130 l 307 130 q 201 158 252 130 q 120 238 149 186 q 92 347 92 290 q 121 456 92 404 q 203 536 151 508 q 309 565 255 564 l 464 565 q 545 694 474 647 l 616 586 q 598 565 604 578 l 745 565 q 852 536 800 564 q 933 456 904 508 q 963 347 963 404 q 934 238 963 290 q 854 158 905 186 q 748 130 803 130 l 592 130 l 592 0 l 463 0 l 463 130 m 309 435 q 266 423 287 435 q 233 391 245 412 q 221 347 221 370 q 233 303 221 323 q 265 271 245 282 q 307 260 285 260 l 463 260 l 463 435 l 309 435 z "},"Х":{"ha":843,"x_min":92,"x_max":751,"o":"m 245 347 q 174 456 218 382 q 112 550 134 527 q 92 565 98 565 l 92 694 q 207 638 155 694 q 286 522 238 605 q 348 427 326 453 q 422 441 383 441 q 495 427 460 441 q 557 522 517 453 q 636 638 605 605 q 751 694 688 694 l 751 565 q 731 550 745 565 q 669 456 709 527 q 597 347 625 382 q 669 238 625 312 q 731 144 709 168 q 751 130 745 130 l 751 0 q 636 56 688 0 q 557 173 605 90 q 494 269 516 243 q 422 311 458 311 q 349 269 385 311 q 286 173 327 243 q 207 56 238 90 q 92 0 155 0 l 92 130 q 112 144 98 130 q 174 238 134 168 q 245 347 218 312 z "},"Ц":{"ha":878,"x_min":67,"x_max":810,"o":"m 786 194 q 761 98 786 144 q 689 26 736 52 q 591 0 642 0 l 286 0 q 189 26 235 0 q 117 98 142 52 q 92 194 92 144 l 92 559 q 67 613 92 597 l 138 722 q 221 564 221 666 l 221 194 q 230 162 221 178 q 254 138 238 146 q 286 130 269 130 l 591 130 q 624 138 608 130 q 648 162 640 146 q 656 194 656 178 l 656 537 q 739 694 656 639 l 810 586 q 786 532 786 570 l 786 194 m 783 -115 q 810 -183 810 -142 q 783 -250 810 -222 q 715 -278 755 -278 q 648 -250 676 -278 q 621 -183 621 -222 q 648 -115 621 -142 q 715 -87 676 -87 q 783 -115 755 -87 z "},"Ч":{"ha":878,"x_min":67,"x_max":810,"o":"m 656 694 l 786 694 l 786 163 q 810 109 786 124 l 739 0 q 656 157 656 56 l 656 248 q 439 139 563 139 q 194 240 296 139 q 92 486 92 343 l 92 566 q 67 620 92 604 l 138 728 q 221 571 221 673 l 221 486 l 222 486 q 285 332 222 395 q 439 267 349 267 q 593 332 530 267 q 656 460 648 387 l 656 694 z "},"Ш":{"ha":1442,"x_min":67,"x_max":1375,"o":"m 721 49 q 689 26 707 36 q 591 0 642 0 l 286 0 q 189 26 235 0 q 117 98 142 52 q 92 194 92 144 l 92 559 q 67 613 92 597 l 138 722 q 221 564 221 666 l 221 194 q 230 162 221 178 q 254 138 238 146 q 286 130 269 130 l 591 130 q 624 138 608 130 q 648 162 640 146 q 656 194 656 178 l 656 532 q 632 586 656 570 l 703 694 q 786 537 786 639 l 786 194 q 794 162 786 178 q 819 138 803 146 q 851 130 834 130 l 1156 130 q 1189 138 1173 130 q 1213 162 1204 146 q 1221 194 1221 178 l 1221 564 q 1304 722 1221 666 l 1375 613 q 1351 559 1351 597 l 1351 194 q 1326 98 1351 144 q 1254 26 1301 52 q 1156 0 1207 0 l 851 0 q 753 26 800 0 q 721 49 736 36 z "},"Щ":{"ha":1442,"x_min":67,"x_max":1375,"o":"m 721 49 q 689 26 707 36 q 591 0 642 0 l 286 0 q 189 26 235 0 q 117 98 142 52 q 92 194 92 144 l 92 559 q 67 613 92 597 l 138 722 q 221 564 221 666 l 221 194 q 230 162 221 178 q 254 138 238 146 q 286 130 269 130 l 591 130 q 624 138 608 130 q 648 162 640 146 q 656 194 656 178 l 656 532 q 632 586 656 570 l 703 694 q 786 537 786 639 l 786 194 q 794 162 786 178 q 819 138 803 146 q 851 130 834 130 l 1156 130 q 1189 138 1173 130 q 1213 162 1204 146 q 1221 194 1221 178 l 1221 564 q 1304 722 1221 666 l 1375 613 q 1351 559 1351 597 l 1351 194 q 1326 98 1351 144 q 1254 26 1301 52 q 1156 0 1207 0 l 851 0 q 753 26 800 0 q 721 49 736 36 m 1348 -115 q 1375 -183 1375 -142 q 1348 -250 1375 -222 q 1280 -278 1320 -278 q 1213 -250 1241 -278 q 1185 -183 1185 -222 q 1213 -115 1185 -142 q 1280 -87 1241 -87 q 1348 -115 1320 -87 z "},"Ъ":{"ha":943,"x_min":92,"x_max":851,"o":"m 286 500 q 295 467 286 483 q 319 443 303 452 q 351 435 334 435 l 636 435 q 742 407 691 435 q 822 327 793 378 q 851 218 851 275 q 822 109 851 161 q 740 29 792 57 q 633 0 688 1 l 319 0 q 264 -24 280 0 l 156 47 q 313 130 212 130 l 633 130 q 676 142 656 130 q 709 174 697 153 q 722 218 722 195 q 710 262 722 241 q 677 294 698 283 q 636 305 658 305 l 351 305 q 255 330 301 305 q 183 402 209 355 q 157 500 157 449 q 148 532 156 517 q 123 556 139 548 q 92 565 108 565 l 92 694 q 187 669 141 694 q 259 597 233 644 q 286 500 286 551 z "},"Ы":{"ha":1137,"x_min":67,"x_max":1070,"o":"m 569 130 q 612 142 591 130 q 645 174 633 153 q 657 218 657 195 q 645 262 657 241 q 613 294 633 283 q 572 305 593 305 l 286 305 q 191 330 237 305 q 118 402 144 355 q 92 500 92 449 l 92 500 l 92 532 q 67 586 92 570 l 138 694 q 221 537 221 639 l 221 500 q 230 467 222 483 q 254 443 239 452 q 286 435 270 435 l 572 435 q 677 407 627 435 q 758 327 729 378 q 787 218 787 275 q 757 109 787 161 q 675 29 728 57 q 569 0 623 1 l 254 0 q 200 -24 216 0 l 92 47 q 249 130 147 130 l 569 130 m 916 537 q 999 694 916 639 l 1070 586 q 1046 532 1046 570 l 1046 0 l 916 0 l 916 537 z "},"Ь":{"ha":878,"x_min":67,"x_max":787,"o":"m 569 130 q 612 142 591 130 q 645 174 633 153 q 657 218 657 195 q 645 262 657 241 q 613 294 633 283 q 572 305 593 305 l 286 305 q 191 330 237 305 q 118 402 144 355 q 92 500 92 449 l 92 500 l 92 532 q 67 586 92 570 l 138 694 q 221 537 221 639 l 221 500 q 230 467 222 483 q 254 443 239 452 q 286 435 270 435 l 572 435 q 677 407 627 435 q 758 327 729 378 q 787 218 787 275 q 757 109 787 161 q 675 29 728 57 q 569 0 623 1 l 254 0 q 200 -24 216 0 l 92 47 q 249 130 147 130 l 569 130 z "},"Э":{"ha":790,"x_min":92,"x_max":699,"o":"m 505 416 q 429 444 471 429 q 239 522 294 494 q 92 719 92 600 l 222 719 q 299 637 222 677 q 473 566 346 612 q 597 519 545 541 q 673 444 646 491 q 699 347 699 397 q 673 250 699 296 q 597 175 648 203 q 587 171 592 173 q 570 163 578 167 q 473 127 527 146 q 299 57 346 81 q 222 -24 222 16 l 92 -24 q 239 172 92 94 q 429 250 294 200 q 505 278 471 264 l 536 291 q 561 314 552 299 q 570 347 570 330 q 561 379 570 363 q 536 404 552 395 l 505 416 m 281 348 q 254 280 281 307 q 186 252 226 252 q 119 280 147 252 q 92 348 92 307 q 119 414 92 387 q 186 443 147 443 q 254 414 226 443 q 281 348 281 387 z "},"Ю":{"ha":1306,"x_min":67,"x_max":1215,"o":"m 520 347 q 621 592 520 490 q 867 694 724 694 q 1112 592 1010 694 q 1215 347 1215 490 q 1112 101 1215 204 q 867 0 1010 0 q 621 101 724 0 q 520 347 520 204 m 648 347 q 713 193 648 256 q 867 128 777 128 q 1021 193 958 128 q 1084 347 1084 256 q 1021 501 1084 438 q 867 565 958 565 q 713 501 777 565 q 648 347 648 438 m 221 0 l 92 0 l 92 532 q 67 586 92 570 l 138 694 q 221 537 221 639 l 221 0 m 275 348 q 302 414 275 387 q 370 443 331 443 q 438 414 410 443 q 465 348 465 387 q 438 280 465 307 q 370 252 410 252 q 302 280 331 252 q 275 348 275 307 z "},"Я":{"ha":878,"x_min":92,"x_max":786,"o":"m 286 565 q 254 556 269 565 q 230 532 238 548 q 221 500 221 517 q 274 427 221 468 q 462 321 323 388 q 654 215 599 254 q 786 0 786 123 l 656 0 q 579 109 656 56 q 406 204 532 142 q 385 214 395 210 q 301 102 336 140 q 92 0 206 0 l 92 130 q 221 207 158 130 q 270 275 241 230 q 194 325 222 302 q 92 500 92 404 q 117 596 92 550 q 189 668 142 642 q 286 694 235 694 l 623 694 q 677 719 662 694 l 786 648 q 629 565 730 565 l 286 565 z "},"а":{"ha":1128,"x_min":92,"x_max":1037,"o":"m 656 359 q 569 488 601 450 q 439 565 505 565 q 285 501 348 565 q 220 347 220 438 q 285 193 220 256 q 439 128 348 128 q 593 193 529 128 q 656 347 656 256 l 656 359 m 439 694 q 649 592 554 694 q 792 380 705 532 q 905 207 866 254 q 1037 130 970 130 l 1037 0 q 825 102 920 0 q 753 197 794 136 q 684 101 728 146 q 439 0 582 0 q 193 101 295 0 q 92 347 92 204 q 193 592 92 490 q 439 694 295 694 z "},"б":{"ha":878,"x_min":92,"x_max":786,"o":"m 221 372 l 221 347 l 220 347 q 285 193 220 256 q 439 128 348 128 q 593 193 529 128 q 656 347 656 256 q 593 501 656 438 q 439 565 529 565 q 285 501 348 565 q 221 372 229 447 m 439 972 l 623 972 q 677 997 662 972 l 786 926 q 629 843 730 843 l 439 843 q 285 779 348 843 q 220 625 220 716 l 220 617 q 439 694 313 694 q 684 592 582 694 q 786 347 786 490 q 684 101 786 204 q 439 0 582 0 q 193 101 295 0 q 92 347 92 204 l 92 625 q 193 870 92 768 q 439 972 295 972 z "},"в":{"ha":854,"x_min":67,"x_max":762,"o":"m 697 374 q 734 327 718 354 q 762 218 762 275 q 733 109 762 161 q 651 29 703 57 q 545 0 599 1 l 459 0 q 405 -24 420 0 l 296 47 q 454 130 352 130 l 545 130 q 588 142 567 130 q 621 174 608 153 q 633 218 633 195 q 621 262 633 241 q 589 294 609 283 q 547 305 569 305 l 350 305 l 350 435 l 547 435 q 580 443 564 435 q 604 467 595 452 q 612 500 612 483 q 604 532 612 517 q 579 556 595 548 q 547 565 564 565 l 286 565 q 254 556 269 565 q 230 532 238 548 q 221 500 221 517 l 221 129 q 138 -28 221 27 l 67 80 q 92 134 92 96 l 92 500 q 118 597 92 551 q 190 669 144 644 q 286 694 236 694 l 547 694 q 643 669 596 694 q 715 597 689 644 q 742 500 742 551 q 716 403 742 449 q 697 374 707 388 z "},"г":{"ha":589,"x_min":67,"x_max":498,"o":"m 308 600 q 335 666 308 639 q 403 694 363 694 q 471 666 442 694 q 498 600 498 639 q 471 532 498 559 q 403 503 442 503 q 335 532 363 503 q 308 600 308 559 m 92 0 l 92 532 q 67 586 92 570 l 138 694 q 221 537 221 639 l 221 0 l 92 0 z "},"д":{"ha":878,"x_min":92,"x_max":786,"o":"m 450 130 q 579 217 542 185 q 656 347 656 281 q 593 501 656 438 q 439 566 530 566 q 285 501 348 566 q 220 347 220 438 q 285 193 220 257 q 439 130 348 130 l 450 130 m 786 347 q 684 137 786 232 q 472 -6 623 81 q 298 -119 345 -80 q 221 -251 221 -184 l 92 -251 q 194 -39 92 -134 q 289 33 227 -8 q 193 102 237 58 q 92 347 92 204 q 193 593 92 491 q 439 694 296 694 q 465 694 452 694 l 465 694 l 623 694 q 677 719 662 694 l 786 648 q 699 577 751 596 q 786 347 786 479 z "},"е":{"ha":725,"x_min":92,"x_max":633,"o":"m 504 500 q 495 532 504 517 q 471 556 487 548 q 439 565 456 565 q 285 501 348 565 q 220 347 220 438 q 224 302 220 323 q 263 321 243 311 q 451 427 401 388 q 504 500 504 468 m 439 694 q 536 668 490 694 q 608 596 583 642 q 633 500 633 550 q 531 325 633 404 q 319 204 471 277 q 289 189 304 197 q 439 128 351 128 l 460 130 q 617 47 562 130 l 509 -24 q 454 0 493 0 l 439 0 q 193 101 295 0 q 92 347 92 204 q 193 592 92 490 q 439 694 295 694 z "},"ж":{"ha":1636,"x_min":92,"x_max":1545,"o":"m 883 195 q 891 162 883 178 q 916 138 900 146 q 947 130 931 130 q 1077 207 1014 130 q 1189 379 1116 252 q 1334 592 1276 532 q 1545 694 1429 694 l 1545 565 q 1414 488 1478 565 q 1321 349 1380 448 q 1415 207 1381 247 q 1545 130 1478 130 l 1545 0 q 1335 102 1430 0 q 1246 224 1297 142 q 1157 102 1195 143 q 947 0 1062 0 q 852 25 898 0 q 780 97 806 50 q 753 195 753 144 l 753 500 q 745 532 753 517 q 721 556 736 548 q 689 565 705 565 q 559 488 623 565 q 448 315 520 442 q 302 102 360 163 q 92 0 208 0 l 92 130 q 222 207 158 130 q 315 346 256 247 q 221 488 256 448 q 92 565 158 565 l 92 694 q 301 592 206 694 q 390 471 339 552 q 479 592 441 551 q 689 694 574 694 q 785 669 739 694 q 857 597 831 644 q 883 500 883 551 l 883 195 z "},"з":{"ha":878,"x_min":92,"x_max":787,"o":"m 254 0 q 200 -24 216 0 l 92 47 q 249 130 147 130 l 569 130 q 612 142 591 130 q 645 174 633 153 q 657 218 657 195 q 645 262 657 241 q 613 294 633 283 q 572 305 593 305 l 249 305 l 249 435 l 572 435 q 604 443 589 435 q 628 467 620 452 q 637 500 637 483 q 628 532 637 517 q 604 556 619 548 q 572 565 588 565 l 249 565 q 92 648 147 565 l 200 719 q 254 694 216 694 l 572 694 q 667 669 621 694 q 740 597 713 644 q 766 500 766 551 q 741 403 766 449 q 722 374 732 388 q 758 327 743 354 q 787 218 787 275 q 757 109 787 161 q 675 29 728 57 q 569 0 623 1 l 254 0 z "},"и":{"ha":878,"x_min":67,"x_max":810,"o":"m 656 347 l 656 694 l 786 694 l 786 163 q 810 109 786 124 l 739 0 q 669 87 688 35 q 439 0 571 0 q 193 101 295 0 q 92 347 92 204 l 92 532 q 67 586 92 570 l 138 694 q 221 537 221 639 l 221 321 q 285 193 229 248 q 439 128 348 128 q 593 193 529 128 q 656 347 656 256 l 656 347 z "},"й":{"ha":878,"x_min":67,"x_max":810,"o":"m 656 347 l 656 694 l 786 694 l 786 163 q 810 109 786 124 l 739 0 q 669 87 688 35 q 439 0 571 0 q 193 101 295 0 q 92 347 92 204 l 92 532 q 67 586 92 570 l 138 694 q 221 537 221 639 l 221 321 q 285 193 229 248 q 439 128 348 128 q 593 193 529 128 q 656 347 656 256 l 656 347 m 507 944 q 534 876 534 917 q 507 810 534 837 q 439 781 478 781 q 371 810 399 781 q 344 876 344 837 q 371 944 344 917 q 439 972 399 972 q 507 944 478 972 z "},"к":{"ha":975,"x_min":67,"x_max":883,"o":"m 659 349 q 753 207 719 247 q 883 130 817 130 l 883 0 q 673 102 768 0 q 585 224 635 142 q 495 102 533 143 q 286 0 400 0 q 190 25 236 0 q 118 97 144 50 q 92 195 92 144 l 92 532 q 67 586 92 570 l 138 694 q 221 537 221 639 l 221 195 q 230 162 221 178 q 254 138 238 146 q 286 130 269 130 q 415 207 352 130 q 527 379 454 252 q 672 592 614 532 q 883 694 767 694 l 883 565 q 752 488 817 565 q 659 349 718 448 z "},"л":{"ha":1379,"x_min":92,"x_max":1287,"o":"m 336 380 q 479 592 424 532 q 689 694 574 694 q 899 592 804 694 q 1042 380 955 532 q 1156 207 1116 254 q 1287 130 1221 130 l 1287 0 q 1076 102 1171 0 q 931 315 1019 163 q 819 488 859 442 q 689 565 755 565 q 559 488 623 565 q 448 315 520 442 q 303 102 360 163 q 92 0 208 0 l 92 130 q 223 207 158 130 q 336 380 262 254 z "},"м":{"ha":1976,"x_min":92,"x_max":1885,"o":"m 1063 346 q 1156 207 1122 247 q 1287 130 1221 130 l 1287 0 q 1076 102 1171 0 q 931 315 1019 163 q 819 488 859 442 q 690 565 755 565 q 559 488 623 565 q 448 315 520 442 q 303 102 360 163 q 92 0 208 0 l 92 130 q 223 207 158 130 q 336 380 262 254 q 479 592 424 532 q 690 694 574 694 q 899 592 804 694 q 988 471 937 551 q 1077 592 1040 551 q 1287 694 1172 694 q 1497 592 1402 694 q 1640 380 1552 532 q 1753 207 1714 254 q 1885 130 1818 130 l 1885 0 q 1673 102 1769 0 q 1529 315 1616 163 q 1417 488 1456 442 q 1287 565 1353 565 q 1157 488 1221 565 q 1063 346 1122 448 z "},"н":{"ha":877,"x_min":67,"x_max":810,"o":"m 656 564 q 739 722 656 666 l 810 613 q 785 559 785 597 l 785 0 l 656 0 l 656 564 m 221 130 q 138 -27 221 28 l 67 81 q 92 136 92 97 l 92 694 l 221 694 l 221 130 m 343 348 q 370 414 343 387 q 438 443 399 443 q 506 414 477 443 q 533 348 533 387 q 506 280 533 307 q 438 252 477 252 q 370 280 399 252 q 343 348 343 307 z "},"о":{"ha":878,"x_min":92,"x_max":786,"o":"m 92 347 q 193 592 92 490 q 439 694 295 694 q 684 592 582 694 q 786 347 786 490 q 684 101 786 204 q 439 0 582 0 q 193 101 295 0 q 92 347 92 204 m 220 347 q 285 193 220 256 q 439 128 348 128 q 593 193 529 128 q 656 347 656 256 q 593 501 656 438 q 439 565 529 565 q 285 501 348 565 q 220 347 220 438 z "},"п":{"ha":878,"x_min":67,"x_max":810,"o":"m 786 163 q 810 109 786 124 l 739 0 q 656 157 656 56 l 656 500 q 648 532 656 517 q 624 556 640 548 q 591 565 608 565 l 286 565 q 254 556 269 565 q 230 532 238 548 q 221 500 221 517 l 221 157 q 138 0 221 56 l 67 109 q 92 163 92 124 l 92 500 q 117 596 92 550 q 189 668 142 642 q 286 694 235 694 l 591 694 q 689 668 642 694 q 761 596 736 642 q 786 500 786 550 l 786 163 z "},"р":{"ha":878,"x_min":67,"x_max":786,"o":"m 92 347 q 193 592 92 490 q 439 694 295 694 q 684 592 582 694 q 786 347 786 490 q 684 101 786 204 q 439 0 582 0 q 221 109 315 0 l 221 -121 q 138 -278 221 -222 l 67 -170 q 92 -115 92 -154 l 92 347 m 221 373 l 221 321 q 285 193 229 248 q 439 128 348 128 q 593 193 529 128 q 656 347 656 256 q 593 501 656 438 q 439 565 529 565 q 285 501 348 565 q 221 373 229 447 z "},"с":{"ha":775,"x_min":92,"x_max":684,"o":"m 684 101 q 439 0 582 0 q 193 101 295 0 q 92 347 92 204 q 193 592 92 490 q 439 694 295 694 q 684 592 582 694 l 593 501 q 439 565 529 565 q 285 501 348 565 q 220 347 220 438 q 285 193 220 256 q 439 128 348 128 q 593 193 529 128 l 684 101 z "},"т":{"ha":600,"x_min":92,"x_max":508,"o":"m 249 565 q 92 648 147 565 l 200 719 q 254 694 216 694 l 508 694 l 508 565 l 378 565 l 378 163 q 403 109 378 124 l 332 0 q 249 157 249 56 l 249 565 z "},"у":{"ha":843,"x_min":92,"x_max":751,"o":"m 528 475 q 557 522 541 495 q 636 638 605 605 q 751 694 688 694 l 751 565 q 731 550 745 565 q 669 456 709 527 q 617 374 640 406 q 583 315 601 347 q 438 102 495 163 q 227 0 343 0 l 227 130 q 358 207 293 130 q 394 256 374 225 q 250 342 313 267 q 174 456 220 377 q 112 550 134 527 q 92 565 98 565 l 92 694 q 207 638 155 694 q 286 522 238 605 q 349 426 327 452 q 422 383 385 383 q 494 426 458 383 q 517 458 504 437 q 528 475 523 467 z "},"ф":{"ha":1442,"x_min":92,"x_max":1351,"o":"m 656 321 l 656 373 q 593 501 648 447 q 439 566 530 566 q 285 501 349 566 q 222 347 222 438 q 285 193 222 256 q 439 130 349 130 q 593 193 530 130 q 656 321 648 248 m 786 321 q 850 193 794 248 q 1004 128 913 128 q 1158 193 1094 128 q 1221 347 1221 256 q 1158 501 1221 438 q 1004 565 1094 565 q 850 501 913 565 q 786 373 794 447 l 786 321 m 786 618 q 1004 694 880 694 q 1249 592 1147 694 q 1351 347 1351 490 q 1249 101 1351 204 q 1004 0 1147 0 q 786 109 880 0 l 786 -121 q 703 -278 786 -222 l 632 -170 q 656 -115 656 -154 l 656 77 q 439 0 563 0 q 194 102 296 0 q 92 347 92 204 q 194 593 92 490 q 439 694 296 694 q 656 585 563 694 l 656 815 q 739 972 656 917 l 810 864 q 786 810 786 848 l 786 618 z "},"х":{"ha":781,"x_min":92,"x_max":689,"o":"m 390 220 q 302 102 340 142 q 92 0 208 0 l 92 130 q 222 207 158 130 q 315 346 256 247 q 221 488 256 448 q 92 565 158 565 l 92 694 q 301 592 206 694 q 391 471 338 552 q 479 592 442 552 q 689 694 574 694 l 689 565 q 559 488 623 565 q 465 346 525 448 q 558 207 524 247 q 689 130 623 130 l 689 0 q 478 102 573 0 q 390 220 441 142 z "},"ц":{"ha":878,"x_min":67,"x_max":810,"o":"m 786 194 q 761 98 786 144 q 689 26 736 52 q 591 0 642 0 l 286 0 q 189 26 235 0 q 117 98 142 52 q 92 194 92 144 l 92 559 q 67 613 92 597 l 138 722 q 221 564 221 666 l 221 194 q 230 162 221 178 q 254 138 238 146 q 286 130 269 130 l 591 130 q 624 138 608 130 q 648 162 640 146 q 656 194 656 178 l 656 537 q 739 694 656 639 l 810 586 q 786 532 786 570 l 786 194 m 783 -115 q 810 -183 810 -142 q 783 -250 810 -222 q 715 -278 755 -278 q 648 -250 676 -278 q 621 -183 621 -222 q 648 -115 621 -142 q 715 -87 676 -87 q 783 -115 755 -87 z "},"ч":{"ha":878,"x_min":67,"x_max":810,"o":"m 656 694 l 786 694 l 786 163 q 810 109 786 124 l 739 0 q 656 157 656 56 l 656 248 q 439 139 563 139 q 194 240 296 139 q 92 486 92 343 l 92 566 q 67 620 92 604 l 138 728 q 221 571 221 673 l 221 486 l 222 486 q 285 332 222 395 q 439 267 349 267 q 593 332 530 267 q 656 460 648 387 l 656 694 z "},"ш":{"ha":1442,"x_min":67,"x_max":1375,"o":"m 721 49 q 689 26 707 36 q 591 0 642 0 l 286 0 q 189 26 235 0 q 117 98 142 52 q 92 194 92 144 l 92 559 q 67 613 92 597 l 138 722 q 221 564 221 666 l 221 194 q 230 162 221 178 q 254 138 238 146 q 286 130 269 130 l 591 130 q 624 138 608 130 q 648 162 640 146 q 656 194 656 178 l 656 532 q 632 586 656 570 l 703 694 q 786 537 786 639 l 786 194 q 794 162 786 178 q 819 138 803 146 q 851 130 834 130 l 1156 130 q 1189 138 1173 130 q 1213 162 1204 146 q 1221 194 1221 178 l 1221 564 q 1304 722 1221 666 l 1375 613 q 1351 559 1351 597 l 1351 194 q 1326 98 1351 144 q 1254 26 1301 52 q 1156 0 1207 0 l 851 0 q 753 26 800 0 q 721 49 736 36 z "},"щ":{"ha":1442,"x_min":67,"x_max":1375,"o":"m 721 49 q 689 26 707 36 q 591 0 642 0 l 286 0 q 189 26 235 0 q 117 98 142 52 q 92 194 92 144 l 92 559 q 67 613 92 597 l 138 722 q 221 564 221 666 l 221 194 q 230 162 221 178 q 254 138 238 146 q 286 130 269 130 l 591 130 q 624 138 608 130 q 648 162 640 146 q 656 194 656 178 l 656 532 q 632 586 656 570 l 703 694 q 786 537 786 639 l 786 194 q 794 162 786 178 q 819 138 803 146 q 851 130 834 130 l 1156 130 q 1189 138 1173 130 q 1213 162 1204 146 q 1221 194 1221 178 l 1221 564 q 1304 722 1221 666 l 1375 613 q 1351 559 1351 597 l 1351 194 q 1326 98 1351 144 q 1254 26 1301 52 q 1156 0 1207 0 l 851 0 q 753 26 800 0 q 721 49 736 36 m 1348 -115 q 1375 -183 1375 -142 q 1348 -250 1375 -222 q 1280 -278 1320 -278 q 1213 -250 1241 -278 q 1185 -183 1185 -222 q 1213 -115 1185 -142 q 1280 -87 1241 -87 q 1348 -115 1320 -87 z "},"ъ":{"ha":878,"x_min":67,"x_max":787,"o":"m 569 130 q 612 142 591 130 q 645 174 633 153 q 657 218 657 195 q 645 262 657 241 q 613 294 633 283 q 572 305 593 305 l 286 305 q 191 330 237 305 q 118 402 144 355 q 92 500 92 449 l 92 500 l 92 532 q 67 586 92 570 l 138 694 q 221 537 221 639 l 221 500 q 230 467 222 483 q 254 443 239 452 q 286 435 270 435 l 572 435 q 677 407 627 435 q 758 327 729 378 q 787 218 787 275 q 757 109 787 161 q 675 29 728 57 q 569 0 623 1 l 254 0 q 200 -24 216 0 l 92 47 q 249 130 147 130 l 569 130 z "},"ы":{"ha":1137,"x_min":67,"x_max":1070,"o":"m 569 130 q 612 142 591 130 q 645 174 633 153 q 657 218 657 195 q 645 262 657 241 q 613 294 633 283 q 572 305 593 305 l 286 305 q 191 330 237 305 q 118 402 144 355 q 92 500 92 449 l 92 500 l 92 532 q 67 586 92 570 l 138 694 q 221 537 221 639 l 221 500 q 230 467 222 483 q 254 443 239 452 q 286 435 270 435 l 572 435 q 677 407 627 435 q 758 327 729 378 q 787 218 787 275 q 757 109 787 161 q 675 29 728 57 q 569 0 623 1 l 254 0 q 200 -24 216 0 l 92 47 q 249 130 147 130 l 569 130 m 916 537 q 999 694 916 639 l 1070 586 q 1046 532 1046 570 l 1046 0 l 916 0 l 916 537 z "},"ь":{"ha":878,"x_min":67,"x_max":787,"o":"m 569 130 q 612 142 591 130 q 645 174 633 153 q 657 218 657 195 q 645 262 657 241 q 613 294 633 283 q 572 305 593 305 l 286 305 q 191 330 237 305 q 118 402 144 355 q 92 500 92 449 l 92 500 l 92 532 q 67 586 92 570 l 138 694 q 221 537 221 639 l 221 500 q 230 467 222 483 q 254 443 239 452 q 286 435 270 435 l 572 435 q 677 407 627 435 q 758 327 729 378 q 787 218 787 275 q 757 109 787 161 q 675 29 728 57 q 569 0 623 1 l 254 0 q 200 -24 216 0 l 92 47 q 249 130 147 130 l 569 130 z "},"э":{"ha":775,"x_min":92,"x_max":684,"o":"m 182 193 q 336 128 246 128 q 490 193 427 128 q 555 347 555 256 q 490 501 555 438 q 336 565 427 565 q 182 501 246 565 l 92 592 q 336 694 193 694 q 583 592 480 694 q 684 347 684 490 q 583 101 684 204 q 336 0 480 0 q 92 101 193 0 l 182 193 m 442 348 q 415 280 442 307 q 347 252 387 252 q 279 280 308 252 q 252 348 252 307 q 279 414 252 387 q 347 443 308 443 q 415 414 387 443 q 442 348 442 387 z "},"ю":{"ha":1306,"x_min":67,"x_max":1215,"o":"m 520 347 q 621 592 520 490 q 867 694 724 694 q 1112 592 1010 694 q 1215 347 1215 490 q 1112 101 1215 204 q 867 0 1010 0 q 621 101 724 0 q 520 347 520 204 m 648 347 q 713 193 648 256 q 867 128 777 128 q 1021 193 958 128 q 1084 347 1084 256 q 1021 501 1084 438 q 867 565 958 565 q 713 501 777 565 q 648 347 648 438 m 221 0 l 92 0 l 92 532 q 67 586 92 570 l 138 694 q 221 537 221 639 l 221 0 m 275 348 q 302 414 275 387 q 370 443 331 443 q 438 414 410 443 q 465 348 465 387 q 438 280 465 307 q 370 252 410 252 q 302 280 331 252 q 275 348 275 307 z "},"я":{"ha":878,"x_min":92,"x_max":786,"o":"m 286 565 q 254 556 269 565 q 230 532 238 548 q 221 500 221 517 q 274 427 221 468 q 462 321 323 388 q 654 215 599 254 q 786 0 786 123 l 656 0 q 579 109 656 56 q 406 204 532 142 q 385 214 395 210 q 301 102 336 140 q 92 0 206 0 l 92 130 q 221 207 158 130 q 270 275 241 230 q 194 325 222 302 q 92 500 92 404 q 117 596 92 550 q 189 668 142 642 q 286 694 235 694 l 623 694 q 677 719 662 694 l 786 648 q 629 565 730 565 l 286 565 z "},"ё":{"ha":725,"x_min":92,"x_max":633,"o":"m 504 500 q 495 532 504 517 q 471 556 487 548 q 439 565 456 565 q 285 501 348 565 q 220 347 220 438 q 224 302 220 323 q 263 321 243 311 q 451 427 401 388 q 504 500 504 468 m 439 694 q 536 668 490 694 q 608 596 583 642 q 633 500 633 550 q 531 325 633 404 q 319 204 471 277 q 289 189 304 197 q 439 128 351 128 l 460 130 q 617 47 562 130 l 509 -24 q 454 0 493 0 l 439 0 q 193 101 295 0 q 92 347 92 204 q 193 592 92 490 q 439 694 295 694 m 271 944 q 298 876 298 917 q 271 810 298 837 q 203 781 242 781 q 135 810 163 781 q 108 876 108 837 q 135 944 108 917 q 203 972 163 972 q 271 944 242 972 m 590 944 q 617 876 617 917 q 590 810 617 837 q 522 781 562 781 q 454 810 483 781 q 427 876 427 837 q 454 944 427 917 q 522 972 483 972 q 590 944 562 972 z "},"є":{"ha":790,"x_min":92,"x_max":699,"o":"m 254 404 q 230 379 239 395 q 221 347 221 363 q 230 314 221 330 q 254 291 239 299 l 286 278 q 362 250 320 264 q 552 172 497 200 q 699 -24 699 94 l 569 -24 q 492 57 569 16 q 318 127 445 81 q 221 163 264 146 q 203 171 212 167 q 194 175 199 173 q 117 250 143 203 q 92 347 92 296 q 118 444 92 397 q 194 519 144 491 q 318 566 245 541 q 492 637 445 612 q 569 719 569 677 l 699 719 q 552 522 699 600 q 362 444 497 494 q 286 416 320 429 l 254 404 m 509 348 q 536 414 509 387 q 604 443 565 443 q 672 414 644 443 q 699 348 699 387 q 672 280 699 307 q 604 252 644 252 q 536 280 565 252 q 509 348 509 307 z "},"і":{"ha":312,"x_min":61,"x_max":251,"o":"m 224 810 q 156 781 195 781 q 88 810 117 781 q 61 878 61 837 q 88 944 61 917 q 156 972 117 972 q 224 944 195 972 q 251 878 251 917 q 224 810 251 837 m 221 0 l 92 0 l 92 537 q 174 694 92 639 l 245 586 q 221 532 221 570 l 221 0 z "},"ї":{"ha":337,"x_min":-86,"x_max":423,"o":"m 92 537 q 174 694 92 639 l 245 586 q 221 532 221 570 l 221 0 l 92 0 l 92 537 m 77 944 q 104 876 104 917 q 77 810 104 837 q 9 781 48 781 q -59 810 -31 781 q -86 876 -86 837 q -59 944 -86 917 q 9 972 -31 972 q 77 944 48 972 m 396 944 q 423 876 423 917 q 396 810 423 837 q 328 781 368 781 q 260 810 289 781 q 233 876 233 837 q 260 944 233 917 q 328 972 289 972 q 396 944 368 972 z "},"ў":{"ha":878,"x_min":67,"x_max":786,"o":"m 92 347 l 92 532 q 67 586 92 570 l 138 694 q 221 537 221 639 l 221 344 q 285 193 221 256 q 439 130 348 130 l 450 130 q 579 217 542 185 q 656 347 656 281 l 656 674 l 786 674 l 786 347 q 684 137 786 232 q 472 -6 623 81 q 298 -119 345 -80 q 221 -251 221 -184 l 92 -251 q 194 -39 92 -134 q 289 33 227 -8 q 193 102 237 58 q 92 347 92 204 m 494 944 q 522 876 522 917 q 494 810 522 837 q 427 781 466 781 q 359 810 387 781 q 332 876 332 837 q 359 944 332 917 q 427 972 387 972 q 494 944 466 972 z "},"Ґ":{"ha":852,"x_min":67,"x_max":761,"o":"m 598 694 q 652 719 637 694 l 761 648 q 604 565 705 565 l 286 565 q 254 556 269 565 q 230 532 238 548 q 221 500 221 517 l 221 157 q 138 0 221 56 l 67 109 q 92 163 92 124 l 92 500 q 118 597 92 551 q 190 669 144 644 q 286 694 236 694 l 598 694 m 734 944 q 761 876 761 917 q 734 810 761 837 q 666 781 705 781 q 598 810 627 781 q 571 876 571 837 q 598 944 571 917 q 666 972 627 972 q 734 944 705 972 z "},"ґ":{"ha":781,"x_min":67,"x_max":498,"o":"m 308 600 q 335 666 308 639 q 403 694 363 694 q 471 666 442 694 q 498 600 498 639 q 471 532 498 559 q 403 503 442 503 q 335 532 363 503 q 308 600 308 559 m 92 0 l 92 532 q 67 586 92 570 l 138 694 q 221 537 221 639 l 221 0 l 92 0 m 308 878 q 335 944 308 917 q 403 972 363 972 q 471 944 442 972 q 498 878 498 917 q 471 810 498 837 q 403 781 442 781 q 335 810 363 781 q 308 878 308 837 z "},"Ғ":{"ha":852,"x_min":67,"x_max":761,"o":"m 598 694 q 652 719 637 694 l 761 648 q 604 565 705 565 l 286 565 q 254 556 269 565 q 230 532 238 548 q 221 500 221 517 l 221 157 q 138 0 221 56 l 67 109 q 92 163 92 124 l 92 500 q 118 597 92 551 q 190 669 144 644 q 286 694 236 694 l 598 694 m 494 281 q 426 252 465 252 q 358 281 387 252 q 331 349 331 308 q 358 415 331 388 q 426 444 387 444 q 494 415 465 444 q 522 349 522 388 q 494 281 522 308 z "},"ғ":{"ha":781,"x_min":92,"x_max":690,"o":"m 92 694 q 302 592 207 694 q 445 380 357 532 q 558 207 519 254 q 690 130 623 130 l 690 0 q 478 102 573 0 q 334 315 421 163 q 222 488 261 442 q 92 565 158 565 l 92 694 m 671 322 l 111 322 l 111 373 l 671 373 l 671 322 z "},"Қ":{"ha":975,"x_min":67,"x_max":883,"o":"m 659 349 q 753 207 719 247 q 883 130 817 130 l 883 0 q 673 102 768 0 q 585 224 635 142 q 495 102 533 143 q 286 0 400 0 q 190 25 236 0 q 118 97 144 50 q 92 195 92 144 l 92 532 q 67 586 92 570 l 138 694 q 221 537 221 639 l 221 195 q 230 162 221 178 q 254 138 238 146 q 286 130 269 130 q 415 207 352 130 q 527 379 454 252 q 672 592 614 532 q 883 694 767 694 l 883 565 q 752 488 817 565 q 659 349 718 448 z "},"қ":{"ha":975,"x_min":67,"x_max":883,"o":"m 659 349 q 753 207 719 247 q 883 130 817 130 l 883 0 q 673 102 768 0 q 585 224 635 142 q 495 102 533 143 q 286 0 400 0 q 190 25 236 0 q 118 97 144 50 q 92 195 92 144 l 92 532 q 67 586 92 570 l 138 694 q 221 537 221 639 l 221 195 q 230 162 221 178 q 254 138 238 146 q 286 130 269 130 q 415 207 352 130 q 527 379 454 252 q 672 592 614 532 q 883 694 767 694 l 883 565 q 752 488 817 565 q 659 349 718 448 m 856 -115 q 883 -183 883 -142 q 856 -250 883 -222 q 788 -278 827 -278 q 720 -250 749 -278 q 693 -183 693 -222 q 720 -115 693 -142 q 788 -87 749 -87 q 856 -115 827 -87 z "},"Ң":{"ha":877,"x_min":67,"x_max":810,"o":"m 656 564 q 739 722 656 666 l 810 613 q 785 559 785 597 l 785 0 l 656 0 l 656 564 m 221 130 q 138 -27 221 28 l 67 81 q 92 136 92 97 l 92 694 l 221 694 l 221 130 m 343 348 q 370 414 343 387 q 438 443 399 443 q 506 414 477 443 q 533 348 533 387 q 506 280 533 307 q 438 252 477 252 q 370 280 399 252 q 343 348 343 307 z "},"ң":{"ha":877,"x_min":67,"x_max":883,"o":"m 656 694 l 785 694 l 785 163 q 810 109 785 124 l 739 0 q 656 157 656 56 l 656 694 m 221 0 l 92 0 l 92 559 q 67 613 92 597 l 138 722 q 221 564 221 666 l 221 0 m 343 348 q 370 414 343 387 q 438 443 399 443 q 506 414 477 443 q 533 348 533 387 q 506 280 533 307 q 438 252 477 252 q 370 280 399 252 q 343 348 343 307 m 856 -115 q 883 -183 883 -142 q 856 -250 883 -222 q 788 -278 827 -278 q 720 -250 749 -278 q 693 -183 693 -222 q 720 -115 693 -142 q 788 -87 749 -87 q 856 -115 827 -87 z "},"Ү":{"ha":843,"x_min":92,"x_max":751,"o":"m 357 264 q 250 342 298 285 q 174 456 220 377 q 112 550 134 527 q 92 565 98 565 l 92 694 q 207 638 155 694 q 286 522 238 605 q 349 426 327 452 q 422 383 385 383 q 494 426 458 383 q 557 522 516 452 q 636 638 605 605 q 751 694 688 694 l 751 565 q 731 550 745 565 q 669 456 709 527 q 593 342 623 377 q 486 264 545 284 l 486 0 l 357 0 l 357 264 z "},"ү":{"ha":878,"x_min":67,"x_max":810,"o":"m 504 5 l 504 -278 l 374 -278 l 374 5 q 193 101 271 24 q 92 347 92 204 l 92 532 q 67 586 92 570 l 138 694 q 221 537 221 639 l 221 321 q 285 193 229 248 q 439 128 348 128 q 593 193 530 128 q 656 321 648 248 l 656 537 q 739 694 656 639 l 810 586 q 786 532 786 570 l 786 347 q 685 101 786 204 q 504 5 606 24 z "},"Ұ":{"ha":843,"x_min":92,"x_max":751,"o":"m 357 264 q 250 342 298 285 q 174 456 220 377 q 112 550 134 527 q 92 565 98 565 l 92 694 q 207 638 155 694 q 286 522 238 605 q 349 426 327 452 q 422 383 385 383 q 494 426 458 383 q 557 522 516 452 q 636 638 605 605 q 751 694 688 694 l 751 565 q 731 550 745 565 q 669 456 709 527 q 593 342 623 377 q 486 264 545 284 l 486 0 l 357 0 l 357 264 m 702 119 l 141 119 l 141 170 l 702 170 l 702 119 z "},"ұ":{"ha":878,"x_min":67,"x_max":810,"o":"m 504 5 l 504 -278 l 374 -278 l 374 5 q 193 101 271 24 q 92 347 92 204 l 92 532 q 67 586 92 570 l 138 694 q 221 537 221 639 l 221 321 q 285 193 229 248 q 439 128 348 128 q 593 193 530 128 q 656 321 648 248 l 656 537 q 739 694 656 639 l 810 586 q 786 532 786 570 l 786 347 q 685 101 786 204 q 504 5 606 24 m 720 -153 l 159 -153 l 159 -102 l 720 -102 l 720 -153 z "},"Һ":{"ha":878,"x_min":67,"x_max":810,"o":"m 221 0 l 92 0 l 92 559 q 67 613 92 597 l 138 722 q 221 564 221 666 l 221 446 q 439 555 315 555 q 684 454 582 555 q 786 208 786 351 l 786 136 q 810 81 786 97 l 739 -27 q 656 130 656 28 l 656 208 l 656 208 q 593 362 656 299 q 439 427 529 427 q 285 362 348 427 q 221 234 229 308 l 221 0 z "},"һ":{"ha":878,"x_min":67,"x_max":810,"o":"m 221 0 l 92 0 l 92 810 q 67 864 92 848 l 138 972 q 221 815 221 917 l 221 585 q 439 694 315 694 q 684 593 582 694 q 786 347 786 490 l 786 163 q 810 109 786 124 l 739 0 q 656 157 656 56 l 656 347 l 656 347 q 593 501 656 438 q 439 566 529 566 q 285 501 348 566 q 221 373 229 447 l 221 0 z "},"Ә":{"ha":725,"x_min":92,"x_max":633,"o":"m 221 194 q 230 162 221 178 q 254 138 238 146 q 286 130 269 130 q 440 193 377 130 q 505 347 505 256 q 500 393 505 371 q 462 374 482 383 q 274 267 323 307 q 221 194 221 227 m 286 0 q 189 26 235 0 q 117 98 142 52 q 92 194 92 144 q 194 370 92 290 q 406 490 254 417 q 436 505 421 498 q 286 566 374 566 l 265 565 q 108 648 163 565 l 216 719 q 271 694 232 694 l 286 694 q 532 593 430 694 q 633 347 633 490 q 532 102 633 204 q 286 0 430 0 z "},"ә":{"ha":725,"x_min":92,"x_max":633,"o":"m 221 194 q 230 162 221 178 q 254 138 238 146 q 286 130 269 130 q 440 193 377 130 q 505 347 505 256 q 500 393 505 371 q 462 374 482 383 q 274 267 323 307 q 221 194 221 227 m 286 0 q 189 26 235 0 q 117 98 142 52 q 92 194 92 144 q 194 370 92 290 q 406 490 254 417 q 436 505 421 498 q 286 566 374 566 l 265 565 q 108 648 163 565 l 216 719 q 271 694 232 694 l 286 694 q 532 593 430 694 q 633 347 633 490 q 532 102 633 204 q 286 0 430 0 z "},"Ө":{"ha":878,"x_min":92,"x_max":786,"o":"m 92 347 q 193 592 92 490 q 439 694 295 694 q 684 592 582 694 q 786 347 786 490 q 684 101 786 204 q 439 0 582 0 q 193 101 295 0 q 92 347 92 204 m 221 348 q 286 194 221 257 q 440 129 349 129 q 594 194 530 129 q 657 348 657 257 q 594 502 657 439 q 440 566 530 566 q 286 502 349 566 q 221 348 221 439 m 534 348 q 507 280 534 307 q 439 252 478 252 q 371 280 399 252 q 344 348 344 307 q 371 414 344 387 q 439 443 399 443 q 507 414 478 443 q 534 348 534 387 z "},"ө":{"ha":878,"x_min":92,"x_max":786,"o":"m 92 347 q 193 592 92 490 q 439 694 295 694 q 684 592 582 694 q 786 347 786 490 q 684 101 786 204 q 439 0 582 0 q 193 101 295 0 q 92 347 92 204 m 221 348 q 286 194 221 257 q 440 129 349 129 q 594 194 530 129 q 657 348 657 257 q 594 502 657 439 q 440 566 530 566 q 286 502 349 566 q 221 348 221 439 m 534 348 q 507 280 534 307 q 439 252 478 252 q 371 280 399 252 q 344 348 344 307 q 371 414 344 387 q 439 443 399 443 q 507 414 478 443 q 534 348 534 387 z "},"–":{"ha":1217,"x_min":92,"x_max":1126,"o":"m 92 271 l 92 400 l 963 400 q 1017 425 1002 400 l 1126 353 q 968 271 1070 271 l 92 271 z "},"—":{"ha":1976,"x_min":92,"x_max":1885,"o":"m 92 271 l 92 400 l 1722 400 q 1776 425 1761 400 l 1885 353 q 1727 271 1829 271 l 92 271 z "},"‘":{"ha":337,"x_min":92,"x_max":245,"o":"m 92 536 q 174 694 92 638 l 245 585 q 221 531 221 570 l 221 368 l 92 368 l 92 536 z "},"’":{"ha":337,"x_min":92,"x_max":245,"o":"m 245 526 q 163 368 245 424 l 92 477 q 116 531 116 492 l 116 694 l 245 694 l 245 526 z "},"‚":{"ha":337,"x_min":92,"x_max":245,"o":"m 245 -39 q 163 -196 245 -140 l 92 -87 q 116 -33 116 -72 l 116 130 l 245 130 l 245 -39 z "},"‛":{"ha":337,"x_min":92,"x_max":245,"o":"m 92 694 l 221 694 l 221 531 q 245 477 221 492 l 174 368 q 92 526 92 424 l 92 694 z "},"“":{"ha":553,"x_min":92,"x_max":462,"o":"m 92 536 q 174 694 92 638 l 245 585 q 221 531 221 570 l 221 368 l 92 368 l 92 536 m 308 536 q 391 694 308 638 l 462 585 q 437 531 437 570 l 437 368 l 308 368 l 308 536 z "},"”":{"ha":553,"x_min":92,"x_max":462,"o":"m 462 526 q 379 368 462 424 l 308 477 q 332 531 332 492 l 332 694 l 462 694 l 462 526 m 245 526 q 163 368 245 424 l 92 477 q 116 531 116 492 l 116 694 l 245 694 l 245 526 z "},"„":{"ha":553,"x_min":92,"x_max":462,"o":"m 462 -39 q 379 -196 462 -140 l 308 -87 q 332 -33 332 -72 l 332 130 l 462 130 l 462 -39 m 245 -39 q 163 -196 245 -140 l 92 -87 q 116 -33 116 -72 l 116 130 l 245 130 l 245 -39 z "},"‟":{"ha":553,"x_min":92,"x_max":462,"o":"m 92 694 l 221 694 l 221 531 q 245 477 221 492 l 174 368 q 92 526 92 424 l 92 694 m 308 694 l 437 694 l 437 531 q 462 477 437 492 l 391 368 q 308 526 308 424 l 308 694 z "},"†":{"ha":866,"x_min":92,"x_max":774,"o":"m 585 595 q 612 662 585 635 q 680 690 640 690 q 747 662 719 690 q 774 595 774 635 q 747 528 774 555 q 680 499 719 499 q 612 528 640 499 q 585 595 585 555 m 368 815 q 451 972 368 917 l 522 864 q 498 810 498 848 l 498 -108 q 415 -265 498 -210 l 344 -157 q 368 -102 368 -141 l 368 815 m 92 595 q 119 662 92 635 q 186 690 147 690 q 254 662 226 690 q 281 595 281 635 q 254 528 281 555 q 186 499 226 499 q 119 528 147 499 q 92 595 92 555 z "},"‡":{"ha":866,"x_min":92,"x_max":774,"o":"m 585 595 q 612 662 585 635 q 680 690 640 690 q 747 662 719 690 q 774 595 774 635 q 747 528 774 555 q 680 499 719 499 q 612 528 640 499 q 585 595 585 555 m 368 815 q 451 972 368 917 l 522 864 q 498 810 498 848 l 498 -108 q 415 -265 498 -210 l 344 -157 q 368 -102 368 -141 l 368 815 m 92 595 q 119 662 92 635 q 186 690 147 690 q 254 662 226 690 q 281 595 281 635 q 254 528 281 555 q 186 499 226 499 q 119 528 147 499 q 92 595 92 555 m 585 96 q 612 163 585 136 q 680 191 640 191 q 747 163 719 191 q 774 96 774 136 q 747 28 774 56 q 680 0 719 0 q 612 28 640 0 q 585 96 585 56 m 92 96 q 119 163 92 136 q 186 191 147 191 q 254 163 226 191 q 281 96 281 136 q 254 28 281 56 q 186 0 226 0 q 119 28 147 0 q 92 96 92 56 z "},"•":{"ha":420,"x_min":92,"x_max":329,"o":"m 295 431 q 329 347 329 397 q 295 263 329 297 q 210 228 260 228 q 125 263 161 228 q 92 347 92 297 q 125 431 92 397 q 210 467 161 467 q 295 431 260 467 z "},"…":{"ha":1012,"x_min":92,"x_max":920,"o":"m 254 163 q 281 95 281 136 q 254 28 281 56 q 186 0 226 0 q 119 28 147 0 q 92 95 92 56 q 119 163 92 136 q 186 191 147 191 q 254 163 226 191 m 574 163 q 601 95 601 136 q 574 28 601 56 q 506 0 545 0 q 438 28 467 0 q 411 95 411 56 q 438 163 411 136 q 506 191 467 191 q 574 163 545 191 m 893 163 q 920 95 920 136 q 893 28 920 56 q 825 0 865 0 q 758 28 786 0 q 730 95 730 56 q 758 163 730 136 q 825 191 786 191 q 893 163 865 191 z "},"‰":{"ha":1114,"x_min":92,"x_max":1022,"o":"m 785 565 q 654 488 718 565 q 543 315 615 442 q 398 102 455 163 q 186 0 303 0 l 186 130 q 318 207 253 130 q 431 380 357 254 q 574 592 519 532 q 785 694 669 694 l 785 565 m 444 22 q 494 145 444 94 q 617 196 545 196 q 740 145 689 196 q 791 22 791 94 q 740 -100 791 -49 q 617 -151 689 -151 q 494 -100 545 -151 q 444 22 444 -49 m 562 22 q 578 -17 562 -1 q 617 -33 594 -33 q 656 -17 640 -33 q 672 22 672 -1 q 656 61 672 45 q 617 77 640 77 q 578 61 594 77 q 562 22 562 45 m 439 521 q 389 399 439 450 q 265 347 337 347 q 143 399 194 347 q 92 521 92 450 q 143 644 92 593 q 265 694 194 694 q 389 644 337 694 q 439 521 439 593 m 321 521 q 304 560 321 544 q 265 576 288 576 q 227 560 243 576 q 211 521 211 544 q 227 482 211 498 q 265 466 243 466 q 304 482 288 466 q 321 521 321 498 m 675 348 q 726 471 675 420 q 848 522 777 522 q 971 471 920 522 q 1022 348 1022 420 q 971 225 1022 277 q 848 174 920 174 q 726 225 777 174 q 675 348 675 277 m 793 348 q 809 309 793 325 q 848 292 825 292 q 887 309 871 292 q 903 348 903 325 q 887 387 903 371 q 848 403 871 403 q 809 387 825 403 q 793 348 793 371 z "},"‹":{"ha":624,"x_min":92,"x_max":532,"o":"m 532 677 q 476 562 532 614 q 359 483 443 531 q 264 420 290 442 q 221 348 221 385 q 264 275 221 311 q 359 212 290 253 q 476 133 443 164 q 532 18 532 81 l 403 18 q 388 38 403 24 q 294 100 365 60 q 180 176 215 146 q 92 348 92 250 q 180 519 92 445 q 294 595 215 549 q 388 657 365 635 q 403 677 403 671 l 532 677 z "},"›":{"ha":624,"x_min":92,"x_max":532,"o":"m 221 677 q 236 657 221 671 q 330 595 259 635 q 444 519 409 549 q 532 348 532 445 q 444 176 532 250 q 330 100 409 146 q 236 38 259 60 q 221 18 221 24 l 92 18 q 148 133 92 81 q 264 212 181 164 q 360 275 334 253 q 403 348 403 311 q 360 420 403 385 q 264 483 334 442 q 148 562 181 531 q 92 677 92 614 l 221 677 z "},"⁄":{"ha":781,"x_min":92,"x_max":690,"o":"m 690 565 q 559 488 623 565 q 448 315 520 442 q 303 102 360 163 q 92 0 208 0 l 92 130 q 223 207 158 130 q 336 380 262 254 q 479 592 424 532 q 690 694 574 694 l 690 565 z "},"₣":{"ha":1066,"x_min":92,"x_max":975,"o":"m 812 694 q 866 719 850 694 l 975 648 q 817 565 919 565 l 499 565 q 467 556 483 565 q 443 532 452 548 q 435 500 435 517 l 435 157 q 352 0 435 56 l 281 109 q 305 163 305 124 l 305 500 q 331 597 305 551 q 404 669 357 644 q 499 694 450 694 l 812 694 m 708 281 q 640 252 679 252 q 572 281 601 252 q 545 349 545 308 q 572 415 545 388 q 640 444 601 444 q 708 415 679 444 q 735 349 735 388 q 708 281 735 308 m 661 166 l 92 166 l 92 217 l 661 217 l 661 166 z "},"₤":{"ha":939,"x_min":92,"x_max":847,"o":"m 92 130 q 223 207 158 130 q 336 380 262 254 q 479 592 424 532 q 690 694 574 694 l 690 565 q 559 488 623 565 q 448 315 520 442 q 327 130 377 193 l 690 130 q 847 47 791 130 l 739 -24 q 684 0 723 0 l 92 0 l 92 130 m 653 242 l 92 242 l 92 293 l 653 293 l 653 242 m 653 378 l 92 378 l 92 429 l 653 429 l 653 378 z "},"₧":{"ha":1842,"x_min":92,"x_max":1750,"o":"m 255 565 q 113 648 163 565 l 211 719 q 260 694 225 694 l 543 694 q 639 666 592 694 q 713 585 686 637 q 739 476 739 533 q 713 368 739 419 q 641 288 687 316 q 546 260 595 260 l 289 260 q 260 251 274 260 q 238 227 246 243 q 230 195 231 212 l 230 157 q 156 0 230 56 l 92 109 q 113 163 113 124 l 113 195 l 114 195 q 138 292 114 245 q 203 364 161 339 q 289 389 244 389 l 546 389 q 583 400 565 389 q 612 432 602 412 q 623 476 623 453 q 612 520 623 499 q 582 553 601 541 q 543 565 564 564 l 255 565 m 1750 565 q 1620 488 1684 565 q 1508 315 1581 442 q 1364 102 1421 163 q 1152 0 1269 0 l 1152 130 q 1284 207 1219 130 q 1397 380 1323 254 q 1540 592 1485 532 q 1750 694 1635 694 l 1750 565 m 869 565 q 711 648 767 565 l 820 719 q 874 694 836 694 l 1128 694 l 1128 565 l 998 565 l 998 163 q 1023 109 998 124 l 951 0 q 869 157 869 56 l 869 565 z "},"€":{"ha":790,"x_min":92,"x_max":699,"o":"m 254 404 q 230 379 239 395 q 221 347 221 363 q 230 314 221 330 q 254 291 239 299 l 286 278 q 362 250 320 264 q 552 172 497 200 q 699 -24 699 94 l 569 -24 q 492 57 569 16 q 318 127 445 81 q 221 163 264 146 q 203 171 212 167 q 194 175 199 173 q 117 250 143 203 q 92 347 92 296 q 118 444 92 397 q 194 519 144 491 q 318 566 245 541 q 492 637 445 612 q 569 719 569 677 l 699 719 q 552 522 699 600 q 362 444 497 494 q 286 416 320 429 l 254 404 m 699 254 l 136 254 l 136 305 l 699 305 l 699 254 m 699 390 l 129 390 l 129 441 l 699 441 l 699 390 z "},"₸":{"ha":878,"x_min":92,"x_max":786,"o":"m 92 565 l 92 694 l 623 694 q 677 719 662 694 l 786 648 q 629 565 730 565 l 92 565 m 489 349 l 489 157 q 406 0 489 56 l 335 109 q 359 163 359 124 l 359 349 l 92 349 l 92 478 l 623 478 q 677 503 662 478 l 786 431 q 629 349 730 349 l 489 349 z "},"№":{"ha":1776,"x_min":67,"x_max":1685,"o":"m 221 500 l 221 157 q 138 0 221 56 l 67 109 q 92 163 92 124 l 92 500 q 118 597 92 551 q 190 669 144 644 q 286 694 236 694 q 495 592 400 694 q 639 380 551 532 q 752 207 713 254 q 883 130 817 130 q 915 138 899 130 q 939 162 930 146 q 947 195 947 178 l 947 537 q 1030 694 947 639 l 1101 586 q 1077 532 1077 570 l 1077 195 q 1051 97 1077 144 q 979 25 1025 50 q 883 0 932 0 q 672 102 767 0 q 527 315 614 163 q 415 488 454 442 q 286 565 352 565 q 254 556 269 565 q 230 532 238 548 q 221 500 221 517 m 1164 434 q 1240 618 1164 541 q 1424 694 1316 694 q 1608 618 1531 694 q 1685 434 1685 541 q 1608 250 1685 327 q 1424 174 1531 174 q 1240 250 1316 174 q 1164 434 1164 327 m 1276 434 q 1320 330 1276 372 q 1424 286 1362 286 q 1528 330 1485 286 q 1571 434 1571 372 q 1528 538 1571 495 q 1424 581 1485 581 q 1320 538 1362 581 q 1276 434 1276 495 m 1567 104 q 1685 43 1643 104 l 1603 -11 q 1563 7 1592 7 l 1225 7 l 1225 104 l 1567 104 z "},"™":{"ha":1303,"x_min":92,"x_max":1211,"o":"m 270 911 l 270 748 q 233 685 270 707 l 201 728 q 212 750 212 735 l 212 911 l 91 911 l 91 963 l 331 963 q 355 973 348 963 l 404 944 q 333 911 379 911 l 270 911 m 841 823 q 883 768 868 784 q 942 737 912 737 l 942 685 q 847 726 890 685 q 782 811 821 750 q 731 880 749 862 q 673 911 703 911 q 615 880 643 911 q 564 811 597 862 q 499 726 525 750 q 404 685 457 685 l 404 737 q 463 768 434 737 q 514 837 481 786 q 579 922 554 898 q 673 963 621 963 q 767 922 725 963 q 807 873 784 906 q 847 922 831 906 q 942 963 890 963 q 1036 922 994 963 q 1101 837 1061 898 q 1152 768 1134 786 q 1211 737 1181 737 l 1211 685 q 1116 726 1159 685 q 1051 811 1090 750 q 1000 880 1018 862 q 942 911 972 911 q 883 880 912 911 q 841 823 868 864 z "},"−":{"ha":878,"x_min":92,"x_max":786,"o":"m 92 271 l 92 400 l 623 400 q 677 425 662 400 l 786 353 q 629 271 730 271 l 92 271 z "},"":{"ha":2574,"x_min":92,"x_max":2483,"o":"m 758 157 q 689 128 728 128 q 621 157 650 128 q 594 225 594 184 q 621 292 594 264 q 689 320 650 320 q 758 292 728 320 q 785 225 785 264 q 758 157 785 184 m 1885 565 q 1755 488 1818 565 q 1643 315 1716 442 q 1498 102 1556 163 q 1287 0 1403 0 q 1076 102 1171 0 q 931 315 1019 163 q 819 488 859 442 q 689 565 755 565 q 559 488 623 565 q 448 315 520 442 q 303 102 360 163 q 92 0 208 0 l 92 130 q 223 207 158 130 q 336 380 262 254 q 479 592 424 532 q 689 694 574 694 q 899 592 804 694 q 1042 380 955 532 q 1156 207 1116 254 q 1287 130 1221 130 q 1418 207 1354 130 q 1531 380 1457 254 q 1675 592 1619 532 q 1885 694 1770 694 q 2095 592 2000 694 q 2238 380 2150 532 q 2351 207 2312 254 q 2483 130 2416 130 l 2483 0 q 2271 102 2366 0 q 2127 315 2214 163 q 2015 488 2054 442 q 1885 565 1951 565 m 1953 157 q 1885 128 1924 128 q 1817 157 1846 128 q 1790 225 1790 184 q 1817 292 1790 264 q 1885 320 1846 320 q 1953 292 1924 320 q 1980 225 1980 264 q 1953 157 1980 184 z "},"":{"ha":3176,"x_min":92,"x_max":3084,"o":"m 758 157 q 689 128 728 128 q 621 157 650 128 q 594 225 594 184 q 621 292 594 264 q 689 320 650 320 q 758 292 728 320 q 785 225 785 264 q 758 157 785 184 m 2555 157 q 2486 128 2525 128 q 2418 157 2448 128 q 2391 225 2391 184 q 2418 292 2391 264 q 2486 320 2448 320 q 2555 292 2525 320 q 2582 225 2582 264 q 2555 157 2582 184 m 1287 0 q 1076 102 1171 0 q 931 315 1019 163 q 819 488 859 442 q 689 565 755 565 q 559 488 623 565 q 448 315 520 442 q 303 102 360 163 q 92 0 208 0 l 92 130 q 223 207 158 130 q 336 380 262 254 q 479 592 424 532 q 689 694 574 694 q 899 592 804 694 q 1042 380 955 532 q 1156 207 1116 254 q 1287 130 1221 130 q 1420 207 1355 130 q 1513 346 1454 247 q 1419 488 1453 448 q 1289 565 1356 565 l 1289 694 q 1499 592 1404 694 q 1643 380 1555 532 q 1756 207 1716 254 q 1887 130 1820 130 q 2020 207 1954 130 q 2133 380 2059 254 q 2277 592 2220 532 q 2486 694 2372 694 q 2696 592 2601 694 q 2839 380 2752 532 q 2953 207 2913 254 q 3084 130 3018 130 l 3084 0 q 2873 102 2968 0 q 2728 315 2816 163 q 2616 488 2656 442 q 2486 565 2553 565 q 2357 488 2420 565 q 2245 315 2317 442 q 2100 102 2157 163 q 1887 0 2005 0 q 1676 102 1771 0 q 1588 220 1638 142 q 1500 102 1537 142 q 1287 0 1405 0 z "},"":{"ha":1976,"x_min":92,"x_max":1885,"o":"m 758 157 q 689 128 728 128 q 621 157 650 128 q 594 225 594 184 q 621 292 594 264 q 689 320 650 320 q 758 292 728 320 q 785 225 785 264 q 758 157 785 184 m 1287 0 q 1076 102 1171 0 q 931 315 1019 163 q 819 488 859 442 q 689 565 755 565 q 559 488 623 565 q 448 315 520 442 q 303 102 360 163 q 92 0 208 0 l 92 130 q 223 207 158 130 q 336 380 262 254 q 479 592 424 532 q 689 694 574 694 q 899 592 804 694 q 1042 380 955 532 q 1156 207 1116 254 q 1287 130 1221 130 q 1418 207 1354 130 q 1531 380 1457 254 q 1675 592 1619 532 q 1885 694 1770 694 l 1885 565 q 1755 488 1818 565 q 1643 315 1716 442 q 1498 102 1556 163 q 1287 0 1403 0 z "},"":{"ha":2578,"x_min":92,"x_max":2486,"o":"m 758 157 q 689 128 728 128 q 621 157 650 128 q 594 225 594 184 q 621 292 594 264 q 689 320 650 320 q 758 292 728 320 q 785 225 785 264 q 758 157 785 184 m 1287 0 q 1076 102 1171 0 q 931 315 1019 163 q 819 488 859 442 q 689 565 755 565 q 559 488 623 565 q 448 315 520 442 q 303 102 360 163 q 92 0 208 0 l 92 130 q 223 207 158 130 q 336 380 262 254 q 479 592 424 532 q 689 694 574 694 q 899 592 804 694 q 1042 380 955 532 q 1156 207 1116 254 q 1287 130 1221 130 q 1420 207 1355 130 q 1513 346 1454 247 q 1419 488 1453 448 q 1289 565 1356 565 l 1289 694 q 1499 592 1404 694 q 1643 380 1555 532 q 1756 207 1716 254 q 1887 130 1820 130 q 2020 207 1954 130 q 2133 380 2059 254 q 2277 592 2220 532 q 2486 694 2372 694 l 2486 565 q 2357 488 2420 565 q 2245 315 2317 442 q 2100 102 2157 163 q 1887 0 2005 0 q 1676 102 1771 0 q 1588 220 1638 142 q 1500 102 1537 142 q 1287 0 1405 0 z "},"":{"ha":2574,"x_min":92,"x_max":2482,"o":"m 1885 0 q 1673 102 1769 0 q 1529 315 1616 163 q 1417 488 1456 442 q 1287 565 1353 565 q 1157 488 1221 565 q 1063 346 1122 448 q 1156 207 1122 247 q 1287 130 1221 130 l 1287 0 q 1076 102 1171 0 q 931 315 1019 163 q 819 488 859 442 q 690 565 755 565 q 559 488 623 565 q 448 315 520 442 q 303 102 360 163 q 92 0 208 0 l 92 130 q 223 207 158 130 q 336 380 262 254 q 479 592 424 532 q 690 694 574 694 q 899 592 804 694 q 988 471 937 551 q 1077 592 1040 551 q 1287 694 1172 694 q 1497 592 1402 694 q 1640 380 1552 532 q 1753 207 1714 254 q 1885 130 1818 130 q 2016 207 1951 130 q 2129 380 2055 254 q 2273 592 2216 532 q 2482 694 2367 694 l 2482 565 q 2353 488 2416 565 q 2241 315 2313 442 q 2096 102 2153 163 q 1885 0 2001 0 z "},"":{"ha":3175,"x_min":92,"x_max":3084,"o":"m 1885 0 q 1673 102 1769 0 q 1529 315 1616 163 q 1417 488 1456 442 q 1287 565 1353 565 q 1157 488 1221 565 q 1063 346 1122 448 q 1156 207 1122 247 q 1287 130 1221 130 l 1287 0 q 1076 102 1171 0 q 931 315 1019 163 q 819 488 859 442 q 690 565 755 565 q 559 488 623 565 q 448 315 520 442 q 303 102 360 163 q 92 0 208 0 l 92 130 q 223 207 158 130 q 336 380 262 254 q 479 592 424 532 q 690 694 574 694 q 899 592 804 694 q 988 471 937 551 q 1077 592 1040 551 q 1287 694 1172 694 q 1497 592 1402 694 q 1640 380 1552 532 q 1753 207 1714 254 q 1885 130 1818 130 q 2018 207 1952 130 q 2110 346 2051 247 q 2016 488 2051 448 q 1887 565 1953 565 l 1887 694 q 2096 592 2001 694 q 2240 380 2153 532 q 2353 207 2314 254 q 2484 130 2418 130 q 2617 207 2552 130 q 2730 380 2656 254 q 2874 592 2818 532 q 3084 694 2969 694 l 3084 565 q 2954 488 3017 565 q 2842 315 2915 442 q 2697 102 2755 163 q 2484 0 2602 0 q 2273 102 2368 0 q 2186 220 2236 142 q 2098 102 2135 142 q 1885 0 2003 0 z "},"":{"ha":1978,"x_min":92,"x_max":1887,"o":"m 1357 157 q 1289 128 1328 128 q 1221 157 1250 128 q 1194 225 1194 184 q 1221 292 1194 264 q 1289 320 1250 320 q 1357 292 1328 320 q 1384 225 1384 264 q 1357 157 1384 184 m 1289 694 q 1499 592 1404 694 q 1642 380 1554 532 q 1755 207 1716 254 q 1887 130 1820 130 l 1887 0 q 1675 102 1770 0 q 1531 315 1618 163 q 1419 488 1458 442 q 1289 565 1355 565 q 1159 488 1222 565 q 1047 315 1120 442 q 902 102 960 163 q 691 0 807 0 q 478 102 573 0 q 333 315 420 163 q 221 488 260 442 q 92 565 158 565 l 92 694 q 301 592 206 694 q 445 380 357 532 q 558 207 519 254 q 691 130 623 130 q 822 207 758 130 q 935 380 861 254 q 1079 592 1023 532 q 1289 694 1174 694 z "},"":{"ha":2575,"x_min":92,"x_max":2483,"o":"m 1289 694 q 1498 592 1403 694 q 1587 471 1535 551 q 1676 592 1638 551 q 1886 694 1771 694 q 2096 592 2001 694 q 2239 380 2151 532 q 2352 207 2313 254 q 2483 130 2417 130 l 2483 0 q 2272 102 2367 0 q 2127 315 2215 163 q 2016 488 2055 442 q 1886 565 1952 565 q 1756 488 1820 565 q 1662 346 1721 448 q 1754 207 1721 247 q 1886 130 1820 130 l 1886 0 q 1674 102 1770 0 q 1530 315 1617 163 q 1418 488 1457 442 q 1289 565 1354 565 q 1159 488 1222 565 q 1047 315 1120 442 q 902 102 960 163 q 691 0 807 0 q 478 102 573 0 q 333 315 420 163 q 221 488 260 442 q 92 565 158 565 l 92 694 q 301 592 206 694 q 445 380 357 532 q 558 207 519 254 q 691 130 623 130 q 822 207 758 130 q 935 380 861 254 q 1079 592 1023 532 q 1289 694 1174 694 z "},"":{"ha":2578,"x_min":92,"x_max":2486,"o":"m 1957 157 q 1888 128 1927 128 q 1820 157 1849 128 q 1793 225 1793 184 q 1820 292 1793 264 q 1888 320 1849 320 q 1957 292 1927 320 q 1984 225 1984 264 q 1957 157 1984 184 m 1888 694 q 2098 592 2003 694 q 2241 380 2154 532 q 2355 207 2315 254 q 2486 130 2420 130 l 2486 0 q 2275 102 2370 0 q 2130 315 2218 163 q 2018 488 2058 442 q 1888 565 1954 565 q 1758 488 1822 565 q 1647 315 1719 442 q 1501 102 1559 163 q 1289 0 1407 0 q 1078 102 1173 0 q 990 220 1040 142 q 902 102 939 142 q 689 0 807 0 q 478 102 573 0 q 333 315 420 163 q 221 488 260 442 q 92 565 158 565 l 92 694 q 301 592 206 694 q 445 380 357 532 q 558 207 519 254 q 689 130 623 130 q 822 207 757 130 q 915 346 856 247 q 821 488 855 448 q 691 565 758 565 l 691 694 q 901 592 806 694 q 1044 380 957 532 q 1158 207 1118 254 q 1289 130 1222 130 q 1421 207 1356 130 q 1535 380 1461 254 q 1678 592 1622 532 q 1888 694 1773 694 z "},"":{"ha":3175,"x_min":92,"x_max":3083,"o":"m 1888 694 q 2098 592 2003 694 q 2186 471 2135 551 q 2275 592 2238 551 q 2485 694 2370 694 q 2695 592 2600 694 q 2838 380 2751 532 q 2951 207 2912 254 q 3083 130 3016 130 l 3083 0 q 2871 102 2967 0 q 2727 315 2814 163 q 2615 488 2654 442 q 2485 565 2551 565 q 2355 488 2419 565 q 2261 346 2321 448 q 2354 207 2320 247 q 2485 130 2419 130 l 2485 0 q 2274 102 2370 0 q 2129 315 2217 163 q 2018 488 2057 442 q 1888 565 1954 565 q 1758 488 1822 565 q 1647 315 1719 442 q 1501 102 1559 163 q 1289 0 1407 0 q 1078 102 1173 0 q 990 220 1040 142 q 902 102 939 142 q 689 0 807 0 q 478 102 573 0 q 333 315 420 163 q 221 488 260 442 q 92 565 158 565 l 92 694 q 301 592 206 694 q 445 380 357 532 q 558 207 519 254 q 689 130 623 130 q 822 207 757 130 q 915 346 856 247 q 821 488 855 448 q 691 565 758 565 l 691 694 q 901 592 806 694 q 1044 380 957 532 q 1158 207 1118 254 q 1289 130 1222 130 q 1421 207 1356 130 q 1535 380 1461 254 q 1678 592 1622 532 q 1888 694 1773 694 z "},"":{"ha":3773,"x_min":92,"x_max":3682,"o":"m 3152 157 q 3084 128 3123 128 q 3016 157 3045 128 q 2989 225 2989 184 q 3016 292 2989 264 q 3084 320 3045 320 q 3152 292 3123 320 q 3179 225 3179 264 q 3152 157 3179 184 m 1885 0 q 1673 102 1769 0 q 1529 315 1616 163 q 1417 488 1456 442 q 1287 565 1353 565 q 1157 488 1221 565 q 1063 346 1122 448 q 1156 207 1122 247 q 1287 130 1221 130 l 1287 0 q 1076 102 1171 0 q 931 315 1019 163 q 819 488 859 442 q 690 565 755 565 q 559 488 623 565 q 448 315 520 442 q 303 102 360 163 q 92 0 208 0 l 92 130 q 223 207 158 130 q 336 380 262 254 q 479 592 424 532 q 690 694 574 694 q 899 592 804 694 q 988 471 937 551 q 1077 592 1040 551 q 1287 694 1172 694 q 1497 592 1402 694 q 1640 380 1552 532 q 1753 207 1714 254 q 1885 130 1818 130 q 2018 207 1952 130 q 2110 346 2051 247 q 2016 488 2051 448 q 1887 565 1953 565 l 1887 694 q 2096 592 2001 694 q 2240 380 2153 532 q 2353 207 2314 254 q 2484 130 2418 130 q 2617 207 2552 130 q 2730 380 2656 254 q 2874 592 2818 532 q 3084 694 2969 694 q 3294 592 3199 694 q 3437 380 3349 532 q 3550 207 3511 254 q 3682 130 3615 130 l 3682 0 q 3470 102 3565 0 q 3326 315 3413 163 q 3214 488 3253 442 q 3084 565 3150 565 q 2954 488 3017 565 q 2842 315 2915 442 q 2697 102 2755 163 q 2484 0 2602 0 q 2273 102 2368 0 q 2186 220 2236 142 q 2098 102 2135 142 q 1885 0 2003 0 z "},"":{"ha":3773,"x_min":92,"x_max":3681,"o":"m 758 157 q 689 128 728 128 q 621 157 650 128 q 594 225 594 184 q 621 292 594 264 q 689 320 650 320 q 758 292 728 320 q 785 225 785 264 q 758 157 785 184 m 1287 0 q 1076 102 1171 0 q 931 315 1019 163 q 819 488 859 442 q 689 565 755 565 q 559 488 623 565 q 448 315 520 442 q 303 102 360 163 q 92 0 208 0 l 92 130 q 223 207 158 130 q 336 380 262 254 q 479 592 424 532 q 689 694 574 694 q 899 592 804 694 q 1042 380 955 532 q 1156 207 1116 254 q 1287 130 1221 130 q 1420 207 1355 130 q 1513 346 1454 247 q 1419 488 1453 448 q 1289 565 1356 565 l 1289 694 q 1499 592 1404 694 q 1643 380 1555 532 q 1756 207 1716 254 q 1887 130 1820 130 q 2020 207 1954 130 q 2133 380 2059 254 q 2277 592 2220 532 q 2486 694 2372 694 q 2696 592 2601 694 q 2785 471 2733 551 q 2873 592 2836 551 q 3084 694 2968 694 q 3293 592 3198 694 q 3436 380 3349 532 q 3550 207 3510 254 q 3681 130 3615 130 l 3681 0 q 3470 102 3565 0 q 3325 315 3413 163 q 3213 488 3252 442 q 3084 565 3149 565 q 2953 488 3017 565 q 2859 346 2919 448 q 2952 207 2918 247 q 3084 130 3017 130 l 3084 0 q 2872 102 2968 0 q 2728 315 2815 163 q 2616 488 2655 442 q 2486 565 2552 565 q 2357 488 2420 565 q 2245 315 2317 442 q 2100 102 2157 163 q 1887 0 2005 0 q 1676 102 1771 0 q 1588 220 1638 142 q 1500 102 1537 142 q 1287 0 1405 0 z "},"":{"ha":3177,"x_min":92,"x_max":3086,"o":"m 1357 157 q 1289 128 1328 128 q 1221 157 1250 128 q 1194 225 1194 184 q 1221 292 1194 264 q 1289 320 1250 320 q 1357 292 1328 320 q 1384 225 1384 264 q 1357 157 1384 184 m 1289 565 q 1159 488 1222 565 q 1047 315 1120 442 q 902 102 960 163 q 691 0 807 0 q 478 102 573 0 q 333 315 420 163 q 221 488 260 442 q 92 565 158 565 l 92 694 q 301 592 206 694 q 445 380 357 532 q 558 207 519 254 q 691 130 623 130 q 822 207 758 130 q 935 380 861 254 q 1079 592 1023 532 q 1289 694 1174 694 q 1499 592 1404 694 q 1642 380 1554 532 q 1755 207 1716 254 q 1887 130 1820 130 q 2020 207 1954 130 q 2112 346 2053 247 q 2018 488 2053 448 q 1889 565 1955 565 l 1889 694 q 2098 592 2003 694 q 2242 380 2155 532 q 2355 207 2316 254 q 2486 130 2420 130 q 2619 207 2554 130 q 2732 380 2658 254 q 2876 592 2820 532 q 3086 694 2971 694 l 3086 565 q 2956 488 3019 565 q 2844 315 2917 442 q 2699 102 2757 163 q 2486 0 2604 0 q 2275 102 2370 0 q 2188 220 2238 142 q 2100 102 2137 142 q 1887 0 2005 0 q 1675 102 1770 0 q 1531 315 1618 163 q 1419 488 1458 442 q 1289 565 1355 565 z "},"":{"ha":3177,"x_min":92,"x_max":3086,"o":"m 1793 225 q 1820 292 1793 264 q 1889 320 1849 320 q 1957 292 1927 320 q 1984 225 1984 264 q 1957 157 1984 184 q 1889 128 1927 128 q 1820 157 1849 128 q 1793 225 1793 184 m 1889 694 q 2098 592 2003 694 q 2242 380 2155 532 q 2355 207 2316 254 q 2486 130 2420 130 q 2619 207 2554 130 q 2732 380 2658 254 q 2876 592 2820 532 q 3086 694 2971 694 l 3086 565 q 2956 488 3019 565 q 2844 315 2917 442 q 2699 102 2757 163 q 2486 0 2604 0 q 2275 102 2370 0 q 2130 315 2218 163 q 2018 488 2058 442 q 1889 565 1955 565 q 1758 488 1822 565 q 1647 315 1719 442 q 1502 102 1559 163 q 1291 0 1407 0 q 1078 102 1173 0 q 989 220 1040 142 q 902 102 939 142 q 691 0 807 0 q 478 102 573 0 q 333 315 420 163 q 221 488 260 442 q 92 565 158 565 l 92 694 q 301 592 206 694 q 445 380 357 532 q 558 207 519 254 q 691 130 623 130 q 822 207 758 130 q 935 380 861 254 q 1079 592 1023 532 q 1289 694 1174 694 l 1289 565 q 1159 488 1222 565 q 1065 346 1124 448 q 1158 207 1124 247 q 1291 130 1223 130 q 1422 207 1357 130 q 1535 380 1461 254 q 1678 592 1623 532 q 1889 694 1773 694 z "},"":{"ha":3777,"x_min":92,"x_max":3685,"o":"m 1957 157 q 1888 128 1927 128 q 1820 157 1849 128 q 1793 225 1793 184 q 1820 292 1793 264 q 1888 320 1849 320 q 1957 292 1927 320 q 1984 225 1984 264 q 1957 157 1984 184 m 1888 565 q 1758 488 1822 565 q 1647 315 1719 442 q 1501 102 1559 163 q 1289 0 1407 0 q 1078 102 1173 0 q 990 220 1040 142 q 902 102 939 142 q 689 0 807 0 q 478 102 573 0 q 333 315 420 163 q 221 488 260 442 q 92 565 158 565 l 92 694 q 301 592 206 694 q 445 380 357 532 q 558 207 519 254 q 689 130 623 130 q 822 207 757 130 q 915 346 856 247 q 821 488 855 448 q 691 565 758 565 l 691 694 q 901 592 806 694 q 1044 380 957 532 q 1158 207 1118 254 q 1289 130 1222 130 q 1421 207 1356 130 q 1535 380 1461 254 q 1678 592 1622 532 q 1888 694 1773 694 q 2098 592 2003 694 q 2241 380 2154 532 q 2355 207 2315 254 q 2486 130 2420 130 q 2619 207 2554 130 q 2712 346 2653 247 q 2618 488 2652 448 q 2488 565 2555 565 l 2488 694 q 2698 592 2603 694 q 2842 380 2754 532 q 2955 207 2915 254 q 3086 130 3019 130 q 3219 207 3153 130 q 3332 380 3258 254 q 3476 592 3419 532 q 3685 694 3571 694 l 3685 565 q 3556 488 3619 565 q 3444 315 3516 442 q 3299 102 3356 163 q 3086 0 3204 0 q 2875 102 2970 0 q 2787 220 2837 142 q 2699 102 2736 142 q 2486 0 2604 0 q 2275 102 2370 0 q 2130 315 2218 163 q 2018 488 2058 442 q 1888 565 1954 565 z "},"":{"ha":2574,"x_min":92,"x_max":2482,"o":"m 1885 0 q 1673 102 1769 0 q 1529 315 1616 163 q 1417 488 1456 442 q 1287 565 1353 565 q 1157 488 1221 565 q 1063 346 1122 448 q 1156 207 1122 247 q 1287 130 1221 130 l 1287 0 q 1076 102 1171 0 q 931 315 1019 163 q 819 488 859 442 q 690 565 755 565 q 559 488 623 565 q 448 315 520 442 q 303 102 360 163 q 92 0 208 0 l 92 130 q 223 207 158 130 q 336 380 262 254 q 479 592 424 532 q 690 694 574 694 q 899 592 804 694 q 988 471 937 551 q 1077 592 1040 551 q 1287 694 1172 694 q 1497 592 1402 694 q 1640 380 1552 532 q 1753 207 1714 254 q 1885 130 1818 130 q 2016 207 1951 130 q 2129 380 2055 254 q 2273 592 2216 532 q 2482 694 2367 694 l 2482 565 q 2353 488 2416 565 q 2241 315 2313 442 q 2096 102 2153 163 q 1885 0 2001 0 z "},"":{"ha":3175,"x_min":92,"x_max":3084,"o":"m 1885 0 q 1673 102 1769 0 q 1529 315 1616 163 q 1417 488 1456 442 q 1287 565 1353 565 q 1157 488 1221 565 q 1063 346 1122 448 q 1156 207 1122 247 q 1287 130 1221 130 l 1287 0 q 1076 102 1171 0 q 931 315 1019 163 q 819 488 859 442 q 690 565 755 565 q 559 488 623 565 q 448 315 520 442 q 303 102 360 163 q 92 0 208 0 l 92 130 q 223 207 158 130 q 336 380 262 254 q 479 592 424 532 q 690 694 574 694 q 899 592 804 694 q 988 471 937 551 q 1077 592 1040 551 q 1287 694 1172 694 q 1497 592 1402 694 q 1640 380 1552 532 q 1753 207 1714 254 q 1885 130 1818 130 q 2018 207 1952 130 q 2110 346 2051 247 q 2016 488 2051 448 q 1887 565 1953 565 l 1887 694 q 2096 592 2001 694 q 2240 380 2153 532 q 2353 207 2314 254 q 2484 130 2418 130 q 2617 207 2552 130 q 2730 380 2656 254 q 2874 592 2818 532 q 3084 694 2969 694 l 3084 565 q 2954 488 3017 565 q 2842 315 2915 442 q 2697 102 2755 163 q 2484 0 2602 0 q 2273 102 2368 0 q 2186 220 2236 142 q 2098 102 2135 142 q 1885 0 2003 0 z "},"":{"ha":2575,"x_min":92,"x_max":2483,"o":"m 1289 694 q 1498 592 1403 694 q 1587 471 1535 551 q 1676 592 1638 551 q 1886 694 1771 694 q 2096 592 2001 694 q 2239 380 2151 532 q 2352 207 2313 254 q 2483 130 2417 130 l 2483 0 q 2272 102 2367 0 q 2127 315 2215 163 q 2016 488 2055 442 q 1886 565 1952 565 q 1756 488 1820 565 q 1662 346 1721 448 q 1754 207 1721 247 q 1886 130 1820 130 l 1886 0 q 1674 102 1770 0 q 1530 315 1617 163 q 1418 488 1457 442 q 1289 565 1354 565 q 1159 488 1222 565 q 1047 315 1120 442 q 902 102 960 163 q 691 0 807 0 q 478 102 573 0 q 333 315 420 163 q 221 488 260 442 q 92 565 158 565 l 92 694 q 301 592 206 694 q 445 380 357 532 q 558 207 519 254 q 691 130 623 130 q 822 207 758 130 q 935 380 861 254 q 1079 592 1023 532 q 1289 694 1174 694 z "},"":{"ha":3175,"x_min":92,"x_max":3083,"o":"m 1888 694 q 2098 592 2003 694 q 2186 471 2135 551 q 2275 592 2238 551 q 2485 694 2370 694 q 2695 592 2600 694 q 2838 380 2751 532 q 2951 207 2912 254 q 3083 130 3016 130 l 3083 0 q 2871 102 2967 0 q 2727 315 2814 163 q 2615 488 2654 442 q 2485 565 2551 565 q 2355 488 2419 565 q 2261 346 2321 448 q 2354 207 2320 247 q 2485 130 2419 130 l 2485 0 q 2274 102 2370 0 q 2129 315 2217 163 q 2018 488 2057 442 q 1888 565 1954 565 q 1758 488 1822 565 q 1647 315 1719 442 q 1501 102 1559 163 q 1289 0 1407 0 q 1078 102 1173 0 q 990 220 1040 142 q 902 102 939 142 q 689 0 807 0 q 478 102 573 0 q 333 315 420 163 q 221 488 260 442 q 92 565 158 565 l 92 694 q 301 592 206 694 q 445 380 357 532 q 558 207 519 254 q 689 130 623 130 q 822 207 757 130 q 915 346 856 247 q 821 488 855 448 q 691 565 758 565 l 691 694 q 901 592 806 694 q 1044 380 957 532 q 1158 207 1118 254 q 1289 130 1222 130 q 1421 207 1356 130 q 1535 380 1461 254 q 1678 592 1622 532 q 1888 694 1773 694 z "},"":{"ha":1016,"x_min":92,"x_max":924,"o":"m 378 565 l 378 163 q 403 109 378 124 l 332 0 q 249 157 249 56 l 249 565 q 92 648 147 565 l 200 719 q 254 694 216 694 l 924 694 l 924 565 l 795 565 l 795 163 q 819 109 795 124 l 748 0 q 665 157 665 56 l 665 565 l 378 565 z "},"":{"ha":1198,"x_min":92,"x_max":1106,"o":"m 508 565 l 378 565 l 378 163 q 403 109 378 124 l 332 0 q 249 157 249 56 l 249 565 q 92 648 147 565 l 200 719 q 254 694 216 694 l 508 694 q 718 592 623 694 q 861 380 774 532 q 975 207 935 254 q 1106 130 1040 130 l 1106 0 q 895 102 989 0 q 750 315 838 163 q 638 488 677 442 q 508 565 574 565 z "},"ﬆ":{"ha":1198,"x_min":92,"x_max":1106,"o":"m 690 565 q 559 488 623 565 q 448 315 520 442 q 303 102 360 163 q 92 0 208 0 l 92 130 q 223 207 158 130 q 336 380 262 254 q 479 592 424 532 q 690 694 574 694 l 1106 694 l 1106 565 l 977 565 l 977 163 q 1001 109 977 124 l 930 0 q 847 157 847 56 l 847 565 l 690 565 z "}}}
